<?xml version="1.0" encoding="utf-8"?>
<!-- Generator: Adobe Illustrator 19.0.1, SVG Export Plug-In . SVG Version: 6.00 Build 0)  -->
<svg version="1.1" id="Layer_1" xmlns="http://www.w3.org/2000/svg" xmlns:xlink="http://www.w3.org/1999/xlink" x="0px" y="0px"
	 viewBox="296.6 274.5 296.9 322.3" style="enable-background:new 296.6 274.5 296.9 322.3;" xml:space="preserve">
<style type="text/css">
	.st0{fill:#CF816D;}
</style>
<title>Artboard Copy 27</title>
<desc>Created with Sketch.</desc>
<g id="Page-1">
	<g id="Artboard-Copy-27">
		<rect id="Rectangle-4" x="310" y="447.9" class="st0" width="255.8" height="5"/>
		<g id="Lion-Copy" transform="translate(223.000000, 228.000000)">
			<path id="Path-2" class="st0" d="M292.4,51.5h42.1v-5h-43.6l-49.5,33.3l7.5,0.4c0.1,0,0.2,0,0.4,0c0.4,0,0.9,0.1,1.4,0.2
				c1.5,0.2,3.3,0.5,5.1,0.9c5.3,1.2,10.6,3.2,15.5,6c5,2.9,9.3,6.5,12.7,11c7.7,9.9,11.1,23.6,9,41.6l5,0.6
				c2.2-19.3-1.5-34.3-10.1-45.3c-3.9-5-8.7-9.1-14.2-12.3c-5.4-3.1-11.2-5.3-16.9-6.6c-0.4-0.1-0.8-0.2-1.2-0.3L292.4,51.5z"/>
			<path id="Path-3" class="st0" d="M345,70l18.4,24.2l2-1.5v-2.5h-3.2l-12.3,11.5c-0.5-1.2-1.1-2.4-1.9-3.6
				c-3.1-4.9-7.6-7.9-13.5-7.9c-1.8,0-3.6,0.2-5.2,0.5l1.1,4.9c1.3-0.3,2.6-0.4,4.1-0.4c4.1,0,7.1,2,9.3,5.6c0.8,1.3,1.5,2.7,2,4.1
				c0.2,0.5,0.3,1,0.4,1.4c0.1,0.2,0.1,0.4,0.1,0.4l0.9,4.4l17.7-16.6l-1.7-1.8v2.5h7.3l-19.4-25.4l1.3-1.9l-9.7-11.4
				c0.5-5.5-3.1-10-8.2-10v5c2,0,3.4,1.8,3.2,4.4l-0.2,2.2l8.6,10.1L345,70z"/>
			<path id="Path-4" class="st0" d="M159.4,102.9c3.6-0.2,8.2-1.3,12.1-1.8c10.8-1.1,22.3-0.9,34.2-3.8
				c15.4-3.7,38.8-12.8,48.4-19.6l-2.9-4.1c-9,6.3-31.8,15.2-46.7,18.8c-11.7,2.8-22.9,4.7-33.5,5.8c-3.9,0.4-7.5,0.7-11,0.9
				c-1.9,0.1-6.2,0.3-6.3,0.3c-2.2,0.3-4.3,2.5-10.7,10.3c-1.3,1.5-6.5,7.9-7.6,9.3c-3.3,4.1-6.1,7.4-8.9,10.6
				c-5.4,6.2-10.3,11.3-14.8,15.6c-4.7,4.4-9,7.7-12.9,9.9c-0.1,0.1-0.3,0.2-0.4,0.2c-4.5,2.4-8.6,3.1-14.1,3.1
				c-2.9,0-5-0.8-6.6-2.2c-0.6-0.5-1-0.9-1.3-1.4c-0.2-0.3-0.3-0.4-0.3-0.5l-4.5,2.2c0.1,0.3,0.4,0.7,0.8,1.2
				c0.6,0.8,1.3,1.6,2.2,2.3c2.5,2.1,5.8,3.3,9.8,3.3c6.3,0,11-0.7,16.5-3.7c0.2-0.1,0.3-0.2,0.5-0.3c4.3-2.4,8.9-6,13.8-10.6
				c4.7-4.4,9.7-9.6,15.1-15.9c2.8-3.3,5.7-6.6,9-10.7c1.2-1.4,6.4-7.8,7.6-9.3c2.5-3.1,4.3-5.1,5.6-6.5c0.7-0.8,1.3-1.3,1.7-1.7
				C155.4,104.5,157.7,103,159.4,102.9z"/>
			<path id="Path-11" class="st0" d="M95.7,157.7c-0.2-0.2-0.5-0.5-0.9-0.9c-0.7-0.7-1.5-1.3-2.2-1.9c-1.2-0.9-2.4-1.7-3.5-2.2
				c-0.8-0.4-1.6-0.7-2.4-0.8c-3.7-0.6-7.5,0.6-13.1,3.7l2.4,4.3c4.6-2.5,7.6-3.5,9.8-3.2c0.3,0.1,0.7,0.2,1.1,0.4
				c0.8,0.4,1.7,0.9,2.6,1.6c0.7,0.5,1.3,1.1,1.9,1.6c0.3,0.3,0.6,0.6,0.7,0.7L95.7,157.7z"/>
			<path id="Path-7" class="st0" d="M221.4,141c1.2,1.1,2.5,2.2,4.1,3.2c3.4,2.2,7.2,3.8,11.3,4.4l0.7-4.9c-3.3-0.5-6.5-1.8-9.3-3.6
				c-1.3-0.9-2.5-1.8-3.4-2.7c-0.3-0.3-0.6-0.6-0.9-0.9c-0.1-0.1-0.2-0.2-0.3-0.3l-0.7-0.9h-50.5v5h48.3
				C220.9,140.5,221.2,140.7,221.4,141z"/>
			<path id="Path-8" class="st0" d="M337.6,57.3c0,0.1,0,0.3-0.1,0.7v0.1c-0.1,0.6-0.2,1.3-0.3,2c-0.4,2.3-1,5-1.7,7.9
				c-2.1,8.3-5.2,17.2-9.5,26.2c-7.1,14.8-20.2,34.3-27.4,42.7c-0.9,1-1.7,1.9-2.4,2.6c-0.3,0.3-0.6,0.6-0.9,0.8
				c-0.2,0.1-0.3,0.3-0.5,0.3c-0.5,0.3-1.1,0.6-1.7,1c-2.5,1.3-6.2,2.8-11,4.6c-2.4,0.9-5.1,1.8-7.9,2.8c-5.1,1.7-10.5,3.4-15.9,5
				c-1.9,0.6-3.7,1.1-5.3,1.5c-0.6,0.2-1,0.3-1.5,0.4c-0.3,0.1-0.4,0.1-0.5,0.1c-4.7,1.4-7.8,6.2-7.2,11l3.6,26
				c0.3,2.1,2.2,3.8,4.4,3.8l0,0h3.2l1.5,2h-11.7c-0.1,0-0.5-0.2-0.6-0.3l-3.9-5.3l-10.4-38.7c0.2-0.1,0.3-0.2,0.5-0.3
				c1.6-1,3.1-2.1,4.6-3.2c1-0.8,2-1.5,2.9-2.3c3-2.5,4.6-4.6,4.6-6.8v-20l6.8-12.6l-4.4-2.4l-7.5,13.7v21.3
				c-0.1,0.2-0.3,0.4-0.5,0.7c-0.2,0.2-0.4,0.5-0.7,0.8c-0.5,0.5-1,1-1.7,1.6c-0.8,0.7-1.6,1.3-2.6,2.1c-0.1,0.1-0.2,0.2-0.3,0.3
				c-1.3,0.9-2.6,1.9-4,2.8c-0.5,0.3-1,0.6-1.4,0.9c-0.3,0.2-0.4,0.3-0.5,0.3l-1.6,1l11.6,43.2l4.5,6c1,1.3,2.9,2.3,4.6,2.3h21.6
				l-9-11.9h-5.2l-3.5-25.5c-0.3-2.3,1.3-4.9,3.6-5.5c0.1,0,0.3-0.1,0.5-0.1c0.4-0.1,0.9-0.3,1.5-0.4c1.6-0.5,3.4-1,5.3-1.5
				c5.5-1.6,11-3.4,16.1-5.1c2.9-1,5.6-1.9,8.1-2.8c3.3-1.2,6.1-2.3,8.4-3.4c2.2-1,3.9-1.9,5.2-2.7c0.1,0,0.1-0.1,0.2-0.1l0,0
				c6.1-4.2,23.8-29.6,32.8-48.3c0.1-0.3,0.3-0.5,0.4-0.8c0.9-1.8,1.6-3.6,2.4-5.3c3.1-7.2,5.4-14.2,7.1-21c0.6-2.2,1-4.3,1.4-6.2
				c0.1-0.7,0.3-1.4,0.4-2.1c0.1-0.9,0.3-1.6,0.4-2.3c0.1-0.4,0.1-0.7,0.1-0.8L337.6,57.3z"/>
			<path id="Path-5" class="st0" d="M188.1,198.2l-10.9,0.3c-0.2,0-0.7-0.2-0.8-0.3l-4.3-4.9l-2-31.3c-0.1-1-0.2-3.4-0.4-6.9
				c0-0.3,0-0.3,0-0.6c-0.1-1.8-0.2-3.6-0.3-5.5c0-0.7-0.1-1.3-0.1-1.8c0-0.6,0-0.6,0-0.7l-5,0.2c0,0.1,0,0.1,0,0.7
				c0,0.5,0.1,1.2,0.1,1.8c0.1,1.9,0.2,3.8,0.3,5.5c0,0.3,0,0.3,0,0.6c0.2,3.5,0.3,6,0.4,7l2.1,33l5.4,6.2c1.1,1.2,3,2.1,4.6,2
				l20.8-0.6l-8.5-11.3h-4.8c0-0.4,0-0.8,0-1.3c0-1.4-0.1-3-0.1-4.8c0-3.1-0.1-6.3-0.1-9.3c0-2.9,0-5.6,0.1-8.2c0-0.7,0-1.4,0.1-2
				c4.4-0.1,9.5-2.9,11.9-6.5l8.7-13c0.2-0.2,0.3-0.5,0.6-1c0.5-0.8,0.6-0.9,0.7-1.1l-4.1-2.8c-0.2,0.3-0.2,0.3-0.8,1.2
				c-0.3,0.4-0.4,0.7-0.6,0.9l-8.7,13c-1.5,2.3-5.3,4.3-8.1,4.3h-0.4c-2.2,0-4.1,1.8-4.2,4c0,0.1,0,0.4,0,0.7c0,0.6,0,1.3-0.1,2.1
				c-0.1,2.6-0.1,5.5-0.1,8.4c0,3.1,0.1,6.3,0.1,9.4c0,1.7,0,3.3,0.1,4.8c0,0.5,0,1,0,1.3c0,0.2,0,0.4,0,0.5c0,2.4,2,4.4,4.5,4.4
				h2.8L188.1,198.2z"/>
			<path id="Path-5_1_" class="st0" d="M192.6,95.1L192.6,95.1h-0.2c-0.1,0-0.1,0-0.4,0c-0.4,0-0.8,0.1-1.2,0.1
				c-1.3,0.1-2.8,0.3-4.4,0.4c-4.5,0.4-9,0.9-13.3,1.3c-1.5,0.2-3,0.3-4.4,0.5c-9.3,1-13.3,1.5-15.1,2.1c-0.5,0.2-0.9,0.4-1.1,0.6
				c-2.2,2-4.2,4.7-6,8c-1.4,2.4-2.6,4.9-3.6,7.4c-0.4,0.9-0.7,1.7-1,2.5c-0.2,0.5-0.3,0.8-0.4,1.1l-0.2,0.6l-8,30.7l-9,0.6
				L108,194.7l5.7,7c1,1.3,3,2.2,4.6,2.2h20.9l-9.3-12.2h-3.3l11.7-24.5l13.7-0.8c4.7-0.3,9.9-3.7,12-7.8l1-2l4.6-9l3.8-7.3l1.2-2.3
				l1.4-2.7l10.5-20.2l8.2-15.8l2.4-4.6L192.6,95.1z M170,135.7l-10.5,20.5c-1.3,2.6-5,5-7.9,5.1l-13.7,0.8c-1.8,0.1-3.7,1.4-4.4,3
				L121,191.7c-1.2,2.5,0.5,5,3.2,5h3.2l1.6,2.2h-10.7c-0.2,0-0.6-0.2-0.7-0.3l-3.9-4.8l14.1-38l6-0.4c2-0.1,3.8-1.6,4.3-3.5
				l8.2-31.3c0-0.2,0.1-0.4,0.3-0.8c0.3-0.7,0.6-1.5,0.9-2.3c1-2.3,2.1-4.7,3.3-6.9c1.5-2.5,3-4.7,4.5-6.3l0,0
				c0-0.1,0.1-0.1,0.2-0.2c0.1,0,0.3-0.1,0.4-0.1l0,0h0.1c0.7-0.1,1.8-0.3,3.2-0.5c2.5-0.3,5.9-0.7,10.1-1.2
				c1.4-0.1,2.9-0.3,4.4-0.5c4.2-0.4,8.7-0.9,13.2-1.3c0.5,0,1-0.1,1.5-0.1L170,135.7z"/>
			<path id="Path-8-Copy" class="st0" d="M297.4,196.7h5.2l1.5,1.9h-11.7c-0.1,0-0.6-0.2-0.6-0.3l-3.9-5.2l-9.8-31.5l-1.6-4.9
				l-4.8,1.5l1.6,4.9l9.9,31.9l0.1,0.4l4.5,5.9c1,1.3,2.9,2.3,4.6,2.3h22l-9.3-12h-7.6c-0.1,0-0.5-0.2-0.6-0.3l-0.3-0.4
				c-0.2-0.4-0.5-1.2-0.8-2.3c-0.7-2.2-0.2-17.3,0.8-35.4c0.1-1.2,0.3-3.3,0.6-6.1c0.1-0.5,0.1-0.9,0.2-1.4c0.2-1.4,0.4-2.9,0.6-4.3
				c0.1-0.5,0.1-0.9,0.2-1.4c0-0.2,0.1-0.4,0.1-0.5l-4.9-0.7c0,0.1,0,0.3-0.1,0.5c-0.1,0.4-0.1,0.9-0.2,1.4
				c-0.2,1.4-0.4,2.9-0.6,4.4c-0.1,0.5-0.1,1-0.2,1.4c-0.4,2.8-0.6,5-0.7,6.4c-1.1,19.9-1.5,34-0.6,37.1c0.5,1.6,0.9,2.7,1.3,3.4
				c0.3,0.6,0.7,1.1,1.1,1.4C294.5,196,296,196.7,297.4,196.7z"/>
		</g>
	</g>
</g>
<g>
	<polygon class="st0" points="406.9,527.9 439.5,527.9 439.5,512.4 406.9,512.4 406.9,486.3 439.5,486.3 444.5,470.8 388.4,470.8 
		388.4,570.9 444.7,570.9 444.7,555.4 406.9,555.4 	"/>
	<polygon class="st0" points="328.9,470.8 310.4,470.8 310.4,570.9 365,570.9 365,555.4 328.9,555.4 	"/>
	<path class="st0" d="M514.1,593.3H514C514,593.3,514,593.3,514.1,593.3z"/>
	<path class="st0" d="M513.1,593.4L513.1,593.4c-0.1,0-0.1,0-0.2,0H513.1z"/>
	<path class="st0" d="M512,587.7c0.1,0.2,0.2,0.4,0.3,0.6C512.2,588.1,512.1,587.9,512,587.7z"/>
	<path class="st0" d="M511.7,593.2h-0.1C511.6,593.2,511.6,593.2,511.7,593.2z"/>
	<path class="st0" d="M510.5,592.5l-0.1-0.1C510.4,592.4,510.4,592.5,510.5,592.5z"/>
	<path class="st0" d="M515,593L515,593L515,593z"/>
	<path class="st0" d="M509.9,592l-0.1-0.1C509.8,591.9,509.9,591.9,509.9,592z"/>
	<path class="st0" d="M511,592.9l-0.1-0.1L511,592.9z"/>
	<path class="st0" d="M512.3,593.4L512.3,593.4C512.2,593.3,512.3,593.4,512.3,593.4z"/>
	<path class="st0" d="M513.6,589.2c0.2,0,0.3,0.1,0.5,0.1C513.9,589.2,513.8,589.2,513.6,589.2z"/>
	<path class="st0" d="M520.8,581.7L520.8,581.7C520.8,581.7,520.8,581.7,520.8,581.7C520.9,581.7,520.9,581.7,520.8,581.7z"/>
	<path class="st0" d="M521,581.7c0,0,0.1,0,0.1,0.1C521.1,581.7,521,581.7,521,581.7z"/>
	<path class="st0" d="M512.9,588.9c0.2,0.1,0.4,0.2,0.6,0.3C513.2,589.1,513,589,512.9,588.9z"/>
	<path class="st0" d="M521.4,582L521.4,582C521.4,582.1,521.4,582,521.4,582z"/>
	<path class="st0" d="M521.5,582.2l0.1,0.1C521.6,582.3,521.5,582.3,521.5,582.2z"/>
	<path class="st0" d="M521.7,582.5c0,0,0,0.1,0.1,0.1C521.7,582.6,521.7,582.5,521.7,582.5z"/>
	<path class="st0" d="M521.2,581.8C521.2,581.8,521.2,581.9,521.2,581.8C521.2,581.9,521.2,581.8,521.2,581.8z"/>
	<path class="st0" d="M521.8,582.8L521.8,582.8L521.8,582.8z"/>
	<path class="st0" d="M514.8,589.2c0.2,0,0.3-0.1,0.5-0.1C515.1,589.1,514.9,589.2,514.8,589.2z"/>
	<path class="st0" d="M511,571.6c-0.2,1.5-0.3,3.1-0.4,4.7C510.7,574.7,510.8,573.1,511,571.6L511,571.6z"/>
	<path class="st0" d="M509.4,591.3L509.4,591.3L509.4,591.3z"/>
	<path class="st0" d="M515.9,556.3L515.9,556.3c-0.1,0-0.1,0.1-0.2,0.2l0,0C515.8,556.3,515.8,556.3,515.9,556.3z"/>
	<path class="st0" d="M516.2,556.4L516.2,556.4L516.2,556.4L516.2,556.4z"/>
	<path class="st0" d="M516,556.3c0.1,0,0.1,0,0.1,0.1C516.1,556.3,516,556.3,516,556.3z"/>
	<path class="st0" d="M507.8,571.3L507.8,571.3c-0.9,6.2-0.9,13.5,0.9,18.4c0,0,0,0,0,0.1c0,0,0,0,0-0.1
		C506.9,584.9,506.9,577.5,507.8,571.3z"/>
	<path class="st0" d="M512.8,588.8c-0.1-0.1-0.3-0.2-0.4-0.4C512.5,588.6,512.7,588.7,512.8,588.8z"/>
	<path class="st0" d="M510.6,579.7c0.1-0.4,0.4-1,0.6-1.7C510.9,578.7,510.7,579.3,510.6,579.7L510.6,579.7z"/>
	<path class="st0" d="M514.6,589.2c-0.1,0-0.2,0-0.3,0C514.3,589.3,514.5,589.2,514.6,589.2z"/>
	<path class="st0" d="M520.7,581.7L520.7,581.7c-1,0.4-2.5,6.3-5.4,7.4l0,0C518.2,588,519.7,582,520.7,581.7z"/>
	<path class="st0" d="M515.9,552.3L515.9,552.3c-1.3,0.5-2.5,2-3.5,4l0,0C513.4,554.3,514.6,552.8,515.9,552.3z"/>
	<path class="st0" d="M517.6,552.1c0.1,0,0.3,0.1,0.4,0.1C517.9,552.2,517.7,552.1,517.6,552.1z"/>
	<path class="st0" d="M511.6,576.7c-0.1,0.3-0.2,0.6-0.3,0.9C511.4,577.3,511.5,577,511.6,576.7z"/>
	<path class="st0" d="M517.2,552.1H517C517.1,552.1,517.1,552.1,517.2,552.1C517.1,552.1,517.2,552.1,517.2,552.1z"/>
	<path class="st0" d="M509,590.6c0-0.1-0.1-0.1-0.1-0.2C509,590.5,509,590.6,509,590.6z"/>
	<path class="st0" d="M516.5,552.1c0.1,0,0.1,0,0.2,0C516.6,552.1,516.5,552.1,516.5,552.1z"/>
	<path class="st0" d="M519.4,553.2c0.1,0.1,0.2,0.3,0.2,0.4C519.5,553.5,519.4,553.4,519.4,553.2z"/>
	<path class="st0" d="M519,552.8c0.1,0.1,0.2,0.2,0.2,0.3C519.2,553,519.1,552.9,519,552.8z"/>
	<path class="st0" d="M518.1,552.3c0.1,0,0.2,0.1,0.3,0.2C518.4,552.4,518.3,552.3,518.1,552.3z"/>
	<path class="st0" d="M518.6,552.5c0.1,0.1,0.3,0.2,0.4,0.3C518.8,552.6,518.7,552.5,518.6,552.5z"/>
	<path class="st0" d="M551.7,583.7C551.7,583.7,551.7,583.8,551.7,583.7C551.7,583.8,551.7,583.7,551.7,583.7z"/>
	<path class="st0" d="M544.3,596.5c-0.1-0.1-0.3-0.2-0.4-0.3C544,596.3,544.1,596.4,544.3,596.5z"/>
	<path class="st0" d="M543,574.2C542.9,574.2,542.9,574.1,543,574.2C542.9,574.2,542.9,574.2,543,574.2z"/>
	<path class="st0" d="M543.1,595.2c0.1,0.2,0.2,0.4,0.3,0.5C543.3,595.6,543.2,595.4,543.1,595.2L543.1,595.2z"/>
	<path class="st0" d="M543.8,596.2c-0.1-0.1-0.2-0.2-0.3-0.4C543.6,596,543.7,596.1,543.8,596.2z"/>
	<path class="st0" d="M543.8,574.6h0.1c-0.1,0-0.2,0-0.3,0C543.6,574.5,543.7,574.6,543.8,574.6z"/>
	<path class="st0" d="M544.3,574.4c-0.1,0.1-0.3,0.1-0.4,0.1C544.1,574.5,544.2,574.5,544.3,574.4z"/>
	<path class="st0" d="M546.7,596.6L546.7,596.6L546.7,596.6c4.4-1.6,13.4-20.3,11.1-26.8l0,0C560.1,576.3,551.1,595,546.7,596.6z"/>
	<path class="st0" d="M542.5,573.7L542.5,573.7L542.5,573.7z"/>
	<path class="st0" d="M542.8,574L542.8,574C542.7,574,542.7,574,542.8,574z"/>
	<path class="st0" d="M546.2,596.7c-0.1,0-0.1,0-0.2,0C546.1,596.7,546.2,596.7,546.2,596.7z"/>
	<path class="st0" d="M544.8,596.7c-0.1,0-0.3-0.1-0.4-0.2C544.5,596.6,544.7,596.7,544.8,596.7z"/>
	<path class="st0" d="M559.1,563C559.1,563.1,559.1,563.1,559.1,563C559.1,563.1,559.1,563.1,559.1,563z"/>
	<path class="st0" d="M558.9,563L558.9,563L558.9,563L558.9,563z"/>
	<path class="st0" d="M526.7,570.7L526.7,570.7c-2.3,4.1-3.6,9.4-1.8,14.1c0.1,0.2,0.2,0.5,0.3,0.7c-0.1-0.2-0.2-0.4-0.3-0.7
		C523.2,580.1,524.5,574.7,526.7,570.7z"/>
	<path class="st0" d="M559.3,563.2C559.3,563.3,559.3,563.3,559.3,563.2C559.3,563.3,559.3,563.3,559.3,563.2z"/>
	<path class="st0" d="M545.7,596.8L545.7,596.8c-0.2,0-0.2,0-0.3,0C545.5,596.8,545.6,596.8,545.7,596.8z"/>
	<path class="st0" d="M559.5,563.5c0.1,0.1,0.1,0.2,0.1,0.3C559.6,563.7,559.5,563.6,559.5,563.5z"/>
	<path class="st0" d="M545.3,596.8c-0.2,0-0.3,0-0.5-0.1C545,596.8,545.1,596.8,545.3,596.8z"/>
	<path class="st0" d="M559.4,564.7c-0.2,0.1-1.8,1.2-3.9,2.6l0,0C557.6,565.9,559.2,564.9,559.4,564.7c0.3-0.2,0.4-0.5,0.2-0.9l0,0
		C559.8,564.2,559.7,564.5,559.4,564.7z"/>
	<path class="st0" d="M550.4,566.2h-0.1c0.1,0,0.2,0,0.3,0C550.5,566.2,550.5,566.2,550.4,566.2z"/>
	<path class="st0" d="M529.5,583.6L529.5,583.6L529.5,583.6z"/>
	<path class="st0" d="M529.1,583.6H529H529.1z"/>
	<path class="st0" d="M535.5,568.3c0.1,0.1,0.1,0.1,0.1,0.2C535.6,568.4,535.6,568.3,535.5,568.3z"/>
	<path class="st0" d="M525.6,586.1c-0.1-0.1-0.2-0.3-0.3-0.4C525.4,585.8,525.5,585.9,525.6,586.1z"/>
	<path class="st0" d="M528.7,583.5L528.7,583.5C528.7,583.5,528.7,583.5,528.7,583.5z"/>
	<path class="st0" d="M528.7,575.2c0.7-2.3,1.8-4.2,3-5.8l0,0C530.6,570.9,529.5,572.9,528.7,575.2c-1.1,3.3-1.1,6-0.6,7.4l0,0l0,0
		C527.6,581.2,527.7,578.5,528.7,575.2z"/>
	<path class="st0" d="M535.5,568.2C535.5,568.2,535.4,568.2,535.5,568.2C535.4,568.2,535.4,568.2,535.5,568.2L535.5,568.2z"/>
	<path class="st0" d="M528.4,583.2l-0.1-0.1C528.4,583.1,528.4,583.2,528.4,583.2z"/>
	<path class="st0" d="M526.2,586.6c-0.1-0.1-0.3-0.2-0.4-0.4C525.9,586.4,526,586.5,526.2,586.6z"/>
	<path class="st0" d="M548.5,589.8c-0.1,0.2-0.3,0.5-0.4,0.7C548.3,590.2,548.4,590,548.5,589.8z"/>
	<path class="st0" d="M546.7,592L546.7,592c0.3-0.1,0.8-0.7,1.4-1.6C547.5,591.4,547,591.9,546.7,592z"/>
	<path class="st0" d="M550.3,566.2L550.3,566.2c0.5-2.6,1.2-5.6,1.9-8.8l0,0C551.5,560.6,550.8,563.6,550.3,566.2z"/>
	<path class="st0" d="M526.9,587.1c-0.2-0.1-0.4-0.2-0.6-0.4C526.5,586.8,526.7,587,526.9,587.1z"/>
	<path class="st0" d="M546.5,592L546.5,592L546.5,592z"/>
	<path class="st0" d="M553.8,571.6c1,2.6-0.1,6.9-1.7,10.9C553.8,578.5,554.8,574.2,553.8,571.6c-0.3-0.8-1.1-1.4-2.2-1.7l0,0
		C552.7,570.2,553.5,570.8,553.8,571.6z"/>
	<path class="st0" d="M527.6,587.3c-0.2-0.1-0.4-0.1-0.5-0.2C527.2,587.2,527.4,587.3,527.6,587.3z"/>
	<path class="st0" d="M528.3,587.5c-0.2,0-0.3,0-0.5-0.1C528,587.4,528.1,587.5,528.3,587.5z"/>
	<path class="st0" d="M529.1,587.5c-0.1,0-0.3,0-0.4,0h-0.1C528.7,587.5,528.9,587.5,529.1,587.5z"/>
	<path class="st0" d="M530.1,587.2L530.1,587.2c-0.3,0.1-0.5,0.2-0.8,0.2C529.6,587.4,529.8,587.3,530.1,587.2z"/>
	<path class="st0" d="M542.6,573.9c0,0,0-0.1-0.1-0.1C542.6,573.8,542.6,573.8,542.6,573.9z"/>
	<path class="st0" d="M566.6,571.9c-0.1-0.1-0.2-0.2-0.3-0.4C566.3,571.6,566.4,571.8,566.6,571.9z"/>
	<path class="st0" d="M570,568.9c0.1,0,0.1,0,0.2,0C570.1,568.9,570.1,568.9,570,568.9z"/>
	<path class="st0" d="M566,571.3c-0.1-0.2-0.2-0.3-0.3-0.5C565.8,570.9,565.9,571.1,566,571.3z"/>
	<path class="st0" d="M570.3,568.9c0.1,0,0.2-0.1,0.3-0.1C570.5,568.8,570.4,568.8,570.3,568.9z"/>
	<path class="st0" d="M569.3,568.5c0,0.1,0.1,0.1,0.1,0.2C569.3,568.6,569.3,568.6,569.3,568.5z"/>
	<path class="st0" d="M567.2,572.3c-0.1-0.1-0.3-0.2-0.4-0.3C566.9,572.2,567,572.3,567.2,572.3z"/>
	<path class="st0" d="M573.2,537.3L573.2,537.3C573.1,537.3,573.1,537.3,573.2,537.3L573.2,537.3z"/>
	<path class="st0" d="M572.4,537.4L572.4,537.4C572.4,537.4,572.5,537.4,572.4,537.4C572.5,537.4,572.5,537.4,572.4,537.4z"/>
	<path class="st0" d="M576.5,562.1l0.1,0.1C576.5,562.2,576.5,562.1,576.5,562.1z"/>
	<path class="st0" d="M571.6,547.3L571.6,547.3c1.8-0.8,3.2-1.5,4.9-2.3C574.9,545.8,573.4,546.5,571.6,547.3z"/>
	<path class="st0" d="M567.6,544.6L567.6,544.6L567.6,544.6z"/>
	<path class="st0" d="M572,537.5c0.1,0,0.2-0.1,0.3-0.1C572.2,537.4,572.1,537.4,572,537.5z"/>
	<path class="st0" d="M561.1,550.3c0,0.1,0,0.2,0,0.3c0,0,0,0,0,0.1c0,0,0,0,0-0.1C561,550.5,561,550.4,561.1,550.3z"/>
	<path class="st0" d="M563.4,551l0.2-0.1L563.4,551L563.4,551L563.4,551z"/>
	<path class="st0" d="M563.8,550.9c0.1,0,0.2-0.1,0.4-0.2C564,550.8,563.8,550.8,563.8,550.9z"/>
	<path class="st0" d="M565.1,550.3c0.3-0.1,0.5-0.3,0.8-0.4c0,0-0.1,0-0.1,0.1C565.5,550,565.3,550.1,565.1,550.3z"/>
	<path class="st0" d="M566.7,549.4c0,0,0.1,0,0.1-0.1C566.8,549.4,566.7,549.4,566.7,549.4C566.7,549.5,566.6,549.5,566.7,549.4
		C566.6,549.5,566.7,549.5,566.7,549.4z"/>
	<path class="st0" d="M567.5,549L567.5,549c0,0-0.1,0.1-0.3,0.2C567.4,549.1,567.5,549,567.5,549z"/>
	<path class="st0" d="M573.5,537.5C573.5,537.5,573.6,537.5,573.5,537.5C573.6,537.5,573.5,537.5,573.5,537.5z"/>
	<path class="st0" d="M569,568.1c0,0.1,0.1,0.2,0.1,0.3C569.1,568.3,569.1,568.2,569,568.1z"/>
	<path class="st0" d="M576.8,562.7C576.8,562.7,576.8,562.8,576.8,562.7C576.8,562.8,576.8,562.7,576.8,562.7z"/>
	<path class="st0" d="M569,542.8c-0.1,0.5-0.2,0.9-0.4,1.4l0,0C568.8,543.8,568.9,543.3,569,542.8z"/>
	<path class="st0" d="M573.4,542.3c-0.3,0.1-0.5,0.2-0.6,0.3l0,0C573,542.5,573.2,542.4,573.4,542.3z"/>
	<path class="st0" d="M576.3,561.8l0.1,0.1C576.4,561.9,576.3,561.9,576.3,561.8z"/>
	<path class="st0" d="M573.7,537.6l0.1,0.1C573.7,537.7,573.7,537.7,573.7,537.6z"/>
	<path class="st0" d="M576.7,562.4c0,0,0,0.1,0.1,0.1C576.7,562.5,576.7,562.4,576.7,562.4z"/>
	<path class="st0" d="M568.6,572.8c-0.2,0-0.4-0.1-0.5-0.1C568.3,572.8,568.5,572.8,568.6,572.8z"/>
	<path class="st0" d="M575.9,561.6h-0.1H575.9L575.9,561.6z"/>
	<path class="st0" d="M567.9,572.7c-0.2-0.1-0.4-0.2-0.6-0.3C567.5,572.6,567.7,572.6,567.9,572.7z"/>
	<path class="st0" d="M569.4,572.9c-0.1,0-0.2,0-0.3,0c-0.1,0-0.2,0-0.3,0C569.1,572.9,569.3,572.9,569.4,572.9z"/>
	<path class="st0" d="M576.1,561.7C576.1,561.7,576.2,561.7,576.1,561.7C576.1,561.7,576.1,561.7,576.1,561.7z"/>
	<path class="st0" d="M573.3,537.4h0.1H573.3z"/>
	<path class="st0" d="M565.6,570.5c-0.1-0.3-0.3-0.6-0.4-0.9C565.3,569.9,565.5,570.2,565.6,570.5z"/>
	<path class="st0" d="M569.6,572.9c0.3,0,0.5,0,0.8-0.1c0.2,0,0.4-0.1,0.7-0.2l0,0c-0.2,0.1-0.5,0.1-0.7,0.2
		C570.2,572.8,569.9,572.8,569.6,572.9z"/>
	<path class="st0" d="M561.7,551.1c-0.1,0-0.1,0-0.2-0.1C561.6,551.1,561.6,551.1,561.7,551.1z"/>
	<path class="st0" d="M569.9,568.9c-0.1,0-0.1,0-0.2,0C569.8,568.9,569.8,568.9,569.9,568.9z"/>
	<path class="st0" d="M569.7,568.9c-0.1,0-0.1-0.1-0.2-0.1C569.5,568.8,569.6,568.8,569.7,568.9z"/>
	<path class="st0" d="M562.3,551.2L562.3,551.2c-0.1,0-0.1,0-0.2,0C562.2,551.2,562.3,551.2,562.3,551.2z"/>
	<path class="st0" d="M575.8,561.6L575.8,561.6c-0.6,0.2-2.9,6.3-5.2,7.1l0,0C572.8,568,575.2,561.9,575.8,561.6z"/>
	<path class="st0" d="M562,551.2c-0.1,0-0.1,0-0.2,0C561.9,551.2,562,551.2,562,551.2z"/>
	<path class="st0" d="M561.4,551l-0.1-0.1C561.3,550.9,561.3,550.9,561.4,551z"/>
	<path class="st0" d="M563,551.1L563,551.1C562.9,551.2,562.9,551.1,563,551.1z"/>
	<path class="st0" d="M538.9,564.9c0.1,0.1,0.2,0.2,0.2,0.3C539,565.1,539,565,538.9,564.9z"/>
	<path class="st0" d="M537.6,564.2c0.1,0,0.2,0,0.3,0.1C537.8,564.2,537.7,564.2,537.6,564.2z"/>
	<path class="st0" d="M534.9,564.2C534.9,564.2,535,564.2,534.9,564.2C535,564.2,534.9,564.2,534.9,564.2z"/>
	<path class="st0" d="M538.4,564.5c0.1,0.1,0.2,0.2,0.4,0.3C538.7,564.7,538.6,564.6,538.4,564.5z"/>
	<path class="st0" d="M538,564.3c0.1,0,0.2,0.1,0.3,0.2C538.3,564.4,538.2,564.4,538,564.3z"/>
	<path class="st0" d="M535.3,568.2h0.1l0,0H535.3z"/>
	<path class="st0" d="M536.6,564.2L536.6,564.2C536.7,564.2,536.7,564.2,536.6,564.2z"/>
	<path class="st0" d="M537.1,564.2L537.1,564.2c0.1,0,0.2,0,0.4,0C537.4,564.2,537.2,564.2,537.1,564.2z"/>
	<path class="st0" d="M533.8,567.3L533.8,567.3c-0.7,0.5-1.4,1.2-2,2.1l0,0C532.4,568.6,533.1,567.9,533.8,567.3z"/>
	<path class="st0" d="M534.7,568.3L534.7,568.3L534.7,568.3L534.7,568.3z"/>
	<path class="st0" d="M533.9,567.8C534,567.8,534,567.8,533.9,567.8C534,567.8,534,567.8,533.9,567.8z"/>
	<path class="st0" d="M533.4,564.1c0.1,0,0.1,0,0.2,0C533.5,564.1,533.5,564.1,533.4,564.1z"/>
	<path class="st0" d="M555.9,538.2L555.9,538.2L555.9,538.2z"/>
	<path class="st0" d="M539.2,565.4c0.1,0.1,0.2,0.3,0.2,0.5C539.4,565.7,539.3,565.5,539.2,565.4z"/>
	<path class="st0" d="M534.4,568.2L534.4,568.2L534.4,568.2z"/>
	<path class="st0" d="M555.6,538.1C555.6,538.1,555.6,538.2,555.6,538.1C555.6,538.2,555.7,538.2,555.6,538.1
		C555.7,538.2,555.6,538.1,555.6,538.1z"/>
	<path class="st0" d="M556.2,539.1c-0.1,0.8-2.2,9.8-4,18.4l0,0C554,548.9,556.1,539.9,556.2,539.1c0-0.2,0-0.4-0.1-0.6l0,0l0,0
		C556.2,538.6,556.2,538.8,556.2,539.1z"/>
	<path class="st0" d="M528.8,567.6c0.1-0.1,0.2-0.3,0.3-0.4c-0.1,0.1-0.1,0.1-0.2,0.2c-0.1,0.1-0.2,0.3-0.3,0.4
		c-0.1,0.1-0.2,0.3-0.3,0.4C528.4,568.1,528.6,567.8,528.8,567.6z"/>
	<path class="st0" d="M534.1,564.1C534,564.1,534,564.1,534.1,564.1C534,564.1,534.1,564.1,534.1,564.1L534.1,564.1z"/>
	<path class="st0" d="M535.2,564.3C535.2,564.4,535.2,564.4,535.2,564.3C535.2,564.4,535.2,564.4,535.2,564.3z"/>
	<path class="st0" d="M509.6,563.5c-0.1,0.4-0.2,0.8-0.4,1.2c-0.1,0.4-0.2,0.8-0.3,1.1c-0.1,0.2-0.1,0.4-0.2,0.6
		c0-0.2,0.1-0.4,0.2-0.6C509.1,565.1,509.3,564.3,509.6,563.5z"/>
	<path class="st0" d="M516.2,556.5C516.2,556.5,516.2,556.4,516.2,556.5C516.2,556.4,516.2,556.4,516.2,556.5
		C516.2,556.4,516.2,556.5,516.2,556.5z"/>
	<path class="st0" d="M511.2,570.6c0-0.2,0.1-0.6,0.2-1.1C511.3,570,511.2,570.3,511.2,570.6c0,0.2-0.1,0.3-0.1,0.5
		C511.1,570.9,511.1,570.7,511.2,570.6z"/>
	<path class="st0" d="M513,563.3c0.1-0.2,0.1-0.4,0.2-0.6c-0.2,0.8-0.5,1.6-0.7,2.3C512.7,564.5,512.8,563.9,513,563.3z"/>
	<path class="st0" d="M513.9,560.5c0.1-0.2,0.1-0.4,0.2-0.5C514,560.2,514,560.3,513.9,560.5c0,0.2-0.1,0.4-0.2,0.5
		c-0.1,0.3-0.2,0.6-0.3,1c0.1-0.3,0.2-0.7,0.3-1c0.1-0.1,0.1-0.3,0.1-0.4C513.9,560.6,513.9,560.6,513.9,560.5z"/>
	<path class="st0" d="M578.8,542.5c0-0.1-0.1-0.2-0.2-0.3c0,0,0,0-0.1-0.1c-0.1-0.1-0.2-0.1-0.4-0.2c-0.7-0.2-1-0.8-1.7-0.8
		c-0.1,0-0.3,0-0.5,0.1c-0.2,0.1-0.5,0.2-0.8,0.3c-0.4,0.1-1.1,0.5-1.7,0.7c-0.3,0.1-0.5,0.2-0.6,0.3c0-0.1,0-0.2,0.1-0.4
		c0-0.2,0.1-0.3,0.1-0.5c0-0.1,0-0.2,0.1-0.3l0,0c0.1-0.2,0.1-0.5,0.2-0.7l0,0c0.1-0.4,0.2-0.8,0.2-1.1l0,0c0-0.1,0.1-0.2,0.1-0.3
		l0,0c0-0.1,0-0.2,0.1-0.3l0,0c0-0.1,0-0.2,0.1-0.3l0,0c0-0.2,0.1-0.4,0.1-0.5l0,0c0-0.1,0-0.1,0-0.2c0-0.1,0-0.1,0-0.1l0,0
		l-0.1-0.1c0,0,0,0-0.1-0.1l-0.1-0.1h-0.1h-0.1h-0.1h-0.1c0,0,0,0-0.1,0l0,0l0,0H573h-0.1l0,0c-0.1,0-0.2,0-0.2,0h-0.1
		c0,0,0,0-0.1,0c-0.1,0-0.2,0-0.3,0.1l0,0c-0.2,0.1-0.4,0.2-0.5,0.3c-0.2,0.1-0.3,0.2-0.5,0.3s-0.4,0.2-0.5,0.3
		c-0.1,0.1-0.1,0.3-0.2,0.5c-0.1,0.3-0.3,0.7-0.4,1v0.1c0,0.1-0.1,0.3-0.1,0.4c0,0.2-0.1,0.3-0.1,0.4c-0.1,0.2-0.1,0.5-0.2,0.7
		c-0.1,0.2-0.1,0.5-0.2,0.7c-0.1,0.2-0.1,0.5-0.2,0.7c-0.1,0.5-0.2,0.9-0.4,1.4l0,0c-0.2,0.1-0.3,0.1-0.4,0.2h-0.1c0,0,0,0-0.1,0
		h-0.1l0,0c-0.1,0-0.1,0-0.1,0.1l0,0l0,0l0,0l0,0l0,0l0,0l0,0l0,0c0,0,0,0-0.1,0c0,0,0,0-0.1,0h-0.1h-0.1h-0.1c0,0,0,0-0.1,0l0,0
		c0,0,0,0-0.1,0c-0.1,0-0.1,0-0.2,0.1c-0.1,0-0.2,0.1-0.3,0.1c-0.2,0.1-0.5,0.2-0.7,0.3c-0.7,0.3-1.5,0.6-2.2,0.9
		c-0.5,0.2-1.2,0.9-1.7,1.7c0,0.1-0.1,0.1-0.1,0.2l0,0c0,0.1-0.1,0.1-0.1,0.2l0,0l0,0c-0.1,0.1-0.1,0.2-0.2,0.3l0,0
		c0,0.1,0,0.1,0,0.2l0,0c0,0.1,0,0.1,0,0.2l0,0v0.1l0,0l0,0l0,0l0,0l0,0c0,0.1,0,0.1-0.1,0.2l0,0c0,0.1-0.1,0.2-0.1,0.3l0,0
		c-0.1,0.1-0.1,0.3-0.1,0.4c0,0.1,0,0.2,0,0.3c0,0,0,0,0,0.1c0,0.1,0.1,0.2,0.1,0.2l0.1,0.1l0.1,0.1c0.1,0,0.1,0.1,0.2,0.1
		c0,0,0.1,0,0.2,0c0.1,0,0.1,0,0.2,0h0.1c0,0,0.1,0,0.2,0c0.2,0,0.3,0,0.5,0h0.1c0.1,0,0.3-0.1,0.4-0.1l0,0l0.2-0.1h0.1
		c0.1,0,0.2-0.1,0.4-0.2c0.2-0.1,0.4-0.2,0.6-0.3c0.1,0,0.2-0.1,0.3-0.2c0.3-0.1,0.5-0.3,0.8-0.4c0,0,0.1,0,0.1-0.1l0.1-0.1
		c0.1-0.1,0.2-0.1,0.3-0.2c0.1,0,0.2-0.1,0.2-0.1s0,0,0.1,0c0,0,0.1,0,0.1-0.1c0.1-0.1,0.3-0.1,0.3-0.2l0,0c0.2-0.1,0.3-0.2,0.3-0.2
		l0,0c0,0.1,0,0.2-0.1,0.3l0,0c0,0.1,0,0.2-0.1,0.3l0,0c-0.1,0.2-0.1,0.5-0.2,0.8l0,0c0,0.1-0.1,0.3-0.1,0.4l0,0
		c0,0.1-0.1,0.3-0.1,0.5l0,0c0,0.2-0.1,0.3-0.1,0.5l0,0c0,0.2-0.1,0.3-0.1,0.5l0,0c0,0.2-0.1,0.3-0.1,0.5l0,0c0,0.2-0.1,0.4-0.1,0.5
		l0,0c0,0.2-0.1,0.4-0.1,0.6c-0.1,0.3-0.1,0.6-0.2,0.9c-0.1,0.3-0.1,0.6-0.2,0.9c-0.1,0.4-0.1,0.8-0.2,1.2c-0.1,0.5-0.2,0.9-0.2,1.4
		c-0.1,0.3-0.1,0.7-0.2,1c-0.1,0.6-0.2,1.2-0.3,1.8l0,0v0.1l0,0c0,0.4-0.1,0.8-0.1,1.2l0,0c0,0.2,0,0.4-0.1,0.5l0,0
		c0,0.4-0.1,0.8-0.1,1.2l0,0c0,0.3,0,0.5,0,0.7s0,0.4,0,0.6l0,0l0,0l0,0c0,0.1,0,0.2,0,0.3c0,0.2,0,0.3,0,0.5c0,1.2,0.1,2.2,0.3,2.9
		l0,0c0.1,0.3,0.3,0.6,0.4,0.9c0,0.1,0.1,0.2,0.1,0.3c0.1,0.2,0.2,0.3,0.3,0.5c0.1,0.1,0.1,0.2,0.2,0.2c0.1,0.1,0.2,0.3,0.3,0.4
		c0.1,0.1,0.1,0.1,0.2,0.2c0.1,0.1,0.3,0.2,0.4,0.3c0.1,0,0.1,0.1,0.2,0.1c0.2,0.1,0.4,0.2,0.6,0.3c0,0,0.1,0,0.2,0
		c0.2,0,0.3,0.1,0.5,0.1c0.1,0,0.2,0,0.3,0c0.2,0,0.3,0,0.5,0c0.1,0,0.1,0,0.2,0c0.3,0,0.5,0,0.8-0.1c0.2,0,0.5-0.1,0.7-0.2
		c1.3-0.5,2.5-1.7,3.5-3c0.2-0.3,0.5-0.7,0.7-1c0.1-0.2,0.2-0.3,0.3-0.5l0,0c0.1-0.2,0.2-0.3,0.3-0.5c0.1-0.2,0.2-0.3,0.3-0.5
		c0.1-0.2,0.2-0.3,0.3-0.4l0,0c0.1-0.1,0.2-0.3,0.2-0.4l0,0c0.1-0.1,0.2-0.3,0.2-0.4l0,0c0-0.1,0.1-0.1,0.1-0.2
		c0-0.1,0.1-0.2,0.1-0.3s0.1-0.2,0.1-0.2v-0.1c0-0.1,0-0.2,0.1-0.3v-0.1c0,0,0,0,0-0.1c0-0.3,0-0.5,0-0.8c0-0.2-0.1-0.3-0.1-0.5
		c0-0.1-0.1-0.4-0.3-0.7c0,0,0,0,0-0.1s-0.1-0.1-0.1-0.2c0,0,0-0.1-0.1-0.1c0-0.1-0.1-0.1-0.1-0.2l-0.1-0.1l-0.1-0.1l-0.1-0.1
		l-0.1-0.1l-0.1-0.1h-0.1H576h-0.1c-0.6,0.2-3,6.3-5.2,7.1l0,0c-0.1,0-0.2,0.1-0.3,0.1h-0.1c0,0-0.1,0-0.2,0c0,0,0,0-0.1,0l0,0l0,0
		c-0.1,0-0.1,0-0.2,0c0,0,0,0-0.1,0c-0.1,0-0.1-0.1-0.2-0.1l-0.1-0.1c0,0-0.1-0.1-0.1-0.2c0,0,0-0.1-0.1-0.1c0-0.1-0.1-0.2-0.1-0.3
		l0,0c-0.1-0.3-0.2-0.6-0.2-0.9c0-0.2-0.1-0.5-0.1-0.9c0-0.1,0-0.3,0-0.4c0-0.3,0-0.6,0-0.9c0-0.5,0.1-1.1,0.2-1.6l0,0
		c0-0.2,0-0.4,0.1-0.6c0.1-0.6,0.2-1.3,0.3-2c0-0.2,0.1-0.5,0.1-0.7l0,0c0-0.2,0.1-0.5,0.1-0.7c0.1-0.5,0.2-1,0.2-1.4
		c0-0.2,0.1-0.5,0.1-0.7l0,0l0.3-1.4l0,0l0.2-1.4l0,0c0-0.2,0.1-0.5,0.1-0.7c0.1-0.5,0.2-0.9,0.3-1.3l0.1-0.6l0,0
		c0.1-0.4,0.2-0.8,0.2-1.2l0,0c0.1-0.4,0.1-0.7,0.2-1.1l0,0l0.1-0.2c0-0.1,0-0.2,0-0.2c0.1-0.6,0.2-1.1,0.3-1.5
		c1.8-0.8,3.2-1.5,4.9-2.3c0.3-0.1,0.6-0.3,0.9-0.4c0.1,0,0.1-0.1,0.2-0.1c0.2-0.1,0.5-0.3,0.7-0.5c0.1-0.2,0.3-0.3,0.4-0.5l0,0
		C578.8,542.6,578.9,542.6,578.8,542.5c0.1-0.1,0.1-0.2,0.1-0.3C578.8,542.8,578.8,542.7,578.8,542.5z"/>
	<path class="st0" d="M522.2,583.8c0-0.1,0-0.2-0.1-0.2l-0.2-0.5c0-0.1-0.1-0.2-0.1-0.3l0,0c0,0,0-0.1-0.1-0.1c0,0,0-0.1-0.1-0.1
		c0,0,0-0.1-0.1-0.1l-0.1-0.1l-0.1-0.1l-0.1-0.1l-0.1-0.1L521,582l-0.1-0.1c0,0-0.1,0-0.1-0.1h-0.1l0,0h-0.1l0,0
		c-1,0.4-2.5,6.3-5.4,7.4l0,0c-0.2,0.1-0.3,0.1-0.5,0.1c-0.1,0-0.1,0-0.2,0c-0.1,0-0.2,0-0.3,0l0,0h-0.1c-0.2,0-0.4,0-0.5-0.1
		c0,0-0.1,0-0.2,0c-0.2-0.1-0.4-0.1-0.5-0.3c0,0,0,0-0.1-0.1c-0.2-0.1-0.3-0.2-0.4-0.4c0,0-0.1-0.1-0.1-0.2
		c-0.1-0.2-0.2-0.4-0.3-0.6l0,0c-0.1-0.3-0.2-0.6-0.2-0.9c0-0.3-0.1-0.6-0.1-0.9c0-0.2-0.1-0.4-0.1-0.6c0.5-1.3,1.3-3.2,2.1-5.6
		c0.1-0.3,0.2-0.6,0.3-0.9c0.3-0.9,0.7-1.9,1-2.9c0.1-0.3,0.2-0.7,0.3-1c0.2-0.7,0.5-1.4,0.7-2.1c0.1-0.4,0.2-0.7,0.3-1
		c0.9-2.9,1.8-5.8,2.4-8.6c0.6-2.7,1-5.2,1.1-7.1v-0.1c0-0.2,0-0.5,0-0.7s0-0.4,0-0.6c0-0.1,0-0.2,0-0.3s0-0.2-0.1-0.3
		c0-0.2-0.1-0.3-0.1-0.5l0,0c-0.1-0.1-0.1-0.3-0.2-0.4l-0.1-0.1c-0.1-0.1-0.2-0.2-0.2-0.3l0,0l0,0c-0.1-0.1-0.2-0.2-0.4-0.3h-0.1
		c-0.1-0.1-0.2-0.1-0.3-0.2h-0.1c-0.1,0-0.3-0.1-0.4-0.1c0,0,0,0-0.1,0c-0.1,0-0.2,0-0.3,0H517c-0.1,0-0.3,0-0.4,0
		c-0.1,0-0.1,0-0.2,0c-0.2,0-0.4,0.1-0.6,0.2c-1.3,0.5-2.5,2-3.5,4c-1.1,2.1-2,4.7-2.8,7.1c-0.1,0.4-0.2,0.8-0.4,1.2
		c-0.1,0.4-0.2,0.8-0.3,1.1c-0.1,0.2-0.1,0.4-0.2,0.6c-0.1,0.4-0.2,0.9-0.3,1.3c-0.2,1.1-0.5,2.3-0.6,3.6
		c-0.9,6.2-0.9,13.5,0.9,18.4l0,0c0.1,0.2,0.2,0.5,0.3,0.7c0,0.1,0.1,0.1,0.1,0.2c0.1,0.2,0.2,0.4,0.4,0.6c0,0,0,0.1,0.1,0.1
		c0.1,0.2,0.2,0.3,0.3,0.5l0.1,0.1c0.1,0.2,0.3,0.3,0.5,0.5c0,0,0.1,0,0.1,0.1c0.1,0.1,0.3,0.2,0.4,0.3l0.1,0.1
		c0.2,0.1,0.3,0.2,0.5,0.3h0.1c0.2,0.1,0.3,0.1,0.5,0.1h0.1c0.2,0,0.4,0,0.6,0h0.2c0.3,0,0.5,0,0.8-0.1h0.1c0.3-0.1,0.6-0.1,0.9-0.3
		l0,0c1.4-0.5,2.9-1.5,4.1-2.8c1.2-1.2,2.2-2.7,2.7-4.1c0.1-0.2,0.2-0.4,0.3-0.6c0-0.1,0-0.1,0.1-0.2l0,0c0-0.1,0-0.1,0.1-0.2l0,0
		c0-0.1,0-0.1,0-0.2l0,0c0-0.1,0-0.3,0-0.4C522.3,584.3,522.2,584.1,522.2,583.8z M511.2,578c-0.2,0.7-0.4,1.3-0.6,1.7
		c0-0.4,0-0.8,0-1.2c0-0.7,0-1.4,0.1-2.1c0.1-1.6,0.2-3.2,0.4-4.7c0-0.2,0-0.4,0.1-0.5c0-0.2,0-0.3,0.1-0.5c0-0.2,0.1-0.6,0.2-1.1
		c0-0.2,0.1-0.5,0.2-0.8c0.1-0.4,0.2-0.9,0.4-1.4c0.1-0.3,0.2-0.7,0.3-1.1c0.1-0.4,0.2-0.7,0.3-1.1c0.2-0.8,0.4-1.5,0.7-2.3
		c0.1-0.2,0.1-0.5,0.2-0.7c0.1-0.3,0.2-0.7,0.3-1l0,0c0-0.1,0.1-0.3,0.1-0.4v-0.1l0,0c0-0.2,0.1-0.4,0.2-0.5
		c0.1-0.3,0.2-0.5,0.3-0.8c0.1-0.2,0.2-0.5,0.3-0.7c0.1-0.3,0.2-0.6,0.3-0.8c0.3-0.6,0.5-1.1,0.7-1.3c0.1-0.1,0.1-0.1,0.2-0.2h0.1
		c0.1,0,0.1,0,0.2,0.1l0,0c0,0,0,0,0,0.1v0.1l0,0c0.1,0.2,0.1,0.5,0.1,0.8c0,0.2,0,0.5,0,0.8l0,0c0,0.5-0.1,1.1-0.2,1.7
		c0,0.3-0.1,0.5-0.1,0.8s-0.1,0.6-0.2,0.9c-0.1,0.4-0.2,0.9-0.3,1.4c-0.2,0.8-0.4,1.6-0.6,2.4l0,0c-0.5,2-1.1,4.1-1.7,6.1
		c0,0.1-0.1,0.2-0.1,0.3c-0.5,1.8-1.1,3.5-1.5,5c-0.1,0.3-0.2,0.6-0.3,0.9C511.2,577.7,511.2,577.8,511.2,578z"/>
	<path class="st0" d="M559.7,564.2c0-0.1,0-0.2-0.1-0.3l0,0c0-0.1-0.1-0.2-0.1-0.3s-0.1-0.1-0.1-0.2c0,0,0-0.1-0.1-0.1
		c-0.1-0.1-0.1-0.1-0.1-0.1l-0.1-0.1H559c0,0,0,0-0.1,0l0,0l0,0c-1,0.2-2.1,0-2.9,0.3c-0.1,0-0.2,0.1-0.3,0.2
		c-0.1,0-0.1,0.1-0.3,0.2c-0.1,0.1-0.2,0.1-0.4,0.2c-0.1,0-0.2,0.1-0.2,0.1c-0.5,0.3-1.2,0.7-1.9,1.1c-0.1,0.1-0.3,0.1-0.4,0.2
		c-0.3,0.2-0.5,0.3-0.8,0.5s-0.5,0.3-0.8,0.5c-0.1,0-0.1,0-0.2,0h-0.2c-0.1,0-0.1,0-0.2,0h-0.1l0,0l0,0c0.5-2.6,1.2-5.6,1.9-8.8
		c1.9-8.6,4-17.6,4-18.4c0-0.1,0-0.1,0-0.2c0-0.2,0-0.3-0.1-0.4c0-0.1,0-0.1-0.1-0.1l-0.1-0.1c0,0,0,0-0.1,0c-0.1,0-0.1-0.1-0.2-0.1
		l0,0l0,0h-0.1c-0.1,0-0.1,0-0.2,0c-0.1,0-0.3,0.1-0.5,0.2l-0.1,0.1c0,0-0.1,0-0.1,0.1c0,0-0.1,0-0.1,0.1l0,0c0,0-0.1,0.1-0.2,0.1
		c-0.5,0.4-1,0.8-1.5,1.4c-0.1,0.1-0.2,0.2-0.2,0.3c-0.2,0.3-0.3,0.5-0.4,0.8c0,0.1-0.1,0.3-0.2,0.6l0,0l0,0c0,0.2-0.1,0.3-0.1,0.5
		c0,0.1,0,0.2-0.1,0.3l0,0c-0.2,0.9-0.5,2-0.8,3.4l0,0c-0.1,0.4-0.2,0.8-0.3,1.3c-0.2,0.9-0.4,1.9-0.6,2.9c-0.1,0.3-0.1,0.7-0.2,1
		c-0.1,0.5-0.2,1-0.3,1.5c-0.1,0.6-0.2,1.1-0.4,1.7c-0.1,0.3-0.1,0.6-0.2,0.9c-0.1,0.6-0.3,1.2-0.4,1.8c-0.3,1.3-0.5,2.5-0.8,3.9
		c-0.2,1-0.4,2-0.6,3.1s-0.4,2.1-0.6,3.2c-1.3,0.8-2.4,1.7-2.7,1.9c-0.4,0.3-0.8,1.2-1,1.7c-0.3,0.5-0.3,1-0.5,1.5
		c0,0-0.1,0-0.1,0.1c-0.1,0.1-0.1,0.2,0,0.3l0,0c0.1,0.2,0.2,0.3,0.3,0.4l0.1,0.1c0,0,0,0,0,0.1l0,0c0,0,0,0,0,0.1
		c0,0,0,0.1,0.1,0.1c0,0,0,0,0,0.1l0.1,0.1c0,0,0,0,0,0.1c0,0,0.1,0.1,0.1,0.2l0,0c0.1,0.1,0.2,0.1,0.2,0.2c0.1,0,0.2,0.1,0.3,0.1
		h0.1c0.1,0,0.1,0,0.2,0h0.1h0.1c0.1,0,0.3,0,0.4-0.1c0.2-0.1,0.4-0.2,0.9-0.4c-0.3,1.3-0.5,2.6-0.8,3.8l0,0
		c-0.1,0.6-0.2,1.2-0.4,1.8c-0.3,1.8-0.6,3.5-0.9,5.1l0,0c-0.1,0.5-0.2,1-0.2,1.5c-0.1,0.5-0.1,1-0.2,1.5c0,0.1,0,0.3,0,0.4
		c0,0.2,0,0.3-0.1,0.5l0,0l0,0l0,0l0,0c0,0.5-0.1,0.9-0.1,1.3v0.2c0,0.2,0,0.3,0,0.5s0,0.4,0,0.6c0,1.6,0.2,2.9,0.6,3.9
		c0.1,0.2,0.2,0.4,0.3,0.5c0,0,0,0.1,0.1,0.1c0.1,0.1,0.2,0.3,0.3,0.4l0,0c0.1,0.1,0.3,0.2,0.4,0.3h0.1c0.1,0.1,0.3,0.1,0.4,0.1l0,0
		c0.2,0,0.3,0.1,0.5,0.1h0.1c0.1,0,0.2,0,0.3,0c0.1,0,0.3,0,0.4,0c0.1,0,0.1,0,0.2,0c0.2,0,0.3-0.1,0.4-0.1l0,0
		c0.1,0,0.2-0.1,0.3-0.1l0,0c0.1,0,0.1,0,0.2-0.1c0.1,0,0.2-0.1,0.3-0.2c0,0,0.1,0,0.1-0.1c0,0,0,0,0.1-0.1l0,0
		c0.1-0.1,0.2-0.1,0.3-0.2c0.1-0.1,0.3-0.3,0.4-0.4c0.1-0.1,0.3-0.3,0.4-0.5c0.3-0.3,0.6-0.7,0.9-1.1c0.5-0.7,1.1-1.4,1.6-2.3
		c0.2-0.3,0.4-0.6,0.6-1c0.1-0.2,0.2-0.4,0.3-0.6c0.3-0.5,0.5-0.9,0.8-1.4c0.5-1,1-2,1.5-3.1c0.2-0.3,0.3-0.7,0.5-1.1
		c0.2-0.4,0.3-0.7,0.5-1.1c0.1-0.3,0.2-0.6,0.3-0.8c0.2-0.5,0.4-1,0.5-1.5c0.1-0.3,0.2-0.6,0.3-0.9c0-0.1,0-0.1,0.1-0.2
		c0.1-0.3,0.2-0.5,0.2-0.8c0-0.1,0.1-0.3,0.1-0.4c0.1-0.3,0.2-0.5,0.2-0.8c0.2-0.7,0.3-1.4,0.5-2c0.1-0.3,0.1-0.6,0.2-0.9
		c0-0.1,0-0.1,0-0.2c0-0.2,0-0.3,0.1-0.5c0,0,0,0,0-0.1c0.1-0.4,0.1-0.8,0.1-1.2c0-0.3,0-0.6,0-0.9c0-1-0.1-1.9-0.4-2.6
		c-0.1-0.4-0.3-0.7-0.6-1c-0.1-0.1-0.2-0.2-0.3-0.3c-0.1-0.1-0.2-0.2-0.3-0.3l0,0c-0.1-0.1-0.2-0.2-0.3-0.3
		c-0.2-0.2-0.5-0.4-0.8-0.5c2.1-1.4,3.7-2.5,3.9-2.6C559.6,564.6,559.7,564.4,559.7,564.2z M552.2,582.5c-0.2,0.4-0.3,0.8-0.5,1.2
		v0.1c-1,2.3-2.2,4.5-3.1,6c-0.1,0.2-0.3,0.5-0.4,0.7c-0.6,0.9-1.1,1.5-1.4,1.6l0,0l0,0l0,0l0,0c0,0,0,0-0.1,0
		c-0.1-0.1-0.1-0.1-0.1-0.2c0-0.1,0-0.1,0-0.2c-0.1-0.2-0.1-0.5-0.1-0.9c0-0.1,0-0.2,0-0.4l0,0c0-0.1,0-0.2,0-0.4l0,0
		c0-0.1,0-0.3,0-0.4v-0.1l0,0l0,0l0,0l0,0c0-0.3,0-0.5,0.1-0.8l0,0l0,0l0,0l0,0c0,0,0,0,0-0.1l0,0c0-0.1,0-0.2,0-0.3l0,0
		c0-0.3,0.1-0.7,0.1-1.1l0,0c0-0.2,0-0.4,0.1-0.6l0,0c0.1-0.4,0.1-0.8,0.2-1.2l0,0c0.1-0.4,0.1-0.8,0.2-1.3c0.1-0.3,0.1-0.7,0.2-1
		c0-0.3,0.1-0.7,0.2-1c0.1-0.5,0.2-0.9,0.2-1.4c0-0.2,0.1-0.5,0.1-0.7l0,0c0-0.2,0.1-0.5,0.1-0.7l0,0c0.1-0.2,0.1-0.5,0.1-0.7
		c0.1-0.7,0.3-1.4,0.4-2.1c0-0.2,0.1-0.5,0.1-0.7c0.1-0.5,0.2-0.9,0.3-1.3c0.2-1.1,0.4-2.2,0.6-3.1l2.4-1.5c1,0.3,1.9,0.9,2.2,1.7
		C554.8,574.2,553.8,578.5,552.2,582.5z"/>
	<path class="st0" d="M539.6,566.4c0-0.2-0.1-0.3-0.1-0.5l0,0c-0.1-0.2-0.2-0.3-0.2-0.5l-0.1-0.1c-0.1-0.1-0.2-0.2-0.2-0.3l-0.1-0.1
		c-0.1-0.1-0.2-0.2-0.3-0.3c0,0,0,0-0.1,0c-0.1-0.1-0.2-0.1-0.3-0.2h-0.1c-0.1,0-0.2-0.1-0.3-0.1h-0.1c-0.1,0-0.3,0-0.4,0l0,0
		c-0.1,0-0.2,0-0.3,0h-0.1c-0.1,0-0.3,0.1-0.4,0.1c-0.2,0.1-0.5,0.2-0.8,0.3v-0.1c0,0,0,0,0-0.1c0,0,0,0-0.1-0.1l0,0
		c0,0-0.1-0.1-0.2-0.1c0,0,0,0-0.1,0c-0.2-0.1-0.5-0.1-0.8-0.1l0,0h-0.1c-0.1,0-0.3,0-0.4,0c-0.1,0-0.1,0-0.2,0
		c-0.2,0-0.4,0.1-0.6,0.2l0,0c-0.1,0-0.2,0.1-0.3,0.1c-0.2,0.1-0.5,0.3-0.8,0.4c-0.1,0-0.1,0.1-0.2,0.1c-0.1,0.1-0.2,0.2-0.3,0.2
		c-0.3,0.3-0.7,0.6-1,0.9c-0.1,0.1-0.3,0.3-0.4,0.4c-0.2,0.2-0.3,0.3-0.5,0.5l-0.2,0.2c-0.1,0.1-0.1,0.1-0.2,0.2
		c-0.1,0.1-0.2,0.3-0.3,0.4c-0.1,0.1-0.2,0.3-0.3,0.4c-0.2,0.2-0.3,0.4-0.5,0.7c-0.2,0.4-0.5,0.7-0.7,1.1c-0.1,0.2-0.2,0.4-0.3,0.6
		c-2.3,4.1-3.6,9.4-1.8,14.1c0.1,0.2,0.2,0.5,0.3,0.7c0,0.1,0.1,0.1,0.1,0.2c0.1,0.2,0.2,0.3,0.3,0.4c0,0,0.1,0.1,0.1,0.2
		c0.1,0.1,0.3,0.3,0.4,0.4l0.1,0.1c0.2,0.1,0.4,0.3,0.6,0.4c0.1,0,0.1,0,0.1,0c0.2,0.1,0.4,0.2,0.5,0.2c0.1,0,0.1,0,0.2,0.1
		c0.2,0,0.3,0.1,0.5,0.1c0.1,0,0.2,0,0.2,0c0.2,0,0.3,0,0.5,0c0.1,0,0.2,0,0.3,0c0.3,0,0.5-0.1,0.8-0.2c2.3-0.8,4.4-3.1,6-5.9
		c0.3-0.4,0.5-0.9,0.7-1.3c0.4-0.9,0.9-1.8,1.2-2.8c0.2-0.5,0.3-1,0.5-1.4c0.8-2.6,1.3-5.2,1.3-7.3
		C539.8,567.7,539.8,567,539.6,566.4z M535.8,569.9c0,0.1,0,0.2,0,0.3c0,0.5-0.1,1.1-0.2,1.7c0,0.1,0,0.3-0.1,0.4
		c-0.1,0.3-0.1,0.6-0.2,0.9c-0.2,0.9-0.5,2-0.9,3.1c-0.8,2.3-1.7,4-2.6,5.2c-0.1,0.2-0.2,0.3-0.3,0.4l-0.3,0.4l0,0l0,0
		c0,0.1-0.1,0.1-0.2,0.2l-0.2,0.2c-0.1,0.1-0.3,0.3-0.4,0.3l-0.1,0.1l-0.2,0.1l-0.1,0.1l-0.1,0.1l-0.1,0.1l0,0l-0.3,0.1l0,0h-0.1
		l0,0l0,0l0,0h-0.1l0,0l0,0h-0.1c-0.1,0-0.2,0-0.2-0.1l-0.1-0.1l-0.1-0.1l-0.1-0.1l-0.1-0.1c-0.1-0.1-0.2-0.3-0.2-0.4l0,0
		c-0.5-1.4-0.4-4.1,0.6-7.4c0.7-2.3,1.8-4.2,3-5.8c0.6-0.8,1.3-1.5,2-2.1c0.1,0.2,0.1,0.3,0.2,0.4c0,0,0,0,0,0.1
		c0.1,0.2,0.3,0.3,0.4,0.4l0,0c0.1,0,0.1,0,0.2,0l0,0c0.1,0,0.2,0,0.3-0.1l0.2-0.1h0.1h0.1c0,0,0,0,0.1,0l0,0
		c0.1,0.1,0.1,0.1,0.1,0.2l0,0c0,0.1,0.1,0.3,0.1,0.5C535.8,569.2,535.8,569.5,535.8,569.9z"/>
	<path class="st0" d="M515.2,469.3c-30.1,0-51.3,21-51.3,51.3c0,27,16.5,46.1,40.9,50.3c0.3-2.1,0.7-4.1,1.2-5.9
		c1-3.7,2.1-6.7,3.2-9.1c-15.5-2.5-25.5-15.2-25.5-35.3c0-22.8,12.7-36,31.5-36c19.3,0,31.5,13.8,31.5,36c0,19.3-9.4,31.8-23.8,35
		c0.1,2.6-0.5,6.9-2.8,14.6c-0.1,0.5-0.3,1-0.4,1.4c1.2-0.1,2.3-0.2,3.5-0.3c2.1-4.8,5.5-8.6,8.7-9.8c0.8-0.3,1.5-0.4,2.3-0.4
		c0.6,0,1.2,0.1,1.7,0.3c0.5-0.1,0.9-0.2,1.4-0.2c2.4,0,4.3,1.4,5.2,3.7v0.1c0.6-0.4,1.2-0.7,1.8-1.1c2.3-11.4,4.8-22.5,5.1-23.5
		c1-2.7,3.7-4.5,5-5c0.4-0.1,0.9-0.2,1.3-0.2c1.5,0,2.8,0.9,3.3,2.3c0.2,0.5,0.3,1.2,0.2,1.9c0,0.6-0.4,2.4-2,9.4
		c-0.3,1.3-0.6,2.6-0.9,4c0.6-0.8,1.2-1.6,1.8-2.5c1.3-1.9,2.4-3.9,3.4-6c3.2-6.9,5-14.8,5-23.6
		C566.4,490.4,545.3,469.3,515.2,469.3z"/>
	<path class="st0" d="M516.2,556.4c-0.2,0-0.3,0-0.5,0c0.1-0.1,0.1-0.1,0.2-0.2h0.1c0.1,0,0.1,0,0.2,0.1
		C516.1,556.3,516.1,556.3,516.2,556.4L516.2,556.4z"/>
	<path class="st0" d="M577.3,564.8L577.3,564.8L577.3,564.8L577.3,564.8z M577.2,565.2c0-0.1,0-0.1,0.1-0.2
		C577.2,565.1,577.2,565.1,577.2,565.2L577.2,565.2z M567.6,544.7L567.6,544.7C567.6,544.6,567.6,544.6,567.6,544.7
		C567.6,544.6,567.6,544.6,567.6,544.7C567.6,544.6,567.6,544.6,567.6,544.7z M567.6,544.7L567.6,544.7
		C567.5,544.7,567.5,544.7,567.6,544.7C567.5,544.7,567.5,544.7,567.6,544.7z M567,544.9C567,544.9,567.1,544.9,567,544.9
		c0.1,0,0.1,0,0.1,0S567.1,544.9,567,544.9C567.1,544.9,567,544.9,567,544.9z M566.7,549.5c0,0,0.1,0,0.1-0.1
		C566.8,549.4,566.7,549.4,566.7,549.5L566.7,549.5z"/>
	<path class="st0" d="M530.3,583C530.4,583,530.4,583,530.3,583L530.3,583C530.4,583,530.4,583,530.3,583z M535.5,572.3
		c0-0.1,0.1-0.3,0.1-0.4s0-0.3,0.1-0.4C535.6,571.7,535.5,572,535.5,572.3z"/>
	<path class="st0" d="M547.7,580c0,0.2-0.1,0.5-0.1,0.7C547.6,580.5,547.6,580.2,547.7,580L547.7,580z"/>
	<path class="st0" d="M528.3,568.3c0.1-0.2,0.3-0.4,0.5-0.6c-0.1,0.1-0.1,0.2-0.2,0.3C528.5,568,528.4,568.1,528.3,568.3z"/>
	<path class="st0" d="M528.8,567.6c0.1-0.1,0.2-0.3,0.3-0.4c-0.1,0.1-0.1,0.1-0.2,0.2C528.8,567.5,528.8,567.6,528.8,567.6z"/>
	<path class="st0" d="M535.4,568.2c-1.2,0.5-2.4,0.9-3.6,1.2c0.6-0.8,1.3-1.5,2-2.1c0.1,0.2,0.1,0.3,0.2,0.4c0,0,0,0,0,0.1
		c0.1,0.2,0.3,0.3,0.4,0.4l0,0c0.1,0,0.1,0,0.2,0l0,0c0.1,0,0.2,0,0.3-0.1l0.2-0.1h0.1C535.3,568.1,535.4,568.2,535.4,568.2z"/>
	<path class="st0" d="M509.6,563.5c-0.1,0.4-0.2,0.8-0.4,1.2c-0.1,0.4-0.2,0.8-0.3,1.1C509.1,565.1,509.3,564.3,509.6,563.5z"/>
	<path class="st0" d="M577.2,565.1c0-0.1,0-0.2,0.1-0.3C577.2,564.9,577.2,565,577.2,565.1C577.2,565.1,577.2,565.2,577.2,565.1
		C577.2,565.2,577.2,565.2,577.2,565.1z"/>
	<path class="st0" d="M577.3,564.8C577.3,564.8,577.3,564.7,577.3,564.8L577.3,564.8L577.3,564.8
		C577.3,564.9,577.3,564.9,577.3,564.8L577.3,564.8z"/>
	<path class="st0" d="M577.3,564.7c0-0.3,0-0.5,0-0.8C577.3,564.2,577.3,564.5,577.3,564.7z"/>
	<path class="st0" d="M559.3,563.3c0,0.1,0.1,0.1,0.1,0.2C559.4,563.5,559.4,563.4,559.3,563.3z"/>
	<path class="st0" d="M544.4,596.5C544.3,596.5,544.3,596.5,544.4,596.5C544.3,596.5,544.3,596.5,544.4,596.5z"/>
	<path class="st0" d="M559.7,563.9C559.6,563.8,559.6,563.8,559.7,563.9C559.6,563.8,559.6,563.8,559.7,563.9L559.7,563.9z"/>
	<path class="st0" d="M546.7,596.6c-0.1,0-0.3,0.1-0.4,0.1C546.4,596.7,546.5,596.7,546.7,596.6z"/>
	<path class="st0" d="M552.2,582.5c-0.2,0.4-0.3,0.8-0.5,1.2C551.9,583.3,552,582.9,552.2,582.5z"/>
	<path class="st0" d="M544.8,596.7L544.8,596.7L544.8,596.7z"/>
	<path class="st0" d="M543.9,596.2L543.9,596.2L543.9,596.2z"/>
	<path class="st0" d="M525.3,585.6c0-0.1-0.1-0.1-0.1-0.2C525.2,585.5,525.3,585.6,525.3,585.6z"/>
	<path class="st0" d="M525.8,586.2c-0.1-0.1-0.1-0.1-0.1-0.2C525.7,586.1,525.7,586.2,525.8,586.2z"/>
	<path class="st0" d="M567.5,549.1L567.5,549.1c-0.9,4-3.6,16.8-2.3,20.5l0,0l0,0C563.9,565.9,566.6,553,567.5,549.1z"/>
	<path class="st0" d="M570,568.9L570,568.9C569.9,568.9,569.9,568.9,570,568.9L570,568.9z"/>
	<path class="st0" d="M546.1,596.8c-0.1,0-0.2,0-0.4,0C545.8,596.8,545.9,596.8,546.1,596.8z"/>
	<path class="st0" d="M561.5,551.1l-0.1-0.1C561.4,551,561.5,551,561.5,551.1z"/>
	<path class="st0" d="M543.5,595.8L543.5,595.8C543.5,595.8,543.5,595.8,543.5,595.8z"/>
	<path class="st0" d="M572.9,542.6L572.9,542.6c0.1-0.7,1.1-4.4,0.9-4.8l0,0l0,0C573.9,538.2,573,541.9,572.9,542.6z"/>
	<path class="st0" d="M573,537.3L573,537.3C572.9,537.3,572.9,537.3,573,537.3C572.9,537.4,573,537.4,573,537.3L573,537.3z"/>
	<path class="st0" d="M573.4,537.4C573.4,537.4,573.5,537.4,573.4,537.4C573.5,537.4,573.4,537.4,573.4,537.4z"/>
	<path class="st0" d="M545.2,574L545.2,574c-1.9,9.6-3.5,17.3-2.1,21.2l0,0C541.7,591.3,543.3,583.6,545.2,574z"/>
	<path class="st0" d="M526.3,586.7L526.3,586.7C526.2,586.6,526.3,586.7,526.3,586.7z"/>
	<path class="st0" d="M573.2,537.3C573.2,537.3,573.3,537.4,573.2,537.3C573.3,537.4,573.2,537.3,573.2,537.3z"/>
	<path class="st0" d="M542.6,573.7C542.6,573.7,542.5,573.7,542.6,573.7C542.5,573.7,542.6,573.7,542.6,573.7z"/>
	<path class="st0" d="M547.7,580c0-0.2,0.1-0.5,0.1-0.7C547.8,579.5,547.7,579.8,547.7,580c0,0.2-0.1,0.5-0.1,0.7
		C547.6,580.5,547.6,580.2,547.7,580z"/>
	<path class="st0" d="M548.7,574.5c-0.1,0.4-0.2,0.9-0.3,1.3c0,0.2-0.1,0.5-0.1,0.7c0.1-0.3,0.1-0.7,0.2-1
		C548.6,575.2,548.6,574.8,548.7,574.5z"/>
	<path class="st0" d="M576.4,541.2L576.4,541.2c0.6,0,1,0.6,1.7,0.8c0.3,0.1,0.5,0.2,0.6,0.5c0.3,0.9-0.7,1.7-1.4,2
		c-0.3,0.1-0.6,0.3-0.9,0.4c0.3-0.1,0.6-0.3,0.9-0.4c0.7-0.3,1.7-1.1,1.4-2c-0.1-0.3-0.3-0.4-0.6-0.5
		C577.5,541.8,577.1,541.3,576.4,541.2c-0.2,0-0.7,0.2-1.3,0.4c-0.4,0.1-1.1,0.5-1.7,0.7c0.5-0.2,1.3-0.6,1.7-0.7
		C575.7,541.4,576.2,541.2,576.4,541.2z"/>
	<path class="st0" d="M552.9,565c0.8-0.4,1.4-0.8,1.9-1.1C554.3,564.2,553.7,564.6,552.9,565z"/>
	<path class="st0" d="M550.3,566.2L550.3,566.2L550.3,566.2L550.3,566.2z"/>
	<path class="st0" d="M551.6,583.8c-1,2.3-2.1,4.5-3.1,6C549.5,588.3,550.6,586.1,551.6,583.8z"/>
	<path class="st0" d="M548.1,590.4L548.1,590.4L548.1,590.4z"/>
	<path class="st0" d="M546.7,592C546.6,592.1,546.6,592.1,546.7,592C546.6,592.1,546.6,592,546.7,592C546.6,592,546.6,592,546.7,592
		z"/>
	<path class="st0" d="M572,537.5L572,537.5L572,537.5c-0.4,0.1-0.7,0.4-1,0.5c-0.2,0.1-0.4,0.2-0.5,0.3c0.1-0.1,0.2-0.2,0.5-0.3
		S571.6,537.6,572,537.5z"/>
	<path class="st0" d="M573.6,537.5C573.6,537.6,573.7,537.6,573.6,537.5C573.7,537.6,573.6,537.6,573.6,537.5z"/>
	<path class="st0" d="M543.6,574.5C543.6,574.5,543.5,574.5,543.6,574.5C543.5,574.5,543.6,574.5,543.6,574.5z"/>
	<path class="st0" d="M572.3,537.4C572.3,537.4,572.4,537.4,572.3,537.4C572.4,537.4,572.3,537.4,572.3,537.4z"/>
	<path class="st0" d="M543.9,574.5L543.9,574.5L543.9,574.5z"/>
	<path class="st0" d="M528.5,587.5c-0.1,0-0.2,0-0.2,0C528.4,587.5,528.5,587.5,528.5,587.5z"/>
	<path class="st0" d="M561.2,550.9c-0.1-0.1-0.1-0.1-0.1-0.2C561.1,550.7,561.2,550.8,561.2,550.9z"/>
	<path class="st0" d="M527,587.1C527,587.1,526.9,587.1,527,587.1C527,587.1,527,587.1,527,587.1z"/>
	<path class="st0" d="M527.8,587.4c-0.1,0-0.2,0-0.2-0.1C527.7,587.4,527.7,587.4,527.8,587.4z"/>
	<path class="st0" d="M542.8,574.1L542.8,574.1L542.8,574.1z"/>
	<path class="st0" d="M542.1,572.7c-0.1,0.1-0.1,0.2,0,0.3C542,572.9,542,572.8,542.1,572.7z"/>
	<path class="st0" d="M547.7,561.3c-0.2,1-0.4,2-0.6,3.1C547.3,563.4,547.5,562.4,547.7,561.3L547.7,561.3z"/>
	<path class="st0" d="M570.6,568.8L570.6,568.8L570.6,568.8z"/>
	<path class="st0" d="M542.7,573.9C542.7,573.9,542.6,573.9,542.7,573.9C542.6,573.9,542.7,573.9,542.7,573.9z"/>
	<path class="st0" d="M529.3,587.4c-0.1,0-0.2,0-0.3,0C529.1,587.5,529.2,587.5,529.3,587.4z"/>
	<path class="st0" d="M566.6,545.1c0.1,0,0.2-0.1,0.3-0.1C566.8,545,566.7,545,566.6,545.1c-0.2,0.1-0.5,0.2-0.7,0.3
		C566.1,545.3,566.4,545.2,566.6,545.1z"/>
	<path class="st0" d="M567,544.9C567,544.9,567.1,544.9,567,544.9L567,544.9C567.1,544.9,567,544.9,567,544.9z"/>
	<path class="st0" d="M567.6,544.7L567.6,544.7L567.6,544.7C567.5,544.7,567.5,544.7,567.6,544.7
		C567.5,544.7,567.5,544.7,567.6,544.7z"/>
	<path class="st0" d="M567.6,544.6L567.6,544.6C567.6,544.7,567.6,544.7,567.6,544.6L567.6,544.6z"/>
	<path class="st0" d="M543,574.3L543,574.3L543,574.3z"/>
	<path class="st0" d="M513,593.4c-0.2,0-0.4,0-0.6-0.1C512.5,593.4,512.7,593.4,513,593.4z"/>
	<path class="st0" d="M516.7,552.1c0.1,0,0.3,0,0.4,0C516.9,552.1,516.8,552.1,516.7,552.1z"/>
	<path class="st0" d="M509.4,591.2c-0.1-0.2-0.2-0.4-0.3-0.6C509.2,590.8,509.3,591.1,509.4,591.2z"/>
	<path class="st0" d="M515.9,552.3L515.9,552.3c0.2-0.1,0.4-0.1,0.6-0.2C516.3,552.2,516.1,552.2,515.9,552.3z"/>
	<path class="st0" d="M576.2,561.7l0.1,0.1C576.2,561.8,576.2,561.8,576.2,561.7z"/>
	<path class="st0" d="M508.9,590.4c-0.1-0.2-0.2-0.4-0.3-0.7C508.8,590,508.9,590.2,508.9,590.4z"/>
	<path class="st0" d="M575.8,561.6L575.8,561.6L575.8,561.6z"/>
	<path class="st0" d="M517.5,552.1C517.5,552.1,517.6,552.1,517.5,552.1C517.6,552.1,517.5,552.1,517.5,552.1z"/>
	<path class="st0" d="M576,561.6h0.1C576,561.7,576,561.6,576,561.6z"/>
	<path class="st0" d="M518,552.2h0.1H518z"/>
	<path class="st0" d="M509.8,591.8c-0.1-0.2-0.2-0.3-0.4-0.5C509.6,591.5,509.7,591.7,509.8,591.8z"/>
	<path class="st0" d="M512.2,593.3c-0.2,0-0.3-0.1-0.5-0.1C511.9,593.3,512,593.3,512.2,593.3z"/>
	<path class="st0" d="M576.6,562.2c0,0.1,0.1,0.1,0.1,0.2C576.6,562.3,576.6,562.3,576.6,562.2z"/>
	<path class="st0" d="M576.7,562.5c0,0.1,0.1,0.1,0.1,0.2C576.8,562.7,576.8,562.6,576.7,562.5z"/>
	<path class="st0" d="M511.6,593.1c-0.2-0.1-0.4-0.2-0.5-0.3C511.2,593,511.4,593.1,511.6,593.1z"/>
	<path class="st0" d="M510.9,592.8c-0.1-0.1-0.3-0.2-0.4-0.3C510.6,592.6,510.7,592.7,510.9,592.8z"/>
	<path class="st0" d="M576.4,561.9L576.4,561.9C576.5,562,576.4,562,576.4,561.9z"/>
	<path class="st0" d="M510.4,592.4c-0.2-0.1-0.3-0.3-0.4-0.5C510.1,592.1,510.2,592.3,510.4,592.4z"/>
	<path class="st0" d="M570.2,568.9h0.1C570.3,568.9,570.2,568.9,570.2,568.9z"/>
	<path class="st0" d="M515.3,589C515.3,589.1,515.3,589.1,515.3,589C515.3,589.1,515.3,589.1,515.3,589L515.3,589z"/>
	<path class="st0" d="M522.2,583.8c0-0.1,0-0.2-0.1-0.2l-0.2-0.5l0.2,0.5C522.1,583.7,522.2,583.8,522.2,583.8z"/>
	<path class="st0" d="M511.6,576.7c0.5-1.4,1-3.1,1.5-4.9l0,0C512.6,573.6,512,575.3,511.6,576.7z"/>
	<path class="st0" d="M514.2,589.2C514.2,589.2,514.2,589.3,514.2,589.2C514.1,589.2,514.1,589.2,514.2,589.2
		C514.2,589.2,514.2,589.2,514.2,589.2z"/>
	<path class="st0" d="M510.6,576.3c-0.1,1.2-0.1,2.3,0,3.4l0,0C510.5,578.6,510.5,577.5,510.6,576.3z"/>
	<path class="st0" d="M514,578.8c0.3-0.9,0.7-1.9,1-2.9C514.7,576.9,514.3,577.9,514,578.8z"/>
	<path class="st0" d="M512.4,588.4l-0.1-0.1L512.4,588.4z"/>
	<path class="st0" d="M518.9,552.7C519,552.8,519,552.8,518.9,552.7C519,552.8,519,552.8,518.9,552.7z"/>
	<path class="st0" d="M545.4,596.8C545.4,596.8,545.3,596.8,545.4,596.8C545.3,596.8,545.4,596.8,545.4,596.8z"/>
	<path class="st0" d="M519.3,553.1l0.1,0.1C519.3,553.2,519.3,553.1,519.3,553.1z"/>
	<path class="st0" d="M569.7,568.9L569.7,568.9L569.7,568.9z"/>
	<path class="st0" d="M518.5,552.4L518.5,552.4L518.5,552.4z"/>
	<path class="st0" d="M516,556.2C515.9,556.2,515.9,556.2,516,556.2C515.9,556.3,515.9,556.3,516,556.2
		C515.9,556.2,516,556.2,516,556.2C516,556.3,516,556.2,516,556.2z"/>
	<path class="st0" d="M511.3,577.6c0,0.1-0.1,0.3-0.1,0.4C511.2,577.8,511.2,577.7,511.3,577.6z"/>
	<path class="st0" d="M569.2,568.4C569.2,568.4,569.2,568.5,569.2,568.4C569.2,568.5,569.2,568.4,569.2,568.4z"/>
	<path class="st0" d="M559.1,563.1L559.1,563.1C559.2,563.2,559.2,563.2,559.1,563.1z"/>
	<path class="st0" d="M516.1,556.3L516.1,556.3L516.1,556.3z"/>
	<path class="st0" d="M528.3,583.1c-0.1-0.1-0.2-0.3-0.2-0.4C528.2,582.8,528.2,583,528.3,583.1z"/>
	<path class="st0" d="M531.1,582.3c0.1-0.1,0.2-0.3,0.3-0.4L531.1,582.3L531.1,582.3L531.1,582.3z"/>
	<path class="st0" d="M535.8,570.4c0-0.2,0-0.3,0-0.4v0.1C535.8,570.2,535.8,570.3,535.8,570.4z"/>
	<path class="st0" d="M535.8,570.5C535.8,570.4,535.8,570.4,535.8,570.5C535.8,570.4,535.8,570.4,535.8,570.5z"/>
	<path class="st0" d="M535.7,570.9c0-0.2,0-0.3,0.1-0.5c0,0.4-0.1,0.9-0.2,1.4c0,0.1,0,0.3-0.1,0.4c0.1-0.3,0.1-0.5,0.1-0.8
		C535.7,571.3,535.7,571.1,535.7,570.9z"/>
	<path class="st0" d="M535.8,569.9L535.8,569.9c0-0.3,0-0.7,0-0.9C535.8,569.2,535.8,569.5,535.8,569.9z"/>
	<path class="st0" d="M562.8,551.2c-0.2,0-0.3,0-0.5,0.1C562.5,551.2,562.7,551.2,562.8,551.2z"/>
	<path class="st0" d="M528.6,583.4c-0.1-0.1-0.1-0.1-0.2-0.2C528.5,583.3,528.5,583.4,528.6,583.4z"/>
	<path class="st0" d="M565.7,570.7c0-0.1-0.1-0.2-0.1-0.3C565.6,570.6,565.7,570.7,565.7,570.7z"/>
	<path class="st0" d="M512.8,588.8C512.8,588.8,512.8,588.9,512.8,588.8C512.8,588.9,512.8,588.8,512.8,588.8z"/>
	<path class="st0" d="M562.2,551.2L562.2,551.2C562.1,551.2,562.1,551.2,562.2,551.2z"/>
	<path class="st0" d="M530.1,587.2L530.1,587.2c6.5-2.4,10.8-15.8,9.5-20.9l0,0C540.9,571.5,536.6,584.9,530.1,587.2z"/>
	<path class="st0" d="M563.4,551c-0.1,0-0.3,0.1-0.4,0.1C563.1,551.1,563.2,551.1,563.4,551z"/>
	<path class="st0" d="M559,563L559,563L559,563z"/>
	<path class="st0" d="M569.5,568.7C569.4,568.7,569.4,568.7,569.5,568.7C569.4,568.7,569.4,568.7,569.5,568.7z"/>
	<path class="st0" d="M529,583.6c-0.1,0-0.2,0-0.2-0.1C528.8,583.5,528.9,583.6,529,583.6z"/>
	<path class="st0" d="M529.1,583.6L529.1,583.6C529.2,583.6,529.2,583.6,529.1,583.6L529.1,583.6z"/>
	<path class="st0" d="M529.4,583.6L529.4,583.6L529.4,583.6L529.4,583.6L529.4,583.6z"/>
	<path class="st0" d="M561.8,551.2C561.7,551.2,561.7,551.2,561.8,551.2C561.7,551.2,561.8,551.2,561.8,551.2z"/>
	<path class="st0" d="M535.5,568.2C535.5,568.2,535.5,568.3,535.5,568.2C535.5,568.3,535.5,568.2,535.5,568.2z"/>
	<path class="st0" d="M513.4,589.1c0.1,0,0.1,0,0.2,0C513.5,589.2,513.5,589.1,513.4,589.1z"/>
	<path class="st0" d="M567.3,572.5c-0.1,0-0.1-0.1-0.2-0.1C567.2,572.4,567.3,572.4,567.3,572.5z"/>
	<path class="st0" d="M521.4,582.1C521.4,582.1,521.4,582.2,521.4,582.1C521.5,582.2,521.5,582.2,521.4,582.1z"/>
	<path class="st0" d="M521.6,582.4C521.6,582.4,521.6,582.5,521.6,582.4C521.6,582.5,521.6,582.4,521.6,582.4z"/>
	<path class="st0" d="M521.3,581.9C521.3,581.9,521.3,582,521.3,581.9C521.3,582,521.3,581.9,521.3,581.9z"/>
	<path class="st0" d="M568.1,572.7c-0.1,0-0.1,0-0.2,0C568,572.7,568.1,572.7,568.1,572.7z"/>
	<path class="st0" d="M515,593c-0.3,0.1-0.6,0.2-0.9,0.3C514.4,593.2,514.7,593.2,515,593z"/>
	<path class="st0" d="M521.7,582.6c0,0,0,0.1,0.1,0.1C521.8,582.7,521.7,582.7,521.7,582.6z"/>
	<path class="st0" d="M513.9,593.3c-0.3,0.1-0.6,0.1-0.8,0.1C513.4,593.4,513.7,593.4,513.9,593.3z"/>
	<path class="st0" d="M568.9,572.9c-0.1,0-0.2,0-0.3,0C568.7,572.9,568.8,572.9,568.9,572.9z"/>
	<path class="st0" d="M569.6,572.9c-0.1,0-0.1,0-0.2,0C569.5,572.9,569.6,572.9,569.6,572.9z"/>
	<path class="st0" d="M514.6,589.2c0.1,0,0.1,0,0.2,0C514.7,589.2,514.6,589.2,514.6,589.2z"/>
	<path class="st0" d="M566.7,572c-0.1-0.1-0.1-0.1-0.2-0.2C566.6,571.9,566.7,572,566.7,572z"/>
	<path class="st0" d="M520.7,581.7L520.7,581.7L520.7,581.7z"/>
	<path class="st0" d="M520.9,581.7L520.9,581.7L520.9,581.7z"/>
	<path class="st0" d="M566.2,571.5c-0.1-0.1-0.1-0.2-0.2-0.2C566.1,571.3,566.2,571.4,566.2,571.5z"/>
	<path class="st0" d="M521.1,581.7C521.1,581.8,521.1,581.8,521.1,581.7C521.1,581.8,521.1,581.8,521.1,581.7z"/>
	<path class="st0" d="M555.9,538.3c0.1,0.1,0.1,0.1,0.2,0.2C556.1,538.4,556,538.3,555.9,538.3z"/>
	<path class="st0" d="M555.7,538.2c0.1,0,0.1,0,0.2,0.1C555.8,538.2,555.8,538.2,555.7,538.2z"/>
	<path class="st0" d="M513.2,571.5c1.8-6.1,3.6-13.4,3.1-15l0,0l0,0C516.8,558.1,515,565.4,513.2,571.5z"/>
	<path class="st0" d="M535.2,568.2h0.1l0,0C535.3,568.1,535.2,568.2,535.2,568.2l-0.2,0.1c-0.1,0-0.2,0.1-0.3,0.1
		c0.1,0,0.2,0,0.3-0.1L535.2,568.2z"/>
	<path class="st0" d="M534.7,568.3c-0.1,0-0.1,0-0.2,0C534.5,568.3,534.6,568.3,534.7,568.3z"/>
	<path class="st0" d="M538.4,564.5L538.4,564.5L538.4,564.5z"/>
	<path class="st0" d="M538.8,564.8l0.1,0.1C538.9,564.9,538.8,564.9,538.8,564.8z"/>
	<path class="st0" d="M539.1,565.2L539.1,565.2C539.2,565.3,539.1,565.3,539.1,565.2z"/>
	<path class="st0" d="M533.8,567.3L533.8,567.3c0.1,0.2,0.1,0.3,0.2,0.4C533.9,567.6,533.8,567.5,533.8,567.3z"/>
	<path class="st0" d="M547.7,561.3c0.3-1.3,0.5-2.6,0.8-3.9C548.2,558.7,548,560,547.7,561.3L547.7,561.3z"/>
	<path class="st0" d="M519.9,556.1L519.9,556.1c0,3.8-1.6,9.9-3.5,15.6l0,0C518.2,566,519.8,559.9,519.9,556.1z"/>
	<path class="st0" d="M534.4,568.2c-0.1-0.1-0.3-0.2-0.4-0.4C534.1,568,534.3,568.2,534.4,568.2z"/>
	<path class="st0" d="M539.4,565.8C539.4,565.9,539.4,565.9,539.4,565.8c0.1,0.2,0.1,0.4,0.2,0.5l0,0
		C539.6,566.2,539.5,566,539.4,565.8C539.4,565.9,539.4,565.9,539.4,565.8z"/>
	<path class="st0" d="M513.1,571.7L513.1,571.7c0-0.1,0.1-0.2,0.1-0.3C513.1,571.6,513.1,571.6,513.1,571.7z"/>
	<path class="st0" d="M537.9,564.3L537.9,564.3C538,564.3,538,564.3,537.9,564.3z"/>
	<path class="st0" d="M535,564.2c0.1,0,0.1,0.1,0.2,0.1C535.1,564.3,535.1,564.3,535,564.2z"/>
	<path class="st0" d="M534.1,564.1c0.3,0,0.6,0.1,0.8,0.1C534.7,564.1,534.4,564.1,534.1,564.1z"/>
	<path class="st0" d="M532.8,564.3L532.8,564.3c0.2-0.1,0.4-0.1,0.6-0.2C533.2,564.2,533,564.2,532.8,564.3z"/>
	<path class="st0" d="M533.6,564.1c0.1,0,0.3,0,0.4,0C533.9,564.1,533.7,564.1,533.6,564.1z"/>
	<path class="st0" d="M537.5,564.2h0.1H537.5z"/>
	<path class="st0" d="M536.7,564.2c0.1,0,0.2,0,0.3,0C537,564.2,536.9,564.2,536.7,564.2z"/>
	<path class="st0" d="M536.2,564.3c0.1-0.1,0.3-0.1,0.4-0.1C536.5,564.2,536.3,564.3,536.2,564.3z"/>
	<path class="st0" d="M535.2,564.4c0.1,0,0.1,0.1,0.1,0.1C535.3,564.5,535.3,564.4,535.2,564.4z"/>
</g>
</svg>
