<?xml version="1.0" encoding="utf-8"?>
<!-- Generator: Adobe Illustrator 19.0.1, SVG Export Plug-In . SVG Version: 6.00 Build 0)  -->
<svg version="1.1" id="Layer_1" xmlns="http://www.w3.org/2000/svg" xmlns:xlink="http://www.w3.org/1999/xlink" x="0px" y="0px"
	 viewBox="0 0 382.3 387.3" style="enable-background:new 0 0 382.3 387.3;" xml:space="preserve">
<style type="text/css">
	.st0{fill:#D28876;stroke:#D59F92;stroke-width:3;stroke-miterlimit:10;}
</style>
<g>
	<g>
		<path class="st0" d="M191.2,5C85.8,5,0,90.8,0,196.2s85.8,191.2,191.2,191.2s191.2-85.8,191.2-191.2S296.6,5,191.2,5z
			 M191.2,377.7C91,377.7,9.6,296.3,9.6,196.2S91,14.6,191.2,14.6S372.7,96,372.7,196.2S291.3,377.7,191.2,377.7z"/>
	</g>
	<g>
		<path class="st0" d="M281.2,196.2c0,2.7-2.2,4.8-4.8,4.8H117.6l46.9,46.9c0.9,0.9,1.4,2.1,1.4,3.4s-0.5,2.5-1.4,3.4
			c-1.2,1.2-2.5,1.4-3.4,1.4c-0.9,0-2.3-0.2-3.4-1.4l-55-55.2c-0.9-0.9-1.4-2.1-1.4-3.4s0.5-2.5,1.4-3.4l55.1-55.1
			c0.9-0.9,2.1-1.4,3.4-1.4s2.5,0.5,3.4,1.4c1.9,1.9,1.9,4.9,0,6.8l-46.9,46.9h158.8C279,191.3,281.2,193.5,281.2,196.2z"/>
	</g>
</g>
</svg>
