<?xml version="1.0" encoding="iso-8859-1"?>
<!-- Generator: Adobe Illustrator 19.0.1, SVG Export Plug-In . SVG Version: 6.00 Build 0)  -->
<svg version="1.1" id="&#x421;&#x43B;&#x43E;&#x439;_1"
	 xmlns="http://www.w3.org/2000/svg" xmlns:xlink="http://www.w3.org/1999/xlink" x="0px" y="0px" viewBox="0 0 51.449 51.449"
	 style="enable-background:new 0 0 51.449 51.449;" xml:space="preserve">
<g>
	<defs>
		<rect id="SVGID_1_" y="0" width="51.449" height="51.449"/>
	</defs>
	<clipPath id="SVGID_2_">
		<use xlink:href="#SVGID_1_"  style="overflow:visible;"/>
	</clipPath>
	<linearGradient id="SVGID_3_" gradientUnits="userSpaceOnUse" x1="25.7271" y1="24.1245" x2="25.7271" y2="51.3245">
		<stop  offset="0" style="stop-color:#E0B894"/>
		<stop  offset="1" style="stop-color:#D18973"/>
	</linearGradient>
	<linearGradient id="SVGID_4_" gradientUnits="userSpaceOnUse" x1="17.2271" y1="37.7245" x2="34.6997" y2="37.7245">
		<stop  offset="0" style="stop-color:#E0B894"/>
		<stop  offset="1" style="stop-color:#D18973"/>
	</linearGradient>
	<path style="clip-path:url(#SVGID_2_);fill:url(#SVGID_3_);stroke:url(#SVGID_4_);stroke-miterlimit:10;" d="M32.125,41.833
		l-1.156-0.774c-0.27-0.18-0.617-0.18-0.887,0l-1.957,1.305l-1.957-1.305c-0.27-0.18-0.617-0.18-0.887,0l-1.957,1.305l-1.957-1.305
		c-0.265-0.18-0.617-0.18-0.887,0l-1.156,0.774V24.125h-1.597v19.2c0,0.215,0.086,0.418,0.234,0.566l7.199,7.199
		c0.156,0.157,0.36,0.235,0.567,0.235c0.203,0,0.406-0.078,0.562-0.235l7.203-7.199h-0.004c0.149-0.148,0.239-0.351,0.239-0.566
		v-15.2h-1.602V41.833z M20.926,42.687l1.957,1.306c0.265,0.179,0.617,0.179,0.887,0l1.957-1.306l1.953,1.306
		c0.269,0.179,0.621,0.179,0.886,0l1.957-1.306l1.145,0.763l-3.074,3.074h-5.739l-3.074-3.074L20.926,42.687z M25.727,49.395
		l-1.27-1.27h2.535L25.727,49.395z"/>
	<path style="clip-path:url(#SVGID_2_);fill:none;stroke:#FFFFFF;stroke-width:0.25;stroke-miterlimit:10;" d="M32.125,41.833
		l-1.156-0.774c-0.27-0.18-0.617-0.18-0.887,0l-1.957,1.305l-1.957-1.305c-0.27-0.18-0.617-0.18-0.887,0l-1.957,1.305l-1.957-1.305
		c-0.265-0.18-0.617-0.18-0.887,0l-1.156,0.774V24.125h-1.597v19.2c0,0.215,0.086,0.418,0.234,0.566l7.199,7.199
		c0.156,0.157,0.36,0.235,0.567,0.235c0.203,0,0.406-0.078,0.562-0.235l7.203-7.199h-0.004c0.149-0.148,0.239-0.351,0.239-0.566
		v-15.2h-1.602V41.833z M20.926,42.687l1.957,1.306c0.265,0.179,0.617,0.179,0.887,0l1.957-1.306l1.953,1.306
		c0.269,0.179,0.621,0.179,0.886,0l1.957-1.306l1.145,0.763l-3.074,3.074h-5.739l-3.074-3.074L20.926,42.687z M25.727,49.395
		l-1.27-1.27h2.535L25.727,49.395z M25.727,49.395L25.727,49.395z"/>
	<linearGradient id="SVGID_5_" gradientUnits="userSpaceOnUse" x1="10.6796" y1="13.7616" x2="10.6796" y2="22.8565">
		<stop  offset="0" style="stop-color:#E0B894"/>
		<stop  offset="1" style="stop-color:#D18973"/>
	</linearGradient>
	<path style="clip-path:url(#SVGID_2_);fill:url(#SVGID_5_);" d="M15.398,17.156c-0.093-0.293-0.343-0.504-0.644-0.547l-2.32-0.336
		l-1.036-2.101c-0.269-0.547-1.168-0.547-1.437,0l-1.035,2.101l-2.321,0.336c-0.3,0.047-0.55,0.254-0.644,0.547
		c-0.094,0.289-0.016,0.606,0.203,0.817l1.676,1.636l-0.395,2.313c-0.05,0.301,0.071,0.601,0.317,0.781
		c0.25,0.18,0.574,0.203,0.843,0.063l2.075-1.094l2.074,1.094c0.117,0.058,0.246,0.089,0.375,0.089c0.164,0,0.328-0.05,0.469-0.152
		c0.246-0.18,0.371-0.48,0.316-0.781l-0.394-2.313l1.679-1.636C15.414,17.762,15.492,17.445,15.398,17.156 M12.102,18.758
		c-0.188,0.183-0.274,0.449-0.231,0.707l0.192,1.129l-1.012-0.532c-0.117-0.062-0.242-0.093-0.371-0.093
		c-0.129,0-0.254,0.031-0.375,0.093l-1.012,0.532l0.195-1.129c0.043-0.258-0.043-0.524-0.23-0.707l-0.821-0.797l1.133-0.164
		c0.262-0.039,0.485-0.203,0.602-0.438l0.508-1.027l0.507,1.027c0.114,0.235,0.34,0.399,0.602,0.438l1.129,0.164L12.102,18.758z"/>
	<linearGradient id="SVGID_6_" gradientUnits="userSpaceOnUse" x1="5.7969" y1="18.309" x2="15.5624" y2="18.309">
		<stop  offset="0" style="stop-color:#E0B894"/>
		<stop  offset="1" style="stop-color:#D18973"/>
	</linearGradient>
	<path style="clip-path:url(#SVGID_2_);fill:none;stroke:url(#SVGID_6_);stroke-width:0.25;stroke-miterlimit:10;" d="
		M15.398,17.156c-0.093-0.293-0.343-0.504-0.644-0.547l-2.32-0.336l-1.036-2.101c-0.269-0.547-1.168-0.547-1.437,0l-1.035,2.101
		l-2.321,0.336c-0.3,0.047-0.55,0.254-0.644,0.547c-0.094,0.289-0.016,0.606,0.203,0.817l1.676,1.636l-0.395,2.313
		c-0.05,0.301,0.071,0.601,0.317,0.781c0.25,0.18,0.574,0.203,0.843,0.063l2.075-1.094l2.074,1.094
		c0.117,0.058,0.246,0.089,0.375,0.089c0.164,0,0.328-0.05,0.469-0.152c0.246-0.18,0.371-0.48,0.316-0.781l-0.394-2.313l1.679-1.636
		C15.414,17.762,15.492,17.445,15.398,17.156z M12.102,18.758c-0.188,0.183-0.274,0.449-0.231,0.707l0.192,1.129l-1.012-0.532
		c-0.117-0.062-0.242-0.093-0.371-0.093c-0.129,0-0.254,0.031-0.375,0.093l-1.012,0.532l0.195-1.129
		c0.043-0.258-0.043-0.524-0.23-0.707l-0.821-0.797l1.133-0.164c0.262-0.039,0.485-0.203,0.602-0.438l0.508-1.027l0.507,1.027
		c0.114,0.235,0.34,0.399,0.602,0.438l1.129,0.164L12.102,18.758z M12.102,18.758L12.102,18.758z"/>
	<linearGradient id="SVGID_7_" gradientUnits="userSpaceOnUse" x1="17.8376" y1="0.1599" x2="17.8376" y2="10.8561">
		<stop  offset="0" style="stop-color:#E0B894"/>
		<stop  offset="1" style="stop-color:#D18973"/>
	</linearGradient>
	<linearGradient id="SVGID_8_" gradientUnits="userSpaceOnUse" x1="11.7382" y1="5.508" x2="23.937" y2="5.508">
		<stop  offset="0" style="stop-color:#E0B894"/>
		<stop  offset="1" style="stop-color:#D18973"/>
	</linearGradient>
	<path style="clip-path:url(#SVGID_2_);fill:url(#SVGID_7_);stroke:url(#SVGID_8_);stroke-miterlimit:10;" d="M14.578,7.031
		l-0.496,2.891c-0.051,0.297,0.074,0.601,0.32,0.781c0.246,0.18,0.571,0.203,0.844,0.059l2.59-1.364l2.594,1.364
		c0.117,0.062,0.246,0.093,0.375,0.093c0.164,0,0.328-0.05,0.468-0.152c0.247-0.18,0.372-0.484,0.321-0.781l-0.496-2.891
		l2.097-2.047c0.219-0.211,0.297-0.531,0.203-0.82c-0.093-0.289-0.343-0.5-0.644-0.543l-2.902-0.422L18.555,0.57
		c-0.27-0.547-1.164-0.547-1.434,0l-1.297,2.629l-2.902,0.422c-0.301,0.043-0.551,0.254-0.645,0.543
		c-0.093,0.289-0.015,0.609,0.203,0.82L14.578,7.031z M16.469,4.723c0.261-0.039,0.488-0.203,0.605-0.438l0.766-1.551l0.765,1.551
		c0.118,0.235,0.34,0.399,0.602,0.438l1.711,0.25L19.68,6.18c-0.188,0.183-0.273,0.449-0.231,0.707l0.293,1.707l-1.531-0.805
		c-0.117-0.062-0.246-0.094-0.371-0.094c-0.129,0-0.258,0.032-0.375,0.094l-1.531,0.805l0.293-1.707
		c0.043-0.258-0.043-0.524-0.231-0.707l-1.238-1.207L16.469,4.723z"/>
	<linearGradient id="SVGID_9_" gradientUnits="userSpaceOnUse" x1="12.1132" y1="5.508" x2="23.562" y2="5.508">
		<stop  offset="0" style="stop-color:#E0B894"/>
		<stop  offset="1" style="stop-color:#D18973"/>
	</linearGradient>
	<path style="clip-path:url(#SVGID_2_);fill:none;stroke:url(#SVGID_9_);stroke-width:0.25;stroke-miterlimit:10;" d="M14.578,7.031
		l-0.496,2.891c-0.051,0.297,0.074,0.601,0.32,0.781c0.246,0.18,0.571,0.203,0.844,0.059l2.59-1.364l2.594,1.364
		c0.117,0.062,0.246,0.093,0.375,0.093c0.164,0,0.328-0.05,0.468-0.152c0.247-0.18,0.372-0.484,0.321-0.781l-0.496-2.891
		l2.097-2.047c0.219-0.211,0.297-0.531,0.203-0.82c-0.093-0.289-0.343-0.5-0.644-0.543l-2.902-0.422L18.555,0.57
		c-0.27-0.547-1.164-0.547-1.434,0l-1.297,2.629l-2.902,0.422c-0.301,0.043-0.551,0.254-0.645,0.543
		c-0.093,0.289-0.015,0.609,0.203,0.82L14.578,7.031z M16.469,4.723c0.261-0.039,0.488-0.203,0.605-0.438l0.766-1.551l0.765,1.551
		c0.118,0.235,0.34,0.399,0.602,0.438l1.711,0.25L19.68,6.18c-0.188,0.183-0.273,0.449-0.231,0.707l0.293,1.707l-1.531-0.805
		c-0.117-0.062-0.246-0.094-0.371-0.094c-0.129,0-0.258,0.032-0.375,0.094l-1.531,0.805l0.293-1.707
		c0.043-0.258-0.043-0.524-0.231-0.707l-1.238-1.207L16.469,4.723z M16.469,4.723L16.469,4.723z"/>
	<linearGradient id="SVGID_10_" gradientUnits="userSpaceOnUse" x1="32.2386" y1="2.391" x2="32.2386" y2="17.6531">
		<stop  offset="0" style="stop-color:#E0B894"/>
		<stop  offset="1" style="stop-color:#D18973"/>
	</linearGradient>
	<linearGradient id="SVGID_11_" gradientUnits="userSpaceOnUse" x1="23.7387" y1="10.0221" x2="40.7385" y2="10.0221">
		<stop  offset="0" style="stop-color:#E0B894"/>
		<stop  offset="1" style="stop-color:#D18973"/>
	</linearGradient>
	<path style="clip-path:url(#SVGID_2_);fill:url(#SVGID_10_);stroke:url(#SVGID_11_);stroke-miterlimit:10;" d="M36.699,12.176
		l3.297-3.215c0.219-0.215,0.297-0.531,0.203-0.82c-0.094-0.289-0.344-0.5-0.645-0.547l-4.558-0.66l-2.039-4.133
		c-0.27-0.547-1.168-0.547-1.438,0L29.48,6.934l-4.558,0.664c-0.301,0.043-0.551,0.254-0.645,0.543
		c-0.093,0.289-0.015,0.609,0.203,0.82l3.297,3.215L27,16.719c-0.051,0.297,0.07,0.601,0.316,0.781
		c0.25,0.18,0.574,0.203,0.844,0.059l4.078-2.141l4.078,2.141c0.117,0.062,0.246,0.093,0.37,0.093c0.169,0,0.333-0.05,0.474-0.152
		c0.246-0.18,0.367-0.484,0.316-0.781L36.699,12.176z M35.281,11.324c-0.191,0.184-0.277,0.449-0.23,0.707l0.574,3.36l-3.016-1.586
		c-0.117-0.063-0.242-0.094-0.371-0.094c-0.129,0-0.254,0.031-0.375,0.094l-3.012,1.586l0.575-3.36
		c0.043-0.258-0.043-0.523-0.231-0.707l-2.437-2.379l3.371-0.488c0.257-0.039,0.484-0.203,0.601-0.437l1.508-3.055l1.508,3.055
		c0.117,0.234,0.34,0.398,0.601,0.437l3.372,0.488L35.281,11.324z"/>
	<linearGradient id="SVGID_12_" gradientUnits="userSpaceOnUse" x1="24.1137" y1="10.0221" x2="40.3635" y2="10.0221">
		<stop  offset="0" style="stop-color:#E0B894"/>
		<stop  offset="1" style="stop-color:#D18973"/>
	</linearGradient>
	<path style="clip-path:url(#SVGID_2_);fill:none;stroke:url(#SVGID_12_);stroke-width:0.25;stroke-miterlimit:10;" d="
		M36.699,12.176l3.297-3.215c0.219-0.215,0.297-0.531,0.203-0.82c-0.094-0.289-0.344-0.5-0.645-0.547l-4.558-0.66l-2.039-4.133
		c-0.27-0.547-1.168-0.547-1.438,0L29.48,6.934l-4.558,0.664c-0.301,0.043-0.551,0.254-0.645,0.543
		c-0.093,0.289-0.015,0.609,0.203,0.82l3.297,3.215L27,16.719c-0.051,0.297,0.07,0.601,0.316,0.781
		c0.25,0.18,0.574,0.203,0.844,0.059l4.078-2.141l4.078,2.141c0.117,0.062,0.246,0.093,0.37,0.093c0.169,0,0.333-0.05,0.474-0.152
		c0.246-0.18,0.367-0.484,0.316-0.781L36.699,12.176z M35.281,11.324c-0.191,0.184-0.277,0.449-0.23,0.707l0.574,3.36l-3.016-1.586
		c-0.117-0.063-0.242-0.094-0.371-0.094c-0.129,0-0.254,0.031-0.375,0.094l-3.012,1.586l0.575-3.36
		c0.043-0.258-0.043-0.523-0.231-0.707l-2.437-2.379l3.371-0.488c0.257-0.039,0.484-0.203,0.601-0.437l1.508-3.055l1.508,3.055
		c0.117,0.234,0.34,0.398,0.601,0.437l3.372,0.488L35.281,11.324z M35.281,11.324L35.281,11.324z"/>
	<linearGradient id="SVGID_13_" gradientUnits="userSpaceOnUse" x1="42.1773" y1="18.5627" x2="42.1773" y2="26.8559">
		<stop  offset="0" style="stop-color:#E0B894"/>
		<stop  offset="1" style="stop-color:#D18973"/>
	</linearGradient>
	<linearGradient id="SVGID_14_" gradientUnits="userSpaceOnUse" x1="37.3389" y1="22.7093" x2="47.0157" y2="22.7093">
		<stop  offset="0" style="stop-color:#E0B894"/>
		<stop  offset="1" style="stop-color:#D18973"/>
	</linearGradient>
	<path style="clip-path:url(#SVGID_2_);fill:url(#SVGID_13_);stroke:url(#SVGID_14_);stroke-miterlimit:10;" d="M45.828,21.105
		l-2.027-0.296l-0.906-1.836c-0.27-0.547-1.168-0.547-1.434,0l-0.91,1.836l-2.027,0.296c-0.301,0.043-0.551,0.254-0.645,0.543
		c-0.094,0.289-0.019,0.61,0.199,0.821l1.469,1.429L39.2,25.922c-0.051,0.297,0.074,0.602,0.32,0.781
		c0.14,0.102,0.304,0.153,0.469,0.153c0.128,0,0.257-0.032,0.375-0.094l1.812-0.953l1.816,0.953c0.27,0.144,0.594,0.121,0.84-0.059
		c0.25-0.179,0.371-0.484,0.321-0.781l-0.348-2.024l1.469-1.429c0.218-0.215,0.297-0.532,0.203-0.821
		C46.383,21.359,46.133,21.148,45.828,21.105 M43.387,23.047c-0.187,0.183-0.273,0.449-0.23,0.707l0.144,0.84l-0.75-0.395
		c-0.117-0.062-0.246-0.094-0.375-0.094c-0.125,0-0.254,0.032-0.371,0.094l-0.75,0.395l0.141-0.84
		c0.046-0.258-0.039-0.524-0.227-0.707l-0.609-0.594l0.839-0.121c0.262-0.039,0.485-0.203,0.602-0.437l0.379-0.762l0.375,0.762
		c0.117,0.238,0.34,0.398,0.602,0.437l0.839,0.121L43.387,23.047z"/>
	<linearGradient id="SVGID_15_" gradientUnits="userSpaceOnUse" x1="37.7139" y1="22.7093" x2="46.6407" y2="22.7093">
		<stop  offset="0" style="stop-color:#E0B894"/>
		<stop  offset="1" style="stop-color:#D18973"/>
	</linearGradient>
	<path style="clip-path:url(#SVGID_2_);fill:none;stroke:url(#SVGID_15_);stroke-width:0.25;stroke-miterlimit:10;" d="
		M45.828,21.105l-2.027-0.296l-0.906-1.836c-0.27-0.547-1.168-0.547-1.434,0l-0.91,1.836l-2.027,0.296
		c-0.301,0.043-0.551,0.254-0.645,0.543c-0.094,0.289-0.019,0.61,0.199,0.821l1.469,1.429L39.2,25.922
		c-0.051,0.297,0.074,0.602,0.32,0.781c0.14,0.102,0.304,0.153,0.469,0.153c0.128,0,0.257-0.032,0.375-0.094l1.812-0.953
		l1.816,0.953c0.27,0.144,0.594,0.121,0.84-0.059c0.25-0.179,0.371-0.484,0.321-0.781l-0.348-2.024l1.469-1.429
		c0.218-0.215,0.297-0.532,0.203-0.821C46.383,21.359,46.133,21.148,45.828,21.105z M43.387,23.047
		c-0.187,0.183-0.273,0.449-0.23,0.707l0.144,0.84l-0.75-0.395c-0.117-0.062-0.246-0.094-0.375-0.094
		c-0.125,0-0.254,0.032-0.371,0.094l-0.75,0.395l0.141-0.84c0.046-0.258-0.039-0.524-0.227-0.707l-0.609-0.594l0.839-0.121
		c0.262-0.039,0.485-0.203,0.602-0.437l0.379-0.762l0.375,0.762c0.117,0.238,0.34,0.398,0.602,0.437l0.839,0.121L43.387,23.047z
		 M43.387,23.047L43.387,23.047z"/>
	<linearGradient id="SVGID_16_" gradientUnits="userSpaceOnUse" x1="20.1252" y1="19.3246" x2="20.1252" y2="29.7266">
		<stop  offset="0" style="stop-color:#E0B894"/>
		<stop  offset="1" style="stop-color:#D18973"/>
	</linearGradient>
	<path style="clip-path:url(#SVGID_2_);fill:url(#SVGID_16_);" d="M23.324,29.727h1.602c0-5.734-4.309-10.402-9.602-10.402v1.601
		C19.734,20.926,23.324,24.872,23.324,29.727"/>
	<linearGradient id="SVGID_17_" gradientUnits="userSpaceOnUse" x1="15.1992" y1="24.5256" x2="25.0512" y2="24.5256">
		<stop  offset="0" style="stop-color:#E0B894"/>
		<stop  offset="1" style="stop-color:#D18973"/>
	</linearGradient>
	<path style="clip-path:url(#SVGID_2_);fill:none;stroke:url(#SVGID_17_);stroke-width:0.25;stroke-miterlimit:10;" d="
		M23.324,29.727h1.602c0-5.734-4.309-10.402-9.602-10.402v1.601C19.734,20.926,23.324,24.872,23.324,29.727z M23.324,29.727
		L23.324,29.727z"/>
	<path style="clip-path:url(#SVGID_2_);fill:#222220;" d="M28.125,33.727h1.602c0-5.641,2.562-10.402,5.597-10.402v-1.598
		C31.289,21.727,28.125,26.997,28.125,33.727"/>
	<linearGradient id="SVGID_18_" gradientUnits="userSpaceOnUse" x1="31.7245" y1="21.7266" x2="31.7245" y2="33.7266">
		<stop  offset="0" style="stop-color:#E0B894"/>
		<stop  offset="1" style="stop-color:#D18973"/>
	</linearGradient>
	<linearGradient id="SVGID_19_" gradientUnits="userSpaceOnUse" x1="28" y1="27.7266" x2="35.449" y2="27.7266">
		<stop  offset="0" style="stop-color:#E0B894"/>
		<stop  offset="1" style="stop-color:#D18973"/>
	</linearGradient>
	<path style="clip-path:url(#SVGID_2_);fill:url(#SVGID_18_);stroke:url(#SVGID_19_);stroke-width:0.25;stroke-miterlimit:10;" d="
		M28.125,33.727h1.602c0-5.641,2.562-10.402,5.597-10.402v-1.598C31.289,21.727,28.125,26.997,28.125,33.727z M28.125,33.727
		L28.125,33.727z"/>
	<linearGradient id="SVGID_20_" gradientUnits="userSpaceOnUse" x1="23.7271" y1="15.324" x2="23.7271" y2="20.125">
		<stop  offset="0" style="stop-color:#E0B894"/>
		<stop  offset="1" style="stop-color:#D18973"/>
	</linearGradient>
	<path style="clip-path:url(#SVGID_2_);fill:url(#SVGID_20_);" d="M21.727,20.125h1.597c0-1.766,1.078-3.199,2.403-3.199v-1.602
		C23.52,15.324,21.727,17.477,21.727,20.125"/>
	<linearGradient id="SVGID_21_" gradientUnits="userSpaceOnUse" x1="21.6021" y1="17.7245" x2="25.8521" y2="17.7245">
		<stop  offset="0" style="stop-color:#E0B894"/>
		<stop  offset="1" style="stop-color:#D18973"/>
	</linearGradient>
	<path style="clip-path:url(#SVGID_2_);fill:none;stroke:url(#SVGID_21_);stroke-width:0.25;stroke-miterlimit:10;" d="
		M21.727,20.125h1.597c0-1.766,1.078-3.199,2.403-3.199v-1.602C23.52,15.324,21.727,17.477,21.727,20.125z M21.727,20.125
		L21.727,20.125z"/>
	<path style="clip-path:url(#SVGID_2_);fill:#222220;" d="M16.125,12.926c1.324,0,2.398,1.433,2.398,3.199h1.602
		c0-2.648-1.793-4.801-4-4.801V12.926z"/>
	<linearGradient id="SVGID_22_" gradientUnits="userSpaceOnUse" x1="18.125" y1="11.3238" x2="18.125" y2="16.1248">
		<stop  offset="0" style="stop-color:#E0B894"/>
		<stop  offset="1" style="stop-color:#D18973"/>
	</linearGradient>
	<linearGradient id="SVGID_23_" gradientUnits="userSpaceOnUse" x1="16" y1="13.7243" x2="20.25" y2="13.7243">
		<stop  offset="0" style="stop-color:#E0B894"/>
		<stop  offset="1" style="stop-color:#D18973"/>
	</linearGradient>
	<path style="clip-path:url(#SVGID_2_);fill:url(#SVGID_22_);stroke:url(#SVGID_23_);stroke-width:0.25;stroke-miterlimit:10;" d="
		M16.125,12.926c1.324,0,2.398,1.433,2.398,3.199h1.602c0-2.648-1.793-4.801-4-4.801V12.926z M16.125,12.926L16.125,12.926z"/>
	<linearGradient id="SVGID_24_" gradientUnits="userSpaceOnUse" x1="29.3263" y1="17.7272" x2="29.3263" y2="25.7262">
		<stop  offset="0" style="stop-color:#E0B894"/>
		<stop  offset="1" style="stop-color:#D18973"/>
	</linearGradient>
	<path style="clip-path:url(#SVGID_2_);fill:url(#SVGID_24_);" d="M32.926,19.324v-1.597c-3.973,0-7.199,3.585-7.199,7.999h1.597
		C27.324,22.195,29.836,19.324,32.926,19.324"/>
	<linearGradient id="SVGID_25_" gradientUnits="userSpaceOnUse" x1="25.6018" y1="21.7267" x2="33.0508" y2="21.7267">
		<stop  offset="0" style="stop-color:#E0B894"/>
		<stop  offset="1" style="stop-color:#D18973"/>
	</linearGradient>
	<path style="clip-path:url(#SVGID_2_);fill:none;stroke:url(#SVGID_25_);stroke-width:0.25;stroke-miterlimit:10;" d="
		M32.926,19.324v-1.597c-3.973,0-7.199,3.585-7.199,7.999h1.597C27.324,22.195,29.836,19.324,32.926,19.324z M32.926,19.324
		L32.926,19.324z"/>
	<linearGradient id="SVGID_26_" gradientUnits="userSpaceOnUse" x1="28.926" y1="35.324" x2="28.926" y2="36.926">
		<stop  offset="0" style="stop-color:#E0B894"/>
		<stop  offset="1" style="stop-color:#D18973"/>
	</linearGradient>
	<rect x="28.125" y="35.324" style="clip-path:url(#SVGID_2_);fill:url(#SVGID_26_);" width="1.602" height="1.602"/>
	<linearGradient id="SVGID_27_" gradientUnits="userSpaceOnUse" x1="28" y1="36.125" x2="29.852" y2="36.125">
		<stop  offset="0" style="stop-color:#E0B894"/>
		<stop  offset="1" style="stop-color:#D18973"/>
	</linearGradient>
	
		<rect x="28.125" y="35.324" style="clip-path:url(#SVGID_2_);fill:none;stroke:url(#SVGID_27_);stroke-width:0.25;stroke-miterlimit:10;" width="1.602" height="1.602"/>
	<linearGradient id="SVGID_28_" gradientUnits="userSpaceOnUse" x1="26.526" y1="27.324" x2="26.526" y2="28.926">
		<stop  offset="0" style="stop-color:#E0B894"/>
		<stop  offset="1" style="stop-color:#D18973"/>
	</linearGradient>
	<rect x="25.727" y="27.324" style="clip-path:url(#SVGID_2_);fill:url(#SVGID_28_);" width="1.598" height="1.602"/>
	<linearGradient id="SVGID_29_" gradientUnits="userSpaceOnUse" x1="25.602" y1="28.125" x2="27.45" y2="28.125">
		<stop  offset="0" style="stop-color:#E0B894"/>
		<stop  offset="1" style="stop-color:#D18973"/>
	</linearGradient>
	
		<rect x="25.727" y="27.324" style="clip-path:url(#SVGID_2_);fill:none;stroke:url(#SVGID_29_);stroke-width:0.25;stroke-miterlimit:10;" width="1.598" height="1.602"/>
	<linearGradient id="SVGID_30_" gradientUnits="userSpaceOnUse" x1="24.125" y1="31.324" x2="24.125" y2="32.926">
		<stop  offset="0" style="stop-color:#E0B894"/>
		<stop  offset="1" style="stop-color:#D18973"/>
	</linearGradient>
	<linearGradient id="SVGID_31_" gradientUnits="userSpaceOnUse" x1="22.824" y1="32.125" x2="25.426" y2="32.125">
		<stop  offset="0" style="stop-color:#E0B894"/>
		<stop  offset="1" style="stop-color:#D18973"/>
	</linearGradient>
	
		<rect x="23.324" y="31.324" style="clip-path:url(#SVGID_2_);fill:url(#SVGID_30_);stroke:url(#SVGID_31_);stroke-miterlimit:10;" width="1.602" height="1.602"/>
	<linearGradient id="SVGID_32_" gradientUnits="userSpaceOnUse" x1="23.199" y1="32.125" x2="25.051" y2="32.125">
		<stop  offset="0" style="stop-color:#E0B894"/>
		<stop  offset="1" style="stop-color:#D18973"/>
	</linearGradient>
	
		<rect x="23.324" y="31.324" style="clip-path:url(#SVGID_2_);fill:none;stroke:url(#SVGID_32_);stroke-width:0.25;stroke-miterlimit:10;" width="1.602" height="1.602"/>
	<rect x="23.324" y="34.523" style="clip-path:url(#SVGID_2_);fill:#222220;" width="1.602" height="1.602"/>
	<linearGradient id="SVGID_33_" gradientUnits="userSpaceOnUse" x1="24.125" y1="34.523" x2="24.125" y2="36.125">
		<stop  offset="0" style="stop-color:#E0B894"/>
		<stop  offset="1" style="stop-color:#D18973"/>
	</linearGradient>
	<linearGradient id="SVGID_34_" gradientUnits="userSpaceOnUse" x1="23.199" y1="35.324" x2="25.051" y2="35.324">
		<stop  offset="0" style="stop-color:#E0B894"/>
		<stop  offset="1" style="stop-color:#D18973"/>
	</linearGradient>
	
		<rect x="23.324" y="34.523" style="clip-path:url(#SVGID_2_);fill:url(#SVGID_33_);stroke:url(#SVGID_34_);stroke-width:0.25;stroke-miterlimit:10;" width="1.602" height="1.602"/>
	<rect x="23.324" y="37.727" style="clip-path:url(#SVGID_2_);fill:#222220;" width="1.602" height="1.599"/>
	<linearGradient id="SVGID_35_" gradientUnits="userSpaceOnUse" x1="24.125" y1="37.727" x2="24.125" y2="39.326">
		<stop  offset="0" style="stop-color:#E0B894"/>
		<stop  offset="1" style="stop-color:#D18973"/>
	</linearGradient>
	<linearGradient id="SVGID_36_" gradientUnits="userSpaceOnUse" x1="23.199" y1="38.5265" x2="25.051" y2="38.5265">
		<stop  offset="0" style="stop-color:#E0B894"/>
		<stop  offset="1" style="stop-color:#D18973"/>
	</linearGradient>
	
		<rect x="23.324" y="37.727" style="clip-path:url(#SVGID_2_);fill:url(#SVGID_35_);stroke:url(#SVGID_36_);stroke-width:0.25;stroke-miterlimit:10;" width="1.602" height="1.599"/>
	<linearGradient id="SVGID_37_" gradientUnits="userSpaceOnUse" x1="10.526" y1="24.125" x2="10.526" y2="25.727">
		<stop  offset="0" style="stop-color:#E0B894"/>
		<stop  offset="1" style="stop-color:#D18973"/>
	</linearGradient>
	<rect x="9.727" y="24.125" style="clip-path:url(#SVGID_2_);fill:url(#SVGID_37_);" width="1.598" height="1.602"/>
	<linearGradient id="SVGID_38_" gradientUnits="userSpaceOnUse" x1="9.602" y1="24.926" x2="11.45" y2="24.926">
		<stop  offset="0" style="stop-color:#E0B894"/>
		<stop  offset="1" style="stop-color:#D18973"/>
	</linearGradient>
	
		<rect x="9.727" y="24.125" style="clip-path:url(#SVGID_2_);fill:none;stroke:url(#SVGID_38_);stroke-width:0.25;stroke-miterlimit:10;" width="1.598" height="1.602"/>
	<linearGradient id="SVGID_39_" gradientUnits="userSpaceOnUse" x1="0.926" y1="12.926" x2="0.926" y2="14.524">
		<stop  offset="0" style="stop-color:#E0B894"/>
		<stop  offset="1" style="stop-color:#D18973"/>
	</linearGradient>
	<rect x="0.125" y="12.926" style="clip-path:url(#SVGID_2_);fill:url(#SVGID_39_);" width="1.602" height="1.598"/>
	<linearGradient id="SVGID_40_" gradientUnits="userSpaceOnUse" x1="0" y1="13.725" x2="1.852" y2="13.725">
		<stop  offset="0" style="stop-color:#E0B894"/>
		<stop  offset="1" style="stop-color:#D18973"/>
	</linearGradient>
	
		<rect x="0.125" y="12.926" style="clip-path:url(#SVGID_2_);fill:none;stroke:url(#SVGID_40_);stroke-width:0.25;stroke-miterlimit:10;" width="1.602" height="1.598"/>
	<rect x="6.523" y="9.727" style="clip-path:url(#SVGID_2_);fill:#222220;" width="1.602" height="1.598"/>
	<linearGradient id="SVGID_41_" gradientUnits="userSpaceOnUse" x1="7.324" y1="9.727" x2="7.324" y2="11.325">
		<stop  offset="0" style="stop-color:#E0B894"/>
		<stop  offset="1" style="stop-color:#D18973"/>
	</linearGradient>
	<linearGradient id="SVGID_42_" gradientUnits="userSpaceOnUse" x1="6.398" y1="10.526" x2="8.25" y2="10.526">
		<stop  offset="0" style="stop-color:#E0B894"/>
		<stop  offset="1" style="stop-color:#D18973"/>
	</linearGradient>
	
		<rect x="6.523" y="9.727" style="clip-path:url(#SVGID_2_);fill:url(#SVGID_41_);stroke:url(#SVGID_42_);stroke-width:0.25;stroke-miterlimit:10;" width="1.602" height="1.598"/>
	<linearGradient id="SVGID_43_" gradientUnits="userSpaceOnUse" x1="40.125" y1="13.727" x2="40.125" y2="15.325">
		<stop  offset="0" style="stop-color:#E0B894"/>
		<stop  offset="1" style="stop-color:#D18973"/>
	</linearGradient>
	<rect x="39.324" y="13.727" style="clip-path:url(#SVGID_2_);fill:url(#SVGID_43_);" width="1.602" height="1.598"/>
	<linearGradient id="SVGID_44_" gradientUnits="userSpaceOnUse" x1="39.199" y1="14.526" x2="41.051" y2="14.526">
		<stop  offset="0" style="stop-color:#E0B894"/>
		<stop  offset="1" style="stop-color:#D18973"/>
	</linearGradient>
	
		<rect x="39.324" y="13.727" style="clip-path:url(#SVGID_2_);fill:none;stroke:url(#SVGID_44_);stroke-width:0.25;stroke-miterlimit:10;" width="1.602" height="1.598"/>
	<linearGradient id="SVGID_45_" gradientUnits="userSpaceOnUse" x1="48.926" y1="8.125" x2="48.926" y2="9.727">
		<stop  offset="0" style="stop-color:#E0B894"/>
		<stop  offset="1" style="stop-color:#D18973"/>
	</linearGradient>
	<rect x="48.125" y="8.125" style="clip-path:url(#SVGID_2_);fill:url(#SVGID_45_);" width="1.602" height="1.602"/>
	<linearGradient id="SVGID_46_" gradientUnits="userSpaceOnUse" x1="48" y1="8.926" x2="49.852" y2="8.926">
		<stop  offset="0" style="stop-color:#E0B894"/>
		<stop  offset="1" style="stop-color:#D18973"/>
	</linearGradient>
	
		<rect x="48.125" y="8.125" style="clip-path:url(#SVGID_2_);fill:none;stroke:url(#SVGID_46_);stroke-width:0.25;stroke-miterlimit:10;" width="1.602" height="1.602"/>
	<linearGradient id="SVGID_47_" gradientUnits="userSpaceOnUse" x1="4.125" y1="4.125" x2="4.125" y2="5.727">
		<stop  offset="0" style="stop-color:#E0B894"/>
		<stop  offset="1" style="stop-color:#D18973"/>
	</linearGradient>
	<linearGradient id="SVGID_48_" gradientUnits="userSpaceOnUse" x1="2.824" y1="4.926" x2="5.426" y2="4.926">
		<stop  offset="0" style="stop-color:#E0B894"/>
		<stop  offset="1" style="stop-color:#D18973"/>
	</linearGradient>
	
		<rect x="3.324" y="4.125" style="clip-path:url(#SVGID_2_);fill:url(#SVGID_47_);stroke:url(#SVGID_48_);stroke-miterlimit:10;" width="1.602" height="1.602"/>
	<linearGradient id="SVGID_49_" gradientUnits="userSpaceOnUse" x1="3.199" y1="4.926" x2="5.051" y2="4.926">
		<stop  offset="0" style="stop-color:#E0B894"/>
		<stop  offset="1" style="stop-color:#D18973"/>
	</linearGradient>
	
		<rect x="3.324" y="4.125" style="clip-path:url(#SVGID_2_);fill:none;stroke:url(#SVGID_49_);stroke-width:0.25;stroke-miterlimit:10;" width="1.602" height="1.602"/>
	<linearGradient id="SVGID_50_" gradientUnits="userSpaceOnUse" x1="9.725" y1="3.324" x2="9.725" y2="4.926">
		<stop  offset="0" style="stop-color:#E0B894"/>
		<stop  offset="1" style="stop-color:#D18973"/>
	</linearGradient>
	<linearGradient id="SVGID_51_" gradientUnits="userSpaceOnUse" x1="8.426" y1="4.125" x2="11.024" y2="4.125">
		<stop  offset="0" style="stop-color:#E0B894"/>
		<stop  offset="1" style="stop-color:#D18973"/>
	</linearGradient>
	
		<rect x="8.926" y="3.324" style="clip-path:url(#SVGID_2_);fill:url(#SVGID_50_);stroke:url(#SVGID_51_);stroke-miterlimit:10;" width="1.598" height="1.602"/>
	<linearGradient id="SVGID_52_" gradientUnits="userSpaceOnUse" x1="8.801" y1="4.125" x2="10.649" y2="4.125">
		<stop  offset="0" style="stop-color:#E0B894"/>
		<stop  offset="1" style="stop-color:#D18973"/>
	</linearGradient>
	
		<rect x="8.926" y="3.324" style="clip-path:url(#SVGID_2_);fill:none;stroke:url(#SVGID_52_);stroke-width:0.25;stroke-miterlimit:10;" width="1.598" height="1.602"/>
	<linearGradient id="SVGID_53_" gradientUnits="userSpaceOnUse" x1="39.324" y1="2.523" x2="39.324" y2="4.125">
		<stop  offset="0" style="stop-color:#E0B894"/>
		<stop  offset="1" style="stop-color:#D18973"/>
	</linearGradient>
	<rect x="38.523" y="2.523" style="clip-path:url(#SVGID_2_);fill:url(#SVGID_53_);" width="1.602" height="1.602"/>
	<linearGradient id="SVGID_54_" gradientUnits="userSpaceOnUse" x1="38.398" y1="3.324" x2="40.25" y2="3.324">
		<stop  offset="0" style="stop-color:#E0B894"/>
		<stop  offset="1" style="stop-color:#D18973"/>
	</linearGradient>
	
		<rect x="38.523" y="2.523" style="clip-path:url(#SVGID_2_);fill:none;stroke:url(#SVGID_54_);stroke-width:0.25;stroke-miterlimit:10;" width="1.602" height="1.602"/>
	<linearGradient id="SVGID_55_" gradientUnits="userSpaceOnUse" x1="44.125" y1="8.926" x2="44.125" y2="10.524">
		<stop  offset="0" style="stop-color:#E0B894"/>
		<stop  offset="1" style="stop-color:#D18973"/>
	</linearGradient>
	<rect x="43.324" y="8.926" style="clip-path:url(#SVGID_2_);fill:url(#SVGID_55_);" width="1.602" height="1.598"/>
	<linearGradient id="SVGID_56_" gradientUnits="userSpaceOnUse" x1="43.199" y1="9.725" x2="45.051" y2="9.725">
		<stop  offset="0" style="stop-color:#E0B894"/>
		<stop  offset="1" style="stop-color:#D18973"/>
	</linearGradient>
	
		<rect x="43.324" y="8.926" style="clip-path:url(#SVGID_2_);fill:none;stroke:url(#SVGID_56_);stroke-width:0.25;stroke-miterlimit:10;" width="1.602" height="1.598"/>
	<polygon style="clip-path:url(#SVGID_2_);fill:#222220;" points="3.324,19.324 1.727,19.324 1.727,20.926 0.125,20.926 
		0.125,22.523 1.727,22.523 1.727,24.125 3.324,24.125 3.324,22.523 4.926,22.523 4.926,20.926 3.324,20.926 	"/>
	<linearGradient id="SVGID_57_" gradientUnits="userSpaceOnUse" x1="2.5257" y1="19.3242" x2="2.5257" y2="24.1252">
		<stop  offset="0" style="stop-color:#E0B894"/>
		<stop  offset="1" style="stop-color:#D18973"/>
	</linearGradient>
	<linearGradient id="SVGID_58_" gradientUnits="userSpaceOnUse" x1="2.000332e-004" y1="21.7247" x2="5.0512" y2="21.7247">
		<stop  offset="0" style="stop-color:#E0B894"/>
		<stop  offset="1" style="stop-color:#D18973"/>
	</linearGradient>
	<path style="clip-path:url(#SVGID_2_);fill:url(#SVGID_57_);stroke:url(#SVGID_58_);stroke-width:0.25;stroke-miterlimit:10;" d="
		M3.324,19.324H1.727v1.602H0.125v1.597h1.602v1.602h1.597v-1.602h1.602v-1.597H3.324V19.324z M3.324,19.324L3.324,19.324z"/>
	<linearGradient id="SVGID_59_" gradientUnits="userSpaceOnUse" x1="48.1253" y1="12.9258" x2="48.1253" y2="17.7268">
		<stop  offset="0" style="stop-color:#E0B894"/>
		<stop  offset="1" style="stop-color:#D18973"/>
	</linearGradient>
	<linearGradient id="SVGID_60_" gradientUnits="userSpaceOnUse" x1="45.2268" y1="15.3263" x2="51.0238" y2="15.3263">
		<stop  offset="0" style="stop-color:#E0B894"/>
		<stop  offset="1" style="stop-color:#D18973"/>
	</linearGradient>
	<polygon style="clip-path:url(#SVGID_2_);fill:url(#SVGID_59_);stroke:url(#SVGID_60_);stroke-miterlimit:10;" points="
		48.926,12.926 47.324,12.926 47.324,14.523 45.727,14.523 45.727,16.125 47.324,16.125 47.324,17.727 48.926,17.727 48.926,16.125 
		50.524,16.125 50.524,14.523 48.926,14.523 	"/>
	<linearGradient id="SVGID_61_" gradientUnits="userSpaceOnUse" x1="45.6018" y1="15.3263" x2="50.6488" y2="15.3263">
		<stop  offset="0" style="stop-color:#E0B894"/>
		<stop  offset="1" style="stop-color:#D18973"/>
	</linearGradient>
	<path style="clip-path:url(#SVGID_2_);fill:none;stroke:url(#SVGID_61_);stroke-width:0.25;stroke-miterlimit:10;" d="
		M48.926,12.926h-1.602v1.597h-1.597v1.602h1.597v1.602h1.602v-1.602h1.598v-1.602h-1.598V12.926z M48.926,12.926L48.926,12.926z"/>
	<linearGradient id="SVGID_62_" gradientUnits="userSpaceOnUse" x1="46.5238" y1="2.5257" x2="51.3238" y2="2.5257">
		<stop  offset="0" style="stop-color:#E0B894"/>
		<stop  offset="1" style="stop-color:#D18973"/>
	</linearGradient>
	<path style="clip-path:url(#SVGID_2_);fill:url(#SVGID_62_);" d="M48.926,0.125c-1.324,0-2.402,1.078-2.402,2.398
		c0,1.325,1.078,2.403,2.402,2.403c1.324,0,2.398-1.078,2.398-2.403C51.324,1.203,50.25,0.125,48.926,0.125 M48.926,3.324
		c-0.441,0-0.801-0.359-0.801-0.801c0-0.441,0.36-0.796,0.801-0.796c0.441,0,0.801,0.355,0.801,0.796
		C49.727,2.965,49.367,3.324,48.926,3.324"/>
	<linearGradient id="SVGID_63_" gradientUnits="userSpaceOnUse" x1="46.3988" y1="2.5257" x2="51.4488" y2="2.5257">
		<stop  offset="0" style="stop-color:#E0B894"/>
		<stop  offset="1" style="stop-color:#D18973"/>
	</linearGradient>
	<path style="clip-path:url(#SVGID_2_);fill:none;stroke:url(#SVGID_63_);stroke-width:0.25;stroke-miterlimit:10;" d="
		M48.926,0.125c-1.324,0-2.402,1.078-2.402,2.398c0,1.325,1.078,2.403,2.402,2.403c1.324,0,2.398-1.078,2.398-2.403
		C51.324,1.203,50.25,0.125,48.926,0.125z M48.926,3.324c-0.441,0-0.801-0.359-0.801-0.801c0-0.441,0.36-0.796,0.801-0.796
		c0.441,0,0.801,0.355,0.801,0.796C49.727,2.965,49.367,3.324,48.926,3.324z M48.926,3.324L48.926,3.324z"/>
</g>
</svg>
