<?xml version="1.0" encoding="iso-8859-1"?>
<!-- Generator: Adobe Illustrator 19.0.1, SVG Export Plug-In . SVG Version: 6.00 Build 0)  -->
<svg version="1.1" id="&#x421;&#x43B;&#x43E;&#x439;_1"
	 xmlns="http://www.w3.org/2000/svg" xmlns:xlink="http://www.w3.org/1999/xlink" x="0px" y="0px"
	 viewBox="-271 395.441 51.449 51.449" style="enable-background:new -271 395.441 51.449 51.449;" xml:space="preserve">
<g>
	<g>
		<defs>
			<rect id="SVGID_1_" x="-271" y="395.441" width="51.449" height="51.449"/>
		</defs>
		<clipPath id="SVGID_2_">
			<use xlink:href="#SVGID_1_"  style="overflow:visible;"/>
		</clipPath>
		<path style="clip-path:url(#SVGID_2_);fill:#FFFFFF;stroke:#FFFFFF;stroke-miterlimit:10;" d="M-238.875,437.274l-1.156-0.774
			c-0.27-0.18-0.617-0.18-0.887,0l-1.957,1.305l-1.957-1.305c-0.27-0.18-0.617-0.18-0.887,0l-1.957,1.305l-1.957-1.305
			c-0.265-0.18-0.617-0.18-0.887,0l-1.156,0.774v-17.708h-1.597v19.2c0,0.215,0.086,0.418,0.234,0.566l7.199,7.199
			c0.156,0.157,0.36,0.235,0.567,0.235c0.203,0,0.406-0.078,0.562-0.235l7.203-7.199h-0.004c0.149-0.148,0.239-0.351,0.239-0.566
			v-15.2h-1.602C-238.875,423.566-238.875,437.274-238.875,437.274z M-250.074,438.128l1.957,1.306c0.265,0.179,0.617,0.179,0.887,0
			l1.957-1.306l1.953,1.306c0.269,0.179,0.621,0.179,0.886,0l1.957-1.306l1.145,0.763l-3.074,3.074h-5.739l-3.074-3.074
			L-250.074,438.128z M-245.273,444.836l-1.27-1.27h2.535L-245.273,444.836z"/>
	</g>
	<g>
		<defs>
			<rect id="SVGID_3_" x="-271" y="395.441" width="51.449" height="51.449"/>
		</defs>
		<clipPath id="SVGID_4_">
			<use xlink:href="#SVGID_3_"  style="overflow:visible;"/>
		</clipPath>
	</g>
	<g>
		<defs>
			<rect id="SVGID_5_" x="-271" y="395.441" width="51.449" height="51.449"/>
		</defs>
		<clipPath id="SVGID_6_">
			<use xlink:href="#SVGID_5_"  style="overflow:visible;"/>
		</clipPath>
		<path style="clip-path:url(#SVGID_6_);fill:#FFFFFF;" d="M-255.602,412.597c-0.093-0.293-0.343-0.504-0.644-0.547l-2.32-0.336
			l-1.036-2.101c-0.269-0.547-1.168-0.547-1.437,0l-1.035,2.101l-2.321,0.336c-0.3,0.047-0.55,0.254-0.644,0.547
			c-0.094,0.289-0.016,0.606,0.203,0.817l1.676,1.636l-0.395,2.313c-0.05,0.301,0.071,0.601,0.317,0.781
			c0.25,0.18,0.574,0.203,0.843,0.063l2.075-1.094l2.074,1.094c0.117,0.058,0.246,0.089,0.375,0.089c0.164,0,0.328-0.05,0.469-0.152
			c0.246-0.18,0.371-0.48,0.316-0.781l-0.394-2.313l1.679-1.636C-255.586,413.203-255.508,412.886-255.602,412.597
			 M-258.898,414.199c-0.188,0.183-0.274,0.449-0.231,0.707l0.192,1.129l-1.012-0.532c-0.117-0.062-0.242-0.093-0.371-0.093
			s-0.254,0.031-0.375,0.093l-1.012,0.532l0.195-1.129c0.043-0.258-0.043-0.524-0.23-0.707l-0.821-0.797l1.133-0.164
			c0.262-0.039,0.485-0.203,0.602-0.438l0.508-1.027l0.507,1.027c0.114,0.235,0.34,0.399,0.602,0.438l1.129,0.164L-258.898,414.199z
			"/>
	</g>
	<g>
		<defs>
			<rect id="SVGID_7_" x="-271" y="395.441" width="51.449" height="51.449"/>
		</defs>
		<clipPath id="SVGID_8_">
			<use xlink:href="#SVGID_7_"  style="overflow:visible;"/>
		</clipPath>
		<path style="clip-path:url(#SVGID_8_);fill:none;stroke:#FFFFFF;stroke-width:0.25;stroke-miterlimit:10;" d="M-255.602,412.597
			c-0.093-0.293-0.343-0.504-0.644-0.547l-2.32-0.336l-1.036-2.101c-0.269-0.547-1.168-0.547-1.437,0l-1.035,2.101l-2.321,0.336
			c-0.3,0.047-0.55,0.254-0.644,0.547c-0.094,0.289-0.016,0.606,0.203,0.817l1.676,1.636l-0.395,2.313
			c-0.05,0.301,0.071,0.601,0.317,0.781c0.25,0.18,0.574,0.203,0.843,0.063l2.075-1.094l2.074,1.094
			c0.117,0.058,0.246,0.089,0.375,0.089c0.164,0,0.328-0.05,0.469-0.152c0.246-0.18,0.371-0.48,0.316-0.781l-0.394-2.313
			l1.679-1.636C-255.586,413.203-255.508,412.886-255.602,412.597z M-258.898,414.199c-0.188,0.183-0.274,0.449-0.231,0.707
			l0.192,1.129l-1.012-0.532c-0.117-0.062-0.242-0.093-0.371-0.093s-0.254,0.031-0.375,0.093l-1.012,0.532l0.195-1.129
			c0.043-0.258-0.043-0.524-0.23-0.707l-0.821-0.797l1.133-0.164c0.262-0.039,0.485-0.203,0.602-0.438l0.508-1.027l0.507,1.027
			c0.114,0.235,0.34,0.399,0.602,0.438l1.129,0.164L-258.898,414.199z M-258.898,414.199L-258.898,414.199z"/>
	</g>
	<g>
		<defs>
			<rect id="SVGID_9_" x="-271" y="395.441" width="51.449" height="51.449"/>
		</defs>
		<clipPath id="SVGID_10_">
			<use xlink:href="#SVGID_9_"  style="overflow:visible;"/>
		</clipPath>
		<path style="clip-path:url(#SVGID_10_);fill:#FFFFFF;stroke:#FFFFFF;stroke-miterlimit:10;" d="M-256.422,402.472l-0.496,2.891
			c-0.051,0.297,0.074,0.601,0.32,0.781c0.246,0.18,0.571,0.203,0.844,0.059l2.59-1.364l2.594,1.364
			c0.117,0.062,0.246,0.093,0.375,0.093c0.164,0,0.328-0.05,0.468-0.152c0.247-0.18,0.372-0.484,0.321-0.781l-0.496-2.891
			l2.097-2.047c0.219-0.211,0.297-0.531,0.203-0.82c-0.093-0.289-0.343-0.5-0.644-0.543l-2.902-0.422l-1.297-2.629
			c-0.27-0.547-1.164-0.547-1.434,0l-1.297,2.629l-2.902,0.422c-0.301,0.043-0.551,0.254-0.645,0.543
			c-0.093,0.289-0.015,0.609,0.203,0.82L-256.422,402.472z M-254.531,400.164c0.261-0.039,0.488-0.203,0.605-0.438l0.766-1.551
			l0.765,1.551c0.118,0.235,0.34,0.399,0.602,0.438l1.711,0.25l-1.238,1.207c-0.188,0.183-0.273,0.449-0.231,0.707l0.293,1.707
			l-1.531-0.805c-0.117-0.062-0.246-0.094-0.371-0.094c-0.129,0-0.258,0.032-0.375,0.094l-1.531,0.805l0.293-1.707
			c0.043-0.258-0.043-0.524-0.231-0.707l-1.238-1.207L-254.531,400.164z"/>
	</g>
	<g>
		<defs>
			<rect id="SVGID_11_" x="-271" y="395.441" width="51.449" height="51.449"/>
		</defs>
		<clipPath id="SVGID_12_">
			<use xlink:href="#SVGID_11_"  style="overflow:visible;"/>
		</clipPath>
		<path style="clip-path:url(#SVGID_12_);fill:none;stroke:#FFFFFF;stroke-width:0.25;stroke-miterlimit:10;" d="M-256.422,402.472
			l-0.496,2.891c-0.051,0.297,0.074,0.601,0.32,0.781c0.246,0.18,0.571,0.203,0.844,0.059l2.59-1.364l2.594,1.364
			c0.117,0.062,0.246,0.093,0.375,0.093c0.164,0,0.328-0.05,0.468-0.152c0.247-0.18,0.372-0.484,0.321-0.781l-0.496-2.891
			l2.097-2.047c0.219-0.211,0.297-0.531,0.203-0.82c-0.093-0.289-0.343-0.5-0.644-0.543l-2.902-0.422l-1.297-2.629
			c-0.27-0.547-1.164-0.547-1.434,0l-1.297,2.629l-2.902,0.422c-0.301,0.043-0.551,0.254-0.645,0.543
			c-0.093,0.289-0.015,0.609,0.203,0.82L-256.422,402.472z M-254.531,400.164c0.261-0.039,0.488-0.203,0.605-0.438l0.766-1.551
			l0.765,1.551c0.118,0.235,0.34,0.399,0.602,0.438l1.711,0.25l-1.238,1.207c-0.188,0.183-0.273,0.449-0.231,0.707l0.293,1.707
			l-1.531-0.805c-0.117-0.062-0.246-0.094-0.371-0.094c-0.129,0-0.258,0.032-0.375,0.094l-1.531,0.805l0.293-1.707
			c0.043-0.258-0.043-0.524-0.231-0.707l-1.238-1.207L-254.531,400.164z M-254.531,400.164L-254.531,400.164z"/>
	</g>
	<g>
		<defs>
			<rect id="SVGID_13_" x="-271" y="395.441" width="51.449" height="51.449"/>
		</defs>
		<clipPath id="SVGID_14_">
			<use xlink:href="#SVGID_13_"  style="overflow:visible;"/>
		</clipPath>
		<path style="clip-path:url(#SVGID_14_);fill:#FFFFFF;stroke:#FFFFFF;stroke-miterlimit:10;" d="M-234.301,407.617l3.297-3.215
			c0.219-0.215,0.297-0.531,0.203-0.82c-0.094-0.289-0.344-0.5-0.645-0.547l-4.558-0.66l-2.039-4.133
			c-0.27-0.547-1.168-0.547-1.438,0l-2.039,4.133l-4.558,0.664c-0.301,0.043-0.551,0.254-0.645,0.543
			c-0.093,0.289-0.015,0.609,0.203,0.82l3.297,3.215L-244,412.16c-0.051,0.297,0.07,0.601,0.316,0.781
			c0.25,0.18,0.574,0.203,0.844,0.059l4.078-2.141l4.078,2.141c0.117,0.062,0.246,0.093,0.37,0.093c0.169,0,0.333-0.05,0.474-0.152
			c0.246-0.18,0.367-0.484,0.316-0.781L-234.301,407.617z M-235.719,406.765c-0.191,0.184-0.277,0.449-0.23,0.707l0.574,3.36
			l-3.016-1.586c-0.117-0.063-0.242-0.094-0.371-0.094s-0.254,0.031-0.375,0.094l-3.012,1.586l0.575-3.36
			c0.043-0.258-0.043-0.523-0.231-0.707l-2.437-2.379l3.371-0.488c0.257-0.039,0.484-0.203,0.601-0.437l1.508-3.055l1.508,3.055
			c0.117,0.234,0.34,0.398,0.601,0.437l3.372,0.488L-235.719,406.765z"/>
	</g>
	<g>
		<defs>
			<rect id="SVGID_15_" x="-271" y="395.441" width="51.449" height="51.449"/>
		</defs>
		<clipPath id="SVGID_16_">
			<use xlink:href="#SVGID_15_"  style="overflow:visible;"/>
		</clipPath>
		<path style="clip-path:url(#SVGID_16_);fill:none;stroke:#FFFFFF;stroke-width:0.25;stroke-miterlimit:10;" d="M-234.301,407.617
			l3.297-3.215c0.219-0.215,0.297-0.531,0.203-0.82c-0.094-0.289-0.344-0.5-0.645-0.547l-4.558-0.66l-2.039-4.133
			c-0.27-0.547-1.168-0.547-1.438,0l-2.039,4.133l-4.558,0.664c-0.301,0.043-0.551,0.254-0.645,0.543
			c-0.093,0.289-0.015,0.609,0.203,0.82l3.297,3.215L-244,412.16c-0.051,0.297,0.07,0.601,0.316,0.781
			c0.25,0.18,0.574,0.203,0.844,0.059l4.078-2.141l4.078,2.141c0.117,0.062,0.246,0.093,0.37,0.093c0.169,0,0.333-0.05,0.474-0.152
			c0.246-0.18,0.367-0.484,0.316-0.781L-234.301,407.617z M-235.719,406.765c-0.191,0.184-0.277,0.449-0.23,0.707l0.574,3.36
			l-3.016-1.586c-0.117-0.063-0.242-0.094-0.371-0.094s-0.254,0.031-0.375,0.094l-3.012,1.586l0.575-3.36
			c0.043-0.258-0.043-0.523-0.231-0.707l-2.437-2.379l3.371-0.488c0.257-0.039,0.484-0.203,0.601-0.437l1.508-3.055l1.508,3.055
			c0.117,0.234,0.34,0.398,0.601,0.437l3.372,0.488L-235.719,406.765z M-235.719,406.765L-235.719,406.765z"/>
	</g>
	<g>
		<defs>
			<rect id="SVGID_17_" x="-271" y="395.441" width="51.449" height="51.449"/>
		</defs>
		<clipPath id="SVGID_18_">
			<use xlink:href="#SVGID_17_"  style="overflow:visible;"/>
		</clipPath>
		<path style="clip-path:url(#SVGID_18_);fill:#FFFFFF;stroke:#FFFFFF;stroke-miterlimit:10;" d="M-225.172,416.546l-2.027-0.296
			l-0.906-1.836c-0.27-0.547-1.168-0.547-1.434,0l-0.91,1.836l-2.027,0.296c-0.301,0.043-0.551,0.254-0.645,0.543
			s-0.019,0.61,0.199,0.821l1.469,1.429l-0.347,2.024c-0.051,0.297,0.074,0.602,0.32,0.781c0.14,0.102,0.304,0.153,0.469,0.153
			c0.128,0,0.257-0.032,0.375-0.094l1.812-0.953l1.816,0.953c0.27,0.144,0.594,0.121,0.84-0.059c0.25-0.179,0.371-0.484,0.321-0.781
			l-0.348-2.024l1.469-1.429c0.218-0.215,0.297-0.532,0.203-0.821S-224.867,416.589-225.172,416.546 M-227.613,418.488
			c-0.187,0.183-0.273,0.449-0.23,0.707l0.144,0.84l-0.75-0.395c-0.117-0.062-0.246-0.094-0.375-0.094
			c-0.125,0-0.254,0.032-0.371,0.094l-0.75,0.395l0.141-0.84c0.046-0.258-0.039-0.524-0.227-0.707l-0.609-0.594l0.839-0.121
			c0.262-0.039,0.485-0.203,0.602-0.437l0.379-0.762l0.375,0.762c0.117,0.238,0.34,0.398,0.602,0.437l0.839,0.121L-227.613,418.488z
			"/>
	</g>
	<g>
		<defs>
			<rect id="SVGID_19_" x="-271" y="395.441" width="51.449" height="51.449"/>
		</defs>
		<clipPath id="SVGID_20_">
			<use xlink:href="#SVGID_19_"  style="overflow:visible;"/>
		</clipPath>
		<path style="clip-path:url(#SVGID_20_);fill:none;stroke:#FFFFFF;stroke-width:0.25;stroke-miterlimit:10;" d="M-225.172,416.546
			l-2.027-0.296l-0.906-1.836c-0.27-0.547-1.168-0.547-1.434,0l-0.91,1.836l-2.027,0.296c-0.301,0.043-0.551,0.254-0.645,0.543
			s-0.019,0.61,0.199,0.821l1.469,1.429l-0.347,2.024c-0.051,0.297,0.074,0.602,0.32,0.781c0.14,0.102,0.304,0.153,0.469,0.153
			c0.128,0,0.257-0.032,0.375-0.094l1.812-0.953l1.816,0.953c0.27,0.144,0.594,0.121,0.84-0.059c0.25-0.179,0.371-0.484,0.321-0.781
			l-0.348-2.024l1.469-1.429c0.218-0.215,0.297-0.532,0.203-0.821S-224.867,416.589-225.172,416.546z M-227.613,418.488
			c-0.187,0.183-0.273,0.449-0.23,0.707l0.144,0.84l-0.75-0.395c-0.117-0.062-0.246-0.094-0.375-0.094
			c-0.125,0-0.254,0.032-0.371,0.094l-0.75,0.395l0.141-0.84c0.046-0.258-0.039-0.524-0.227-0.707l-0.609-0.594l0.839-0.121
			c0.262-0.039,0.485-0.203,0.602-0.437l0.379-0.762l0.375,0.762c0.117,0.238,0.34,0.398,0.602,0.437l0.839,0.121L-227.613,418.488z
			 M-227.613,418.488L-227.613,418.488z"/>
	</g>
	<g>
		<defs>
			<rect id="SVGID_21_" x="-271" y="395.441" width="51.449" height="51.449"/>
		</defs>
		<clipPath id="SVGID_22_">
			<use xlink:href="#SVGID_21_"  style="overflow:visible;"/>
		</clipPath>
		<path style="clip-path:url(#SVGID_22_);fill:#FFFFFF;" d="M-247.676,425.168h1.602c0-5.734-4.309-10.402-9.602-10.402v1.601
			C-251.266,416.367-247.676,420.313-247.676,425.168"/>
	</g>
	<g>
		<defs>
			<rect id="SVGID_23_" x="-271" y="395.441" width="51.449" height="51.449"/>
		</defs>
		<clipPath id="SVGID_24_">
			<use xlink:href="#SVGID_23_"  style="overflow:visible;"/>
		</clipPath>
		<path style="clip-path:url(#SVGID_24_);fill:none;stroke:#FFFFFF;stroke-width:0.25;stroke-miterlimit:10;" d="M-247.676,425.168
			h1.602c0-5.734-4.309-10.402-9.602-10.402v1.601C-251.266,416.367-247.676,420.313-247.676,425.168z M-247.676,425.168
			L-247.676,425.168z"/>
	</g>
	<g>
		<defs>
			<rect id="SVGID_25_" x="-271" y="395.441" width="51.449" height="51.449"/>
		</defs>
		<clipPath id="SVGID_26_">
			<use xlink:href="#SVGID_25_"  style="overflow:visible;"/>
		</clipPath>
		<path style="clip-path:url(#SVGID_26_);fill:#222220;" d="M-242.875,429.168h1.602c0-5.641,2.562-10.402,5.597-10.402v-1.598
			C-239.711,417.168-242.875,422.438-242.875,429.168"/>
	</g>
	<g>
		<defs>
			<rect id="SVGID_27_" x="-271" y="395.441" width="51.449" height="51.449"/>
		</defs>
		<clipPath id="SVGID_28_">
			<use xlink:href="#SVGID_27_"  style="overflow:visible;"/>
		</clipPath>
		<path style="clip-path:url(#SVGID_28_);fill:#FFFFFF;stroke:#FFFFFF;stroke-width:0.25;stroke-miterlimit:10;" d="
			M-242.875,429.168h1.602c0-5.641,2.562-10.402,5.597-10.402v-1.598C-239.711,417.168-242.875,422.438-242.875,429.168z
			 M-242.875,429.168L-242.875,429.168z"/>
	</g>
	<g>
		<defs>
			<rect id="SVGID_29_" x="-271" y="395.441" width="51.449" height="51.449"/>
		</defs>
		<clipPath id="SVGID_30_">
			<use xlink:href="#SVGID_29_"  style="overflow:visible;"/>
		</clipPath>
		<path style="clip-path:url(#SVGID_30_);fill:#FFFFFF;" d="M-249.273,415.566h1.597c0-1.766,1.078-3.199,2.403-3.199v-1.602
			C-247.48,410.765-249.273,412.918-249.273,415.566"/>
	</g>
	<g>
		<defs>
			<rect id="SVGID_31_" x="-271" y="395.441" width="51.449" height="51.449"/>
		</defs>
		<clipPath id="SVGID_32_">
			<use xlink:href="#SVGID_31_"  style="overflow:visible;"/>
		</clipPath>
		<path style="clip-path:url(#SVGID_32_);fill:none;stroke:#FFFFFF;stroke-width:0.25;stroke-miterlimit:10;" d="M-249.273,415.566
			h1.597c0-1.766,1.078-3.199,2.403-3.199v-1.602C-247.48,410.765-249.273,412.918-249.273,415.566z M-249.273,415.566
			L-249.273,415.566z"/>
	</g>
	<g>
		<defs>
			<rect id="SVGID_33_" x="-271" y="395.441" width="51.449" height="51.449"/>
		</defs>
		<clipPath id="SVGID_34_">
			<use xlink:href="#SVGID_33_"  style="overflow:visible;"/>
		</clipPath>
		<path style="clip-path:url(#SVGID_34_);fill:#222220;" d="M-254.875,408.367c1.324,0,2.398,1.433,2.398,3.199h1.602
			c0-2.648-1.793-4.801-4-4.801V408.367z"/>
	</g>
	<g>
		<defs>
			<rect id="SVGID_35_" x="-271" y="395.441" width="51.449" height="51.449"/>
		</defs>
		<clipPath id="SVGID_36_">
			<use xlink:href="#SVGID_35_"  style="overflow:visible;"/>
		</clipPath>
		<path style="clip-path:url(#SVGID_36_);fill:#FFFFFF;stroke:#FFFFFF;stroke-width:0.25;stroke-miterlimit:10;" d="
			M-254.875,408.367c1.324,0,2.398,1.433,2.398,3.199h1.602c0-2.648-1.793-4.801-4-4.801V408.367z M-254.875,408.367
			L-254.875,408.367z"/>
	</g>
	<g>
		<defs>
			<rect id="SVGID_37_" x="-271" y="395.441" width="51.449" height="51.449"/>
		</defs>
		<clipPath id="SVGID_38_">
			<use xlink:href="#SVGID_37_"  style="overflow:visible;"/>
		</clipPath>
		
			<linearGradient id="SVGID_39_" gradientUnits="userSpaceOnUse" x1="-241.6735" y1="429.604" x2="-241.6735" y2="421.605" gradientTransform="matrix(1 0 0 -1 0 842.772)">
			<stop  offset="0" style="stop-color:#E0B894"/>
			<stop  offset="1" style="stop-color:#D18973"/>
		</linearGradient>
		<path style="clip-path:url(#SVGID_38_);fill:url(#SVGID_39_);" d="M-238.074,414.765v-1.597c-3.973,0-7.199,3.585-7.199,7.999
			h1.597C-243.676,417.636-241.164,414.765-238.074,414.765"/>
	</g>
	<g>
		<defs>
			<rect id="SVGID_40_" x="-271" y="395.441" width="51.449" height="51.449"/>
		</defs>
		<clipPath id="SVGID_41_">
			<use xlink:href="#SVGID_40_"  style="overflow:visible;"/>
		</clipPath>
		<path style="clip-path:url(#SVGID_41_);fill:#FFFFFF;stroke:#FFFFFF;stroke-width:0.25;stroke-miterlimit:10;" d="
			M-238.074,414.765v-1.597c-3.973,0-7.199,3.585-7.199,7.999h1.597C-243.676,417.636-241.164,414.765-238.074,414.765z
			 M-238.074,414.765L-238.074,414.765z"/>
	</g>
	<g>
		<defs>
			<rect id="SVGID_42_" x="-271" y="395.441" width="51.449" height="51.449"/>
		</defs>
		<clipPath id="SVGID_43_">
			<use xlink:href="#SVGID_42_"  style="overflow:visible;"/>
		</clipPath>
		
			<linearGradient id="SVGID_44_" gradientUnits="userSpaceOnUse" x1="-242.074" y1="412.007" x2="-242.074" y2="410.405" gradientTransform="matrix(1 0 0 -1 0 842.772)">
			<stop  offset="0" style="stop-color:#E0B894"/>
			<stop  offset="1" style="stop-color:#D18973"/>
		</linearGradient>
		<rect x="-242.875" y="430.765" style="clip-path:url(#SVGID_43_);fill:url(#SVGID_44_);" width="1.602" height="1.602"/>
	</g>
	<g>
		<defs>
			<rect id="SVGID_45_" x="-271" y="395.441" width="51.449" height="51.449"/>
		</defs>
		<clipPath id="SVGID_46_">
			<use xlink:href="#SVGID_45_"  style="overflow:visible;"/>
		</clipPath>
		
			<rect x="-242.875" y="430.765" style="clip-path:url(#SVGID_46_);fill:#FFFFFF;stroke:#FFFFFF;stroke-width:0.25;stroke-miterlimit:10;" width="1.602" height="1.602"/>
	</g>
	<g>
		<defs>
			<rect id="SVGID_47_" x="-271" y="395.441" width="51.449" height="51.449"/>
		</defs>
		<clipPath id="SVGID_48_">
			<use xlink:href="#SVGID_47_"  style="overflow:visible;"/>
		</clipPath>
		
			<linearGradient id="SVGID_49_" gradientUnits="userSpaceOnUse" x1="-244.474" y1="420.007" x2="-244.474" y2="418.405" gradientTransform="matrix(1 0 0 -1 0 842.772)">
			<stop  offset="0" style="stop-color:#E0B894"/>
			<stop  offset="1" style="stop-color:#D18973"/>
		</linearGradient>
		<rect x="-245.273" y="422.765" style="clip-path:url(#SVGID_48_);fill:url(#SVGID_49_);" width="1.598" height="1.602"/>
	</g>
	<g>
		<defs>
			<rect id="SVGID_50_" x="-271" y="395.441" width="51.449" height="51.449"/>
		</defs>
		<clipPath id="SVGID_51_">
			<use xlink:href="#SVGID_50_"  style="overflow:visible;"/>
		</clipPath>
		
			<rect x="-245.273" y="422.765" style="clip-path:url(#SVGID_51_);fill:#FFFFFF;stroke:#FFFFFF;stroke-width:0.25;stroke-miterlimit:10;" width="1.598" height="1.602"/>
	</g>
	<g>
		<defs>
			<rect id="SVGID_52_" x="-271" y="395.441" width="51.449" height="51.449"/>
		</defs>
		<clipPath id="SVGID_53_">
			<use xlink:href="#SVGID_52_"  style="overflow:visible;"/>
		</clipPath>
		
			<rect x="-247.676" y="426.765" style="clip-path:url(#SVGID_53_);fill:#FFFFFF;stroke:#FFFFFF;stroke-miterlimit:10;" width="1.602" height="1.602"/>
	</g>
	<g>
		<defs>
			<rect id="SVGID_54_" x="-271" y="395.441" width="51.449" height="51.449"/>
		</defs>
		<clipPath id="SVGID_55_">
			<use xlink:href="#SVGID_54_"  style="overflow:visible;"/>
		</clipPath>
		<path style="clip-path:url(#SVGID_55_);fill:#FFFFFF;stroke:#FFFFFF;stroke-width:0.25;stroke-miterlimit:10;" d="
			M-243.792,426.765L-243.792,426.765c0.442,0,0.801,0.359,0.801,0.801v0c0,0.442-0.359,0.801-0.801,0.801l0,0
			c-0.442,0-0.801-0.359-0.801-0.801v0C-244.593,427.124-244.234,426.765-243.792,426.765z"/>
	</g>
	<g>
		<defs>
			<rect id="SVGID_56_" x="-271" y="395.441" width="51.449" height="51.449"/>
		</defs>
		<clipPath id="SVGID_57_">
			<use xlink:href="#SVGID_56_"  style="overflow:visible;"/>
		</clipPath>
		<rect x="-247.676" y="429.964" style="clip-path:url(#SVGID_57_);fill:#222220;" width="1.602" height="1.602"/>
	</g>
	<g>
		<defs>
			<rect id="SVGID_58_" x="-271" y="395.441" width="51.449" height="51.449"/>
		</defs>
		<clipPath id="SVGID_59_">
			<use xlink:href="#SVGID_58_"  style="overflow:visible;"/>
		</clipPath>
		
			<rect x="-247.676" y="429.964" style="clip-path:url(#SVGID_59_);fill:#FFFFFF;stroke:#FFFFFF;stroke-width:0.25;stroke-miterlimit:10;" width="1.602" height="1.602"/>
	</g>
	<g>
		<defs>
			<rect id="SVGID_60_" x="-271" y="395.441" width="51.449" height="51.449"/>
		</defs>
		<clipPath id="SVGID_61_">
			<use xlink:href="#SVGID_60_"  style="overflow:visible;"/>
		</clipPath>
		<rect x="-247.676" y="433.168" style="clip-path:url(#SVGID_61_);fill:#222220;" width="1.602" height="1.599"/>
	</g>
	<g>
		<defs>
			<rect id="SVGID_62_" x="-271" y="395.441" width="51.449" height="51.449"/>
		</defs>
		<clipPath id="SVGID_63_">
			<use xlink:href="#SVGID_62_"  style="overflow:visible;"/>
		</clipPath>
		
			<rect x="-247.676" y="433.168" style="clip-path:url(#SVGID_63_);fill:#FFFFFF;stroke:#FFFFFF;stroke-width:0.25;stroke-miterlimit:10;" width="1.602" height="1.599"/>
	</g>
	<g>
		<defs>
			<rect id="SVGID_64_" x="-271" y="395.441" width="51.449" height="51.449"/>
		</defs>
		<clipPath id="SVGID_65_">
			<use xlink:href="#SVGID_64_"  style="overflow:visible;"/>
		</clipPath>
		<rect x="-261.273" y="419.566" style="clip-path:url(#SVGID_65_);fill:#FFFFFF;" width="1.598" height="1.602"/>
	</g>
	<g>
		<defs>
			<rect id="SVGID_66_" x="-271" y="395.441" width="51.449" height="51.449"/>
		</defs>
		<clipPath id="SVGID_67_">
			<use xlink:href="#SVGID_66_"  style="overflow:visible;"/>
		</clipPath>
	</g>
	<g>
		<defs>
			<rect id="SVGID_68_" x="-271" y="395.441" width="51.449" height="51.449"/>
		</defs>
		<clipPath id="SVGID_69_">
			<use xlink:href="#SVGID_68_"  style="overflow:visible;"/>
		</clipPath>
		
			<linearGradient id="SVGID_70_" gradientUnits="userSpaceOnUse" x1="-270.074" y1="434.405" x2="-270.074" y2="432.807" gradientTransform="matrix(1 0 0 -1 0 842.772)">
			<stop  offset="0" style="stop-color:#E0B894"/>
			<stop  offset="1" style="stop-color:#D18973"/>
		</linearGradient>
		<rect x="-270.875" y="408.367" style="clip-path:url(#SVGID_69_);fill:url(#SVGID_70_);" width="1.602" height="1.598"/>
	</g>
	<g>
		<defs>
			<rect id="SVGID_71_" x="-271" y="395.441" width="51.449" height="51.449"/>
		</defs>
		<clipPath id="SVGID_72_">
			<use xlink:href="#SVGID_71_"  style="overflow:visible;"/>
		</clipPath>
		
			<rect x="-270.875" y="408.367" style="clip-path:url(#SVGID_72_);fill:#FFFFFF;stroke:#FFFFFF;stroke-width:0.25;stroke-miterlimit:10;" width="1.602" height="1.598"/>
	</g>
	<g>
		<defs>
			<rect id="SVGID_73_" x="-271" y="395.441" width="51.449" height="51.449"/>
		</defs>
		<clipPath id="SVGID_74_">
			<use xlink:href="#SVGID_73_"  style="overflow:visible;"/>
		</clipPath>
		<rect x="-264.477" y="405.168" style="clip-path:url(#SVGID_74_);fill:#222220;" width="1.602" height="1.598"/>
	</g>
	<g>
		<defs>
			<rect id="SVGID_75_" x="-271" y="395.441" width="51.449" height="51.449"/>
		</defs>
		<clipPath id="SVGID_76_">
			<use xlink:href="#SVGID_75_"  style="overflow:visible;"/>
		</clipPath>
		
			<rect x="-264.477" y="405.168" style="clip-path:url(#SVGID_76_);fill:#FFFFFF;stroke:#FFFFFF;stroke-width:0.25;stroke-miterlimit:10;" width="1.602" height="1.598"/>
	</g>
	<g>
		<defs>
			<rect id="SVGID_77_" x="-271" y="395.441" width="51.449" height="51.449"/>
		</defs>
		<clipPath id="SVGID_78_">
			<use xlink:href="#SVGID_77_"  style="overflow:visible;"/>
		</clipPath>
		
			<linearGradient id="SVGID_79_" gradientUnits="userSpaceOnUse" x1="-230.875" y1="433.604" x2="-230.875" y2="432.006" gradientTransform="matrix(1 0 0 -1 0 842.772)">
			<stop  offset="0" style="stop-color:#E0B894"/>
			<stop  offset="1" style="stop-color:#D18973"/>
		</linearGradient>
		<rect x="-231.676" y="409.168" style="clip-path:url(#SVGID_78_);fill:url(#SVGID_79_);" width="1.602" height="1.598"/>
	</g>
	<g>
		<defs>
			<rect id="SVGID_80_" x="-271" y="395.441" width="51.449" height="51.449"/>
		</defs>
		<clipPath id="SVGID_81_">
			<use xlink:href="#SVGID_80_"  style="overflow:visible;"/>
		</clipPath>
		
			<rect x="-231.676" y="409.168" style="clip-path:url(#SVGID_81_);fill:#FFFFFF;stroke:#FFFFFF;stroke-width:0.25;stroke-miterlimit:10;" width="1.602" height="1.598"/>
	</g>
	<g>
		<defs>
			<rect id="SVGID_82_" x="-271" y="395.441" width="51.449" height="51.449"/>
		</defs>
		<clipPath id="SVGID_83_">
			<use xlink:href="#SVGID_82_"  style="overflow:visible;"/>
		</clipPath>
		
			<linearGradient id="SVGID_84_" gradientUnits="userSpaceOnUse" x1="-222.074" y1="439.206" x2="-222.074" y2="437.604" gradientTransform="matrix(1 0 0 -1 0 842.772)">
			<stop  offset="0" style="stop-color:#E0B894"/>
			<stop  offset="1" style="stop-color:#D18973"/>
		</linearGradient>
		<rect x="-222.875" y="403.566" style="clip-path:url(#SVGID_83_);fill:url(#SVGID_84_);" width="1.602" height="1.602"/>
	</g>
	<g>
		<defs>
			<rect id="SVGID_85_" x="-271" y="395.441" width="51.449" height="51.449"/>
		</defs>
		<clipPath id="SVGID_86_">
			<use xlink:href="#SVGID_85_"  style="overflow:visible;"/>
		</clipPath>
		
			<rect x="-222.875" y="403.566" style="clip-path:url(#SVGID_86_);fill:#FFFFFF;stroke:#FFFFFF;stroke-width:0.25;stroke-miterlimit:10;" width="1.602" height="1.602"/>
	</g>
	<g>
		<defs>
			<rect id="SVGID_87_" x="-271" y="395.441" width="51.449" height="51.449"/>
		</defs>
		<clipPath id="SVGID_88_">
			<use xlink:href="#SVGID_87_"  style="overflow:visible;"/>
		</clipPath>
		
			<rect x="-267.676" y="399.566" style="clip-path:url(#SVGID_88_);fill:#FFFFFF;stroke:#FFFFFF;stroke-miterlimit:10;" width="1.602" height="1.602"/>
	</g>
	<g>
		<defs>
			<rect id="SVGID_89_" x="-271" y="395.441" width="51.449" height="51.449"/>
		</defs>
		<clipPath id="SVGID_90_">
			<use xlink:href="#SVGID_89_"  style="overflow:visible;"/>
		</clipPath>
		
			<rect x="-267.676" y="399.233" style="clip-path:url(#SVGID_90_);fill:#FFFFFF;stroke:#FFFFFF;stroke-width:0.25;stroke-miterlimit:10;" width="1.602" height="1.602"/>
	</g>
	<g>
		<defs>
			<rect id="SVGID_91_" x="-271" y="395.441" width="51.449" height="51.449"/>
		</defs>
		<clipPath id="SVGID_92_">
			<use xlink:href="#SVGID_91_"  style="overflow:visible;"/>
		</clipPath>
		
			<rect x="-262.074" y="398.765" style="clip-path:url(#SVGID_92_);fill:#FFFFFF;stroke:#FFFFFF;stroke-miterlimit:10;" width="1.598" height="1.602"/>
	</g>
	<g>
		<defs>
			<rect id="SVGID_93_" x="-271" y="395.441" width="51.449" height="51.449"/>
		</defs>
		<clipPath id="SVGID_94_">
			<use xlink:href="#SVGID_93_"  style="overflow:visible;"/>
		</clipPath>
		
			<rect x="-261.657" y="398.765" style="clip-path:url(#SVGID_94_);fill:#FFFFFF;stroke:#FFFFFF;stroke-width:0.25;stroke-miterlimit:10;" width="1.598" height="1.602"/>
	</g>
	<g>
		<defs>
			<rect id="SVGID_95_" x="-271" y="395.441" width="51.449" height="51.449"/>
		</defs>
		<clipPath id="SVGID_96_">
			<use xlink:href="#SVGID_95_"  style="overflow:visible;"/>
		</clipPath>
		<rect x="-232.477" y="397.964" style="clip-path:url(#SVGID_96_);fill:#FFFFFF;" width="1.602" height="1.602"/>
	</g>
	<g>
		<defs>
			<rect id="SVGID_97_" x="-271" y="395.441" width="51.449" height="51.449"/>
		</defs>
		<clipPath id="SVGID_98_">
			<use xlink:href="#SVGID_97_"  style="overflow:visible;"/>
		</clipPath>
		
			<rect x="-232.477" y="397.964" style="clip-path:url(#SVGID_98_);fill:none;stroke:#FFFFFF;stroke-width:0.25;stroke-miterlimit:10;" width="1.602" height="1.602"/>
	</g>
	<g>
		<defs>
			<rect id="SVGID_99_" x="-271" y="395.441" width="51.449" height="51.449"/>
		</defs>
		<clipPath id="SVGID_100_">
			<use xlink:href="#SVGID_99_"  style="overflow:visible;"/>
		</clipPath>
		<rect x="-227.676" y="404.367" style="clip-path:url(#SVGID_100_);fill:#FFFFFF;" width="1.602" height="1.598"/>
	</g>
	<g>
		<defs>
			<rect id="SVGID_101_" x="-271" y="395.441" width="51.449" height="51.449"/>
		</defs>
		<clipPath id="SVGID_102_">
			<use xlink:href="#SVGID_101_"  style="overflow:visible;"/>
		</clipPath>
		
			<rect x="-227.676" y="404.367" style="clip-path:url(#SVGID_102_);fill:#FFFFFF;stroke:#FFFFFF;stroke-width:0.25;stroke-miterlimit:10;" width="1.602" height="1.598"/>
	</g>
	<g>
		<defs>
			<rect id="SVGID_103_" x="-271" y="395.441" width="51.449" height="51.449"/>
		</defs>
		<clipPath id="SVGID_104_">
			<use xlink:href="#SVGID_103_"  style="overflow:visible;"/>
		</clipPath>
		<polygon style="clip-path:url(#SVGID_104_);fill:#222220;" points="-267.676,414.765 -269.273,414.765 -269.273,416.367 
			-270.875,416.367 -270.875,417.964 -269.273,417.964 -269.273,419.566 -267.676,419.566 -267.676,417.964 -266.074,417.964 
			-266.074,416.367 -267.676,416.367 		"/>
	</g>
	<g>
		<defs>
			<rect id="SVGID_105_" x="-271" y="395.441" width="51.449" height="51.449"/>
		</defs>
		<clipPath id="SVGID_106_">
			<use xlink:href="#SVGID_105_"  style="overflow:visible;"/>
		</clipPath>
		<path style="clip-path:url(#SVGID_106_);fill:#FFFFFF;stroke:#FFFFFF;stroke-width:0.25;stroke-miterlimit:10;" d="
			M-267.676,414.765h-1.597v1.602h-1.602v1.597h1.602v1.602h1.597v-1.602h1.602v-1.597h-1.602V414.765z M-267.676,414.765
			L-267.676,414.765z"/>
	</g>
	<g>
		<defs>
			<rect id="SVGID_107_" x="-271" y="395.441" width="51.449" height="51.449"/>
		</defs>
		<clipPath id="SVGID_108_">
			<use xlink:href="#SVGID_107_"  style="overflow:visible;"/>
		</clipPath>
		<polygon style="clip-path:url(#SVGID_108_);fill:#FFFFFF;stroke:#FFFFFF;stroke-miterlimit:10;" points="-222.074,408.367 
			-223.676,408.367 -223.676,409.964 -225.273,409.964 -225.273,411.566 -223.676,411.566 -223.676,413.168 -222.074,413.168 
			-222.074,411.566 -220.476,411.566 -220.476,409.964 -222.074,409.964 		"/>
	</g>
	<g>
		<defs>
			<rect id="SVGID_109_" x="-271" y="395.441" width="51.449" height="51.449"/>
		</defs>
		<clipPath id="SVGID_110_">
			<use xlink:href="#SVGID_109_"  style="overflow:visible;"/>
		</clipPath>
		<path style="clip-path:url(#SVGID_110_);fill:none;stroke:#FFFFFF;stroke-width:0.25;stroke-miterlimit:10;" d="M-222.074,408.367
			h-1.602v1.597h-1.597v1.602h1.597v1.602h1.602v-1.602h1.598v-1.602h-1.598V408.367z M-222.074,408.367L-222.074,408.367z"/>
	</g>
	<g>
		<defs>
			<rect id="SVGID_111_" x="-271" y="395.441" width="51.449" height="51.449"/>
		</defs>
		<clipPath id="SVGID_112_">
			<use xlink:href="#SVGID_111_"  style="overflow:visible;"/>
		</clipPath>
		<path style="clip-path:url(#SVGID_112_);fill:#FFFFFF;" d="M-222.074,395.566c-1.324,0-2.402,1.078-2.402,2.398
			c0,1.325,1.078,2.403,2.402,2.403s2.398-1.078,2.398-2.403C-219.676,396.644-220.75,395.566-222.074,395.566 M-222.074,398.765
			c-0.441,0-0.801-0.359-0.801-0.801c0-0.441,0.36-0.796,0.801-0.796c0.441,0,0.801,0.355,0.801,0.796
			C-221.273,398.406-221.633,398.765-222.074,398.765"/>
	</g>
	<g>
		<defs>
			<rect id="SVGID_113_" x="-271" y="395.441" width="51.449" height="51.449"/>
		</defs>
		<clipPath id="SVGID_114_">
			<use xlink:href="#SVGID_113_"  style="overflow:visible;"/>
		</clipPath>
		<path style="clip-path:url(#SVGID_114_);fill:#FFFFFF;stroke:#FFFFFF;stroke-width:0.25;stroke-miterlimit:10;" d="
			M-222.074,395.566c-1.324,0-2.402,1.078-2.402,2.398c0,1.325,1.078,2.403,2.402,2.403s2.398-1.078,2.398-2.403
			C-219.676,396.644-220.75,395.566-222.074,395.566z M-222.074,398.765c-0.441,0-0.801-0.359-0.801-0.801
			c0-0.441,0.36-0.796,0.801-0.796c0.441,0,0.801,0.355,0.801,0.796C-221.273,398.406-221.633,398.765-222.074,398.765z
			 M-222.074,398.765L-222.074,398.765z"/>
	</g>
</g>
</svg>
