<?xml version="1.0" encoding="iso-8859-1"?>
<!-- Generator: Adobe Illustrator 19.0.1, SVG Export Plug-In . SVG Version: 6.00 Build 0)  -->
<svg version="1.1" id="Layer_1" xmlns="http://www.w3.org/2000/svg" xmlns:xlink="http://www.w3.org/1999/xlink" x="0px" y="0px"
	 viewBox="-29 121.966 551.034 551.034" style="enable-background:new -29 121.966 551.034 551.034;" xml:space="preserve">
<g>
	
		<linearGradient id="SVGID_1_" gradientUnits="userSpaceOnUse" x1="246.517" y1="126.536" x2="246.517" y2="671.686" gradientTransform="matrix(1 0 0 -1 0 797.932)">
		<stop  offset="0" style="stop-color:#E09B3D"/>
		<stop  offset="0.3" style="stop-color:#C74C4D"/>
		<stop  offset="0.6" style="stop-color:#C21975"/>
		<stop  offset="1" style="stop-color:#7024C4"/>
	</linearGradient>
	<path style="fill:url(#SVGID_1_);" d="M357.878,121.966H135.156C44.64,121.966-29,195.606-29,286.122v222.722
		C-29,599.36,44.64,673,135.156,673h222.722c90.516,0,164.156-73.64,164.156-164.156V286.122
		C522.033,195.606,448.393,121.966,357.878,121.966z M466.6,508.844c0,60.045-48.677,108.722-108.722,108.722H135.156
		c-60.045,0-108.722-48.677-108.722-108.722V286.122c0-60.046,48.677-108.722,108.722-108.722h222.722
		c60.045,0,108.722,48.676,108.722,108.722L466.6,508.844L466.6,508.844z"/>
	
		<linearGradient id="SVGID_2_" gradientUnits="userSpaceOnUse" x1="246.517" y1="126.536" x2="246.517" y2="671.686" gradientTransform="matrix(1 0 0 -1 0 797.932)">
		<stop  offset="0" style="stop-color:#E09B3D"/>
		<stop  offset="0.3" style="stop-color:#C74C4D"/>
		<stop  offset="0.6" style="stop-color:#C21975"/>
		<stop  offset="1" style="stop-color:#7024C4"/>
	</linearGradient>
	<path style="fill:url(#SVGID_2_);" d="M246.517,254.966C167.933,254.966,104,318.899,104,397.482s63.933,142.517,142.517,142.517
		s142.517-63.933,142.517-142.517S325.101,254.966,246.517,254.966z M246.517,484.566c-48.095,0-87.083-38.988-87.083-87.083
		s38.989-87.083,87.083-87.083c48.095,0,87.083,38.988,87.083,87.083C333.6,445.577,294.611,484.566,246.517,484.566z"/>
	
		<linearGradient id="SVGID_3_" gradientUnits="userSpaceOnUse" x1="389.31" y1="126.536" x2="389.31" y2="671.686" gradientTransform="matrix(1 0 0 -1 0 797.932)">
		<stop  offset="0" style="stop-color:#E09B3D"/>
		<stop  offset="0.3" style="stop-color:#C74C4D"/>
		<stop  offset="0.6" style="stop-color:#C21975"/>
		<stop  offset="1" style="stop-color:#7024C4"/>
	</linearGradient>
	<circle style="fill:url(#SVGID_3_);" cx="389.31" cy="256.036" r="34.15"/>
</g>
</svg>
