<?xml version="1.0" encoding="utf-8"?>
<!-- Generator: Adobe Illustrator 19.0.1, SVG Export Plug-In . SVG Version: 6.00 Build 0)  -->
<svg version="1.1" id="Layer_1" xmlns="http://www.w3.org/2000/svg" xmlns:xlink="http://www.w3.org/1999/xlink" x="0px" y="0px"
	 viewBox="0 0 188.8 132" style="enable-background:new 0 0 188.8 132;" xml:space="preserve">
<style type="text/css">
	.st0{fill:#CA8C76;stroke:#CA8C76;stroke-width:5;stroke-miterlimit:10;}
</style>
<g>
	<g>
		<path class="st0" d="M180,67.2c0,2.7-2.2,4.8-4.8,4.8H16.4l46.9,46.9c0.9,0.9,1.4,2.1,1.4,3.4s-0.5,2.5-1.4,3.4
			c-1.2,1.2-2.5,1.4-3.4,1.4c-0.9,0-2.3-0.2-3.4-1.4l-55-55.2C0.5,69.6,0,68.4,0,67.1s0.5-2.5,1.4-3.4L56.5,8.6
			c0.9-0.9,2.1-1.4,3.4-1.4s2.5,0.5,3.4,1.4c1.9,1.9,1.9,4.9,0,6.8L16.4,62.3h158.8C177.8,62.3,180,64.5,180,67.2z"/>
	</g>
</g>
</svg>
