<?xml version="1.0" encoding="utf-8"?>
<!-- Generator: Adobe Illustrator 19.0.1, SVG Export Plug-In . SVG Version: 6.00 Build 0)  -->
<svg version="1.1" id="Слой_1" xmlns="http://www.w3.org/2000/svg" xmlns:xlink="http://www.w3.org/1999/xlink" x="0px" y="0px"
	 viewBox="0 0 15 15" style="enable-background:new 0 0 15 15;" xml:space="preserve">
<style type="text/css">
	.st0{clip-path:url(#SVGID_2_);fill:#CF816D;}
</style>
<g>
	<defs>
		<rect id="SVGID_1_" width="15" height="15"/>
	</defs>
	<clipPath id="SVGID_2_">
		<use xlink:href="#SVGID_1_"  style="overflow:visible;"/>
	</clipPath>
	<path class="st0" d="M14.7,13c-0.5,1.4-2.3,2.1-3.6,2c-1.8-0.2-3.7-1.1-5.2-2.1C3.8,11.3,1.8,9,0.7,6.5c-0.8-1.8-1-3.9,0.2-5.5
		C1.3,0.4,1.8,0,2.6,0c1-0.1,1.2,0.5,1.5,1.5c0.3,0.7,0.6,1.4,0.8,2.1C5.3,4.9,4,4.9,3.8,6C3.7,6.7,4.6,7.6,4.9,8.1
		c0.7,1,1.6,1.8,2.6,2.4c0.6,0.4,1.5,1,2.1,0.6c1-0.6,0.9-2.2,2.3-1.7c0.7,0.3,1.4,0.7,2.1,1.1C15.2,11.2,15.1,11.8,14.7,13
		C14.4,13.9,15,12.1,14.7,13"/>
</g>
</svg>
