<?xml version="1.0" encoding="iso-8859-1"?>
<!-- Generator: Adobe Illustrator 19.0.1, SVG Export Plug-In . SVG Version: 6.00 Build 0)  -->
<svg version="1.1" id="Capa_1" xmlns="http://www.w3.org/2000/svg" xmlns:xlink="http://www.w3.org/1999/xlink" x="0px" y="0px"
	 viewBox="169 185 178.696 234" style="enable-background:new 169 185 178.696 234;" xml:space="preserve">
<linearGradient id="SVGID_1_" gradientUnits="userSpaceOnUse" x1="258.3481" y1="185" x2="258.3481" y2="419">
	<stop  offset="0" style="stop-color:#E0B894"/>
	<stop  offset="1" style="stop-color:#D18973"/>
</linearGradient>
<path style="fill:url(#SVGID_1_);" d="M258.348,185C209.082,185,169,221.904,169,267.266c0,15.326,4.611,30.283,13.337,43.259
	l70.925,105.235c1.359,2.016,3.752,3.241,6.326,3.241c0.02,0,0.039,0,0.059,0c2.597-0.019,4.995-1.281,6.329-3.333l69.117-106.254
	c8.245-12.702,12.603-27.276,12.603-42.147C347.696,221.904,307.615,185,258.348,185z M322.314,302.374l-62.839,96.602
	l-64.482-95.675c-7.264-10.801-11.202-23.261-11.202-36.035c0-37.801,33.501-68.646,74.556-68.646s74.506,30.845,74.506,68.646
	C332.855,279.661,329.176,291.803,322.314,302.374z"/>
<linearGradient id="SVGID_2_" gradientUnits="userSpaceOnUse" x1="258" y1="219.1" x2="258" y2="309.1">
	<stop  offset="0" style="stop-color:#E0B894"/>
	<stop  offset="1" style="stop-color:#D18973"/>
</linearGradient>
<path style="fill:url(#SVGID_2_);" d="M258,219.1c-24.813,0-45,20.187-45,45c0,24.654,19.858,45,45,45c25.452,0,45-20.617,45-45
	C303,239.287,282.813,219.1,258,219.1z M258,294.2c-16.629,0-30.1-13.517-30.1-30.1c0-16.542,13.558-30.1,30.1-30.1
	s30.05,13.558,30.05,30.1C288.05,280.441,274.892,294.2,258,294.2z"/>
</svg>
