<?xml version="1.0" encoding="iso-8859-1"?>
<!-- Generator: Adobe Illustrator 19.0.1, SVG Export Plug-In . SVG Version: 6.00 Build 0)  -->
<svg version="1.1" id="&#x421;&#x43B;&#x43E;&#x439;_1"
	 xmlns="http://www.w3.org/2000/svg" xmlns:xlink="http://www.w3.org/1999/xlink" x="0px" y="0px" viewBox="0 0 396.578 391"
	 style="enable-background:new 0 0 396.578 391;" xml:space="preserve">
<g>
	<g>
		<defs>
			<rect id="SVGID_1_" width="396.96" height="391"/>
		</defs>
		<clipPath id="SVGID_2_">
			<use xlink:href="#SVGID_1_"  style="overflow:visible;"/>
		</clipPath>
		<linearGradient id="SVGID_3_" gradientUnits="userSpaceOnUse" x1="198.287" y1="-1.703172e-004" x2="198.287" y2="185.426">
			<stop  offset="0" style="stop-color:#E0B894"/>
			<stop  offset="1" style="stop-color:#D18973"/>
		</linearGradient>
		<path style="clip-path:url(#SVGID_2_);fill:url(#SVGID_3_);" d="M153.715,74.899c0,13.789,4.769,26.535,12.418,36.043
			l-0.016,13.843c-0.347,0.547-1.941,1.59-3.957,2.184l-23.828,6.187c-0.039,0.012-0.078,0.024-0.117,0.032
			c-15.172,4.25-23.11,19.125-23.11,31.617v6.906c0,7.563,6.622,13.715,14.758,13.715l136.852-0.016
			c8.137,0,14.754-6.152,14.754-13.715v-6.906c0-12.496-7.934-27.367-23.106-31.613c-0.039-0.012-0.078-0.023-0.117-0.035
			l-23.828-6.188c-2.016-0.593-3.609-1.636-3.957-2.183l-0.016-12.957c0.02-0.024,0.039-0.047,0.059-0.067
			c8.172-9.769,12.672-22.422,12.672-35.633v-9.652c8.152-26.555,2.406-49.578-0.543-56.281c-0.008-0.02-0.02-0.039-0.031-0.063
			c-0.055-0.125-0.122-0.246-0.184-0.367c-0.039-0.07-0.074-0.14-0.113-0.211c-0.059-0.101-0.125-0.203-0.192-0.301
			c-0.054-0.082-0.105-0.164-0.164-0.242c-0.054-0.074-0.113-0.144-0.168-0.218c-0.078-0.094-0.152-0.192-0.234-0.282
			c-0.043-0.051-0.09-0.097-0.137-0.144c-0.098-0.102-0.199-0.207-0.301-0.301c-0.039-0.039-0.082-0.07-0.121-0.106
			c-0.117-0.101-0.23-0.199-0.351-0.289c-0.047-0.035-0.094-0.062-0.137-0.097c-0.121-0.086-0.242-0.168-0.367-0.246
			c-0.059-0.039-0.125-0.071-0.184-0.106c-0.113-0.066-0.226-0.129-0.344-0.187c-0.082-0.039-0.167-0.075-0.253-0.114
			c-0.098-0.043-0.2-0.089-0.305-0.128c-0.094-0.04-0.195-0.067-0.297-0.102c-0.094-0.031-0.188-0.063-0.285-0.09
			c-0.102-0.027-0.203-0.047-0.305-0.07c-0.101-0.024-0.203-0.047-0.305-0.063c-0.093-0.019-0.187-0.027-0.281-0.039
			c-0.117-0.015-0.234-0.031-0.351-0.039c-0.078-0.004-0.157-0.004-0.235-0.008c-0.136-0.004-0.273-0.007-0.41-0.004
			c-0.066,0.004-0.137,0.008-0.203,0.012c-0.145,0.012-0.293,0.024-0.441,0.043c-0.02,0-0.043,0-0.063,0.004
			c-6.164,0.879-13.68-0.918-21.637-2.824c-14.078-3.371-29.957-7.164-43.867,2.867c-13.453,1.156-22.992,12.461-22.992,27.738
			c0,11.114,5.156,30.953,6.336,35.36v5.336H153.715z M230.375,65.445v10.668c0,11.274-4.238,21.602-10.852,28.747
			c-0.015,0.015-0.027,0.035-0.046,0.05c-5.684,6.121-13.114,9.899-21.118,9.899c-16.964,0-31.847-18.649-31.847-39.906v-2.184
			c0-6.356,2.691-15.649,4.699-21.527c28.969,0.664,50.828,7.621,59.164,10.707V65.445z M217.664,124.86
			c0,5.761,3.738,9.855,8.277,12.355c-7.129,6.184-17.066,9.832-27.609,9.832c-10.551,0-20.504-3.656-27.633-9.855
			c4.512-2.5,8.215-6.582,8.215-12.309l0.004-2.738c5.914,3.484,12.523,5.461,19.441,5.461c6.789,0,13.344-1.758,19.301-5.082
			L217.664,124.86z M268.672,164.789v6.906c0,0.176-0.652,0.915-1.957,0.915l-136.852,0.015c-1.304,0-1.957-0.738-1.957-0.914
			v-6.906c0-7.656,4.711-16.723,13.707-19.274l15.449-4.011c9.512,11.394,24.922,18.328,41.27,18.328s31.754-6.93,41.266-18.324
			l15.367,3.992C263.965,148.067,268.672,157.133,268.672,164.789L268.672,164.789z M172.66,19.16c0.031,0,0.059-0.004,0.086-0.004
			c0.184-0.003,0.363-0.011,0.543-0.027c0.07-0.008,0.141-0.019,0.207-0.031c0.141-0.016,0.277-0.035,0.414-0.063
			c0.086-0.015,0.168-0.039,0.254-0.058c0.117-0.028,0.238-0.055,0.352-0.09c0.093-0.031,0.183-0.067,0.273-0.098
			c0.106-0.035,0.211-0.07,0.316-0.113c0.098-0.043,0.192-0.09,0.286-0.133c0.093-0.047,0.187-0.086,0.277-0.133
			c0.109-0.058,0.215-0.125,0.32-0.191c0.071-0.043,0.145-0.082,0.219-0.133c0.133-0.09,0.266-0.187,0.391-0.289
			c0.035-0.027,0.074-0.051,0.109-0.082c9.41-7.684,21.621-4.762,34.547-1.668c6.957,1.668,14.101,3.375,21.039,3.398
			c1.668,6.161,3.305,17.075,1.547,30.071c-10.414-3.793-34.832-11.18-67.082-11.18c-0.02,0-0.039,0-0.055,0
			c-0.137,0-0.269,0.012-0.402,0.02c-0.082,0.007-0.168,0.011-0.25,0.019c-0.106,0.012-0.211,0.031-0.313,0.047
			c-0.109,0.02-0.218,0.031-0.324,0.055c-0.066,0.015-0.125,0.035-0.187,0.051c-0.145,0.035-0.289,0.07-0.426,0.113
			c-0.024,0.008-0.043,0.019-0.067,0.023c-0.175,0.059-0.347,0.125-0.515,0.196c0,0-0.004,0.003-0.008,0.003
			c-0.184,0.079-0.363,0.168-0.539,0.266c-0.027,0.016-0.055,0.031-0.082,0.051c-0.149,0.082-0.293,0.168-0.434,0.265
			c-0.086,0.059-0.168,0.125-0.254,0.188c-0.078,0.059-0.156,0.113-0.23,0.172c-0.113,0.098-0.227,0.203-0.336,0.308
			c-0.035,0.036-0.078,0.067-0.113,0.106c-0.106,0.101-0.203,0.215-0.301,0.328c-0.039,0.043-0.078,0.086-0.117,0.129
			c-0.075,0.094-0.145,0.195-0.219,0.293c-0.051,0.074-0.106,0.144-0.156,0.219c-0.051,0.074-0.098,0.156-0.145,0.234
			c-0.062,0.106-0.129,0.211-0.183,0.32c-0.036,0.059-0.063,0.125-0.094,0.188c-0.039,0.082-0.082,0.164-0.117,0.246
			c-0.442-3.008-0.719-5.773-0.719-7.969C160.176,27.266,163.445,19.16,172.66,19.16L172.66,19.16z M172.66,19.16"/>
	</g>
	<linearGradient id="SVGID_4_" gradientUnits="userSpaceOnUse" x1="83.1815" y1="204.6361" x2="83.1815" y2="390.063">
		<stop  offset="0" style="stop-color:#E0B894"/>
		<stop  offset="1" style="stop-color:#D18973"/>
	</linearGradient>
	<path style="fill:url(#SVGID_4_);" d="M143.258,337.809c-0.039-0.012-0.078-0.02-0.117-0.031l-23.829-6.188
		c-2.015-0.594-3.613-1.637-3.957-2.184l-0.015-12.957c0.019-0.023,0.039-0.046,0.058-0.07c8.172-9.766,12.672-22.418,12.672-35.629
		v-9.652c8.153-26.555,2.407-49.578-0.543-56.281c-0.007-0.02-0.019-0.039-0.027-0.059c-0.062-0.133-0.129-0.266-0.199-0.395
		c-0.031-0.058-0.063-0.121-0.098-0.179c-0.066-0.117-0.144-0.235-0.219-0.348c-0.043-0.062-0.086-0.129-0.129-0.191
		c-0.074-0.098-0.148-0.192-0.222-0.282c-0.059-0.074-0.117-0.148-0.176-0.214c-0.07-0.082-0.148-0.157-0.223-0.231
		c-0.07-0.074-0.14-0.148-0.214-0.215c-0.075-0.074-0.157-0.136-0.239-0.203c-0.074-0.066-0.148-0.133-0.23-0.191
		c-0.09-0.074-0.188-0.137-0.285-0.203c-0.071-0.047-0.141-0.098-0.211-0.145c-0.117-0.07-0.243-0.137-0.364-0.203
		c-0.054-0.031-0.109-0.063-0.164-0.09c-0.14-0.07-0.285-0.133-0.429-0.191c-0.043-0.016-0.086-0.039-0.129-0.055
		c-0.149-0.059-0.297-0.105-0.449-0.152c-0.047-0.012-0.09-0.028-0.137-0.043c-0.141-0.039-0.281-0.067-0.426-0.098
		c-0.062-0.012-0.125-0.027-0.187-0.039c-0.122-0.02-0.243-0.035-0.364-0.047c-0.09-0.012-0.179-0.023-0.273-0.031
		c-0.094-0.008-0.192-0.008-0.289-0.008c-0.121-0.004-0.242-0.008-0.364-0.004c-0.074,0-0.148,0.008-0.218,0.016
		c-0.145,0.008-0.289,0.019-0.434,0.039c-0.023,0-0.043,0-0.062,0.004c-6.161,0.879-13.68-0.918-21.637-2.824
		c-14.078-3.372-29.957-7.165-43.867,2.867c-13.453,1.156-22.992,12.461-22.992,27.742c0,11.109,5.156,30.949,6.339,35.355v5.336
		c0,13.789,4.77,26.535,12.418,36.043l-0.015,13.844c-0.344,0.547-1.942,1.59-3.957,2.184l-23.828,6.187
		c-0.039,0.012-0.079,0.02-0.118,0.031C7.938,342.074,0,356.945,0,369.442v6.906c0,7.562,6.617,13.715,14.754,13.715l136.855-0.016
		c8.133,0,14.754-6.152,14.754-13.715v-6.906C166.363,356.93,158.426,342.059,143.258,337.809L143.258,337.809z M51.406,277.352
		c0-6.356,2.688-15.645,4.699-21.524c28.969,0.664,50.825,7.621,59.165,10.707v14.215c0,11.274-4.239,21.598-10.852,28.746
		c-0.016,0.016-0.035,0.035-0.051,0.055c-5.683,6.117-13.109,9.891-21.113,9.891c-16.965,0-31.848-18.649-31.848-39.907V277.352z
		 M63.809,329.516l0.003-2.738c5.915,3.484,12.524,5.464,19.442,5.464c6.789,0,13.344-1.757,19.297-5.082l0.004,2.332
		c0,5.766,3.738,9.86,8.277,12.356c-7.125,6.187-17.066,9.836-27.605,9.836c-10.555,0-20.504-3.656-27.633-9.856
		C60.105,339.328,63.809,335.246,63.809,329.516L63.809,329.516z M57.555,223.797c0.027,0,0.054-0.004,0.086-0.004
		c0.179-0.004,0.359-0.012,0.539-0.027c0.074-0.008,0.14-0.02,0.211-0.031c0.136-0.016,0.273-0.036,0.41-0.063
		c0.09-0.016,0.172-0.039,0.258-0.062c0.117-0.028,0.234-0.055,0.351-0.09c0.09-0.028,0.184-0.063,0.274-0.094
		c0.105-0.039,0.211-0.074,0.312-0.117c0.098-0.039,0.192-0.086,0.289-0.133c0.09-0.043,0.184-0.082,0.277-0.133
		c0.106-0.058,0.211-0.125,0.317-0.187c0.074-0.043,0.148-0.086,0.219-0.133c0.136-0.09,0.265-0.188,0.394-0.289
		c0.035-0.028,0.074-0.051,0.11-0.082c9.406-7.688,21.617-4.762,34.543-1.668c6.957,1.668,14.101,3.371,21.043,3.398
		c1.664,6.16,3.304,17.071,1.542,30.071c-10.41-3.793-34.832-11.184-67.082-11.184c-0.019,0-0.039,0.004-0.058,0.004
		c-0.129,0.004-0.262,0.012-0.391,0.019c-0.086,0.008-0.172,0.012-0.258,0.02c-0.101,0.012-0.203,0.031-0.304,0.047
		c-0.11,0.019-0.223,0.035-0.336,0.058c-0.055,0.012-0.113,0.028-0.168,0.043c-0.153,0.035-0.297,0.071-0.442,0.118
		c-0.015,0.007-0.031,0.011-0.043,0.015c-0.378,0.125-0.742,0.281-1.086,0.473c-0.015,0.008-0.031,0.019-0.046,0.027
		c-0.161,0.09-0.317,0.184-0.469,0.289c-0.078,0.051-0.152,0.113-0.231,0.172c-0.082,0.063-0.171,0.121-0.25,0.191
		c-0.113,0.09-0.222,0.192-0.328,0.297c-0.039,0.039-0.086,0.075-0.125,0.114c-0.101,0.101-0.199,0.214-0.293,0.324
		c-0.043,0.047-0.082,0.09-0.121,0.137c-0.078,0.089-0.144,0.191-0.219,0.289c-0.05,0.074-0.109,0.144-0.16,0.218
		c-0.05,0.075-0.093,0.157-0.14,0.235c-0.067,0.105-0.129,0.211-0.188,0.32c-0.031,0.059-0.062,0.125-0.09,0.188
		c-0.043,0.082-0.082,0.164-0.121,0.246c-0.441-3.008-0.715-5.774-0.715-7.969C45.07,231.899,48.34,223.797,57.555,223.797
		L57.555,223.797z M153.562,376.332c0,0.172-0.652,0.914-1.953,0.914l-136.855,0.016c-1.301,0-1.953-0.742-1.953-0.914v-6.906
		c0-7.657,4.707-16.723,13.707-19.278l15.445-4.011c9.512,11.398,24.922,18.332,41.274,18.332c16.343,0,31.75-6.93,41.265-18.325
		l15.367,3.993c8.996,2.55,13.703,11.617,13.703,19.273V376.332z M153.562,376.332"/>
	<linearGradient id="SVGID_5_" gradientUnits="userSpaceOnUse" x1="313.3965" y1="204.6355" x2="313.3965" y2="390.063">
		<stop  offset="0" style="stop-color:#E0B894"/>
		<stop  offset="1" style="stop-color:#D18973"/>
	</linearGradient>
	<path style="fill:url(#SVGID_5_);" d="M373.473,337.813c-0.039-0.012-0.078-0.024-0.118-0.035l-23.828-6.188
		c-2.019-0.594-3.613-1.637-3.957-2.184l-0.015-12.957c0.019-0.023,0.039-0.046,0.058-0.07c8.172-9.766,12.672-22.418,12.672-35.629
		v-9.652c8.153-26.555,2.406-49.578-0.543-56.281c-0.008-0.02-0.019-0.039-0.031-0.059c-0.059-0.133-0.125-0.262-0.191-0.387
		c-0.036-0.062-0.067-0.129-0.106-0.191c-0.062-0.113-0.137-0.219-0.207-0.328c-0.047-0.071-0.094-0.145-0.145-0.215
		c-0.062-0.086-0.132-0.172-0.199-0.254c-0.066-0.082-0.129-0.164-0.199-0.242c-0.059-0.067-0.125-0.133-0.187-0.196
		c-0.082-0.085-0.165-0.171-0.25-0.25c-0.063-0.058-0.129-0.109-0.192-0.167c-0.094-0.075-0.183-0.157-0.277-0.227
		c-0.074-0.059-0.156-0.109-0.235-0.164c-0.089-0.063-0.175-0.125-0.265-0.18c-0.098-0.062-0.203-0.117-0.305-0.172
		c-0.074-0.043-0.148-0.086-0.223-0.121c-0.121-0.062-0.25-0.117-0.378-0.172c-0.059-0.023-0.114-0.05-0.176-0.074
		c-0.137-0.051-0.274-0.094-0.414-0.137c-0.059-0.019-0.114-0.039-0.168-0.054c-0.133-0.035-0.27-0.067-0.406-0.094
		c-0.067-0.016-0.137-0.031-0.208-0.043c-0.117-0.02-0.234-0.035-0.351-0.047c-0.094-0.012-0.188-0.023-0.281-0.031
		c-0.094-0.008-0.192-0.008-0.286-0.012c-0.124-0.004-0.246-0.008-0.367-0.004c-0.074,0.004-0.148,0.012-0.222,0.016
		c-0.145,0.012-0.285,0.019-0.43,0.039c-0.02,0.004-0.043,0.004-0.063,0.008c-6.164,0.879-13.679-0.922-21.636-2.824
		c-14.078-3.372-29.957-7.165-43.871,2.863c-13.45,1.156-22.989,12.461-22.989,27.742c0,11.109,5.153,30.949,6.336,35.355v5.34
		c0,13.789,4.77,26.535,12.418,36.043l-0.015,13.844c-0.344,0.543-1.942,1.59-3.957,2.18l-23.828,6.191
		c-0.04,0.008-0.079,0.02-0.118,0.031c-15.168,4.25-23.105,19.121-23.105,31.614v6.91c0,7.562,6.617,13.715,14.754,13.715
		l136.855-0.016c8.133,0,14.754-6.152,14.754-13.715v-6.906C396.578,356.93,388.641,342.059,373.473,337.813L373.473,337.813z
		 M281.621,277.352c0-6.356,2.688-15.645,4.699-21.524c28.969,0.664,50.828,7.621,59.164,10.707v14.215
		c0,11.274-4.238,21.602-10.851,28.746c-0.016,0.016-0.031,0.032-0.047,0.051c-5.684,6.117-13.113,9.895-21.117,9.895
		c-16.965,0-31.848-18.645-31.848-39.903V277.352z M294.023,329.516l0.004-2.738c5.914,3.484,12.524,5.464,19.442,5.464
		c6.789,0,13.343-1.757,19.297-5.082l0.004,2.332c0,5.766,3.738,9.86,8.277,12.356c-7.125,6.187-17.067,9.836-27.606,9.836
		c-10.554,0-20.503-3.656-27.632-9.856C290.32,339.328,294.023,335.246,294.023,329.516L294.023,329.516z M287.77,223.797
		c0.027,0,0.054-0.004,0.085-0.004c0.18-0.004,0.364-0.012,0.543-0.027c0.071-0.008,0.137-0.02,0.207-0.031
		c0.137-0.016,0.278-0.036,0.415-0.063c0.085-0.016,0.168-0.039,0.253-0.062c0.118-0.028,0.235-0.055,0.352-0.09
		c0.094-0.028,0.184-0.063,0.273-0.094c0.106-0.039,0.211-0.074,0.317-0.117c0.097-0.039,0.191-0.086,0.285-0.133
		c0.094-0.043,0.188-0.082,0.277-0.133c0.11-0.058,0.215-0.125,0.321-0.187c0.07-0.043,0.144-0.086,0.218-0.133
		c0.133-0.09,0.262-0.188,0.391-0.289c0.035-0.028,0.074-0.051,0.109-0.082c9.411-7.688,21.618-4.762,34.547-1.668
		c6.957,1.668,14.102,3.371,21.039,3.398c1.668,6.16,3.305,17.071,1.547,30.071c-10.414-3.793-34.832-11.184-67.086-11.184
		c-0.019,0-0.035,0.004-0.054,0.004c-0.133,0.004-0.262,0.012-0.395,0.019c-0.086,0.008-0.172,0.012-0.258,0.02
		c-0.097,0.012-0.199,0.031-0.297,0.047c-0.113,0.015-0.23,0.031-0.339,0.058c-0.055,0.012-0.11,0.028-0.168,0.039
		c-0.149,0.039-0.297,0.075-0.446,0.122c-0.011,0.003-0.023,0.011-0.035,0.015c-0.379,0.125-0.746,0.281-1.094,0.473
		c-0.011,0.004-0.023,0.015-0.035,0.019c-0.164,0.094-0.324,0.192-0.476,0.297c-0.078,0.051-0.153,0.113-0.227,0.168
		c-0.086,0.067-0.176,0.125-0.258,0.195c-0.113,0.094-0.219,0.196-0.328,0.297c-0.039,0.039-0.082,0.075-0.121,0.114
		c-0.105,0.101-0.203,0.214-0.297,0.328c-0.039,0.043-0.082,0.086-0.117,0.133c-0.078,0.093-0.148,0.195-0.223,0.293
		c-0.05,0.07-0.105,0.14-0.156,0.214c-0.051,0.075-0.094,0.157-0.144,0.239c-0.063,0.101-0.125,0.207-0.184,0.316
		c-0.031,0.063-0.063,0.125-0.09,0.191c-0.043,0.083-0.082,0.161-0.121,0.243c-0.438-3.008-0.715-5.774-0.715-7.969
		C275.285,231.899,278.555,223.797,287.77,223.797L287.77,223.797z M383.777,376.332c0,0.172-0.648,0.914-1.953,0.914
		l-136.855,0.016c-1.301,0-1.953-0.742-1.953-0.914v-6.906c0-7.657,4.707-16.723,13.707-19.278l15.449-4.011
		c9.512,11.398,24.922,18.332,41.269,18.332c16.348,0,31.754-6.93,41.266-18.325l15.367,3.993c9,2.55,13.707,11.617,13.707,19.273
		v6.906H383.777z M383.777,376.332"/>
	<linearGradient id="SVGID_6_" gradientUnits="userSpaceOnUse" x1="291.0598" y1="75.7373" x2="291.0598" y2="191.867">
		<stop  offset="0" style="stop-color:#E0B894"/>
		<stop  offset="1" style="stop-color:#D18973"/>
	</linearGradient>
	<path style="fill:url(#SVGID_6_);" d="M258.914,87.578c34.141,21.176,54.52,57.77,54.52,97.887c0,3.535,2.867,6.402,6.402,6.402
		c3.535,0,6.398-2.867,6.398-6.402c0-22.16-5.757-44-16.656-63.156c-10.562-18.571-25.75-34.34-43.918-45.61
		c-3.004-1.863-6.949-0.937-8.812,2.067C254.984,81.77,255.91,85.715,258.914,87.578L258.914,87.578z M258.914,87.578"/>
	<linearGradient id="SVGID_7_" gradientUnits="userSpaceOnUse" x1="105.6082" y1="75.7333" x2="105.6082" y2="191.867">
		<stop  offset="0" style="stop-color:#E0B894"/>
		<stop  offset="1" style="stop-color:#D18973"/>
	</linearGradient>
	<path style="fill:url(#SVGID_7_);" d="M76.828,191.867c3.535,0,6.402-2.867,6.402-6.402c0-40.121,20.383-76.715,54.528-97.891
		c3.004-1.863,3.93-5.808,2.066-8.812c-1.863-3.004-5.808-3.93-8.812-2.067c-18.168,11.266-33.356,27.04-43.922,45.61
		c-10.899,19.156-16.66,40.996-16.66,63.16C70.43,189,73.297,191.867,76.828,191.867L76.828,191.867z M76.828,191.867"/>
	<linearGradient id="SVGID_8_" gradientUnits="userSpaceOnUse" x1="198.3269" y1="289.2993" x2="198.3269" y2="313.367">
		<stop  offset="0" style="stop-color:#E0B894"/>
		<stop  offset="1" style="stop-color:#D18973"/>
	</linearGradient>
	<path style="fill:url(#SVGID_8_);" d="M255.297,293.008c-1.492-3.207-5.297-4.594-8.5-3.105
		c-15.227,7.078-31.535,10.667-48.465,10.667c-16.934,0-33.242-3.589-48.473-10.671c-3.203-1.493-7.011-0.102-8.5,3.101
		c-1.492,3.207-0.101,7.012,3.106,8.504c16.93,7.875,35.055,11.863,53.867,11.863c18.809,0,36.93-3.988,53.859-11.859
		C255.395,300.02,256.785,296.215,255.297,293.008L255.297,293.008z M255.297,293.008"/>
</g>
</svg>
