<?xml version="1.0" encoding="iso-8859-1"?>
<!-- Generator: Adobe Illustrator 19.0.1, SVG Export Plug-In . SVG Version: 6.00 Build 0)  -->
<svg version="1.1" id="Capa_1" xmlns="http://www.w3.org/2000/svg" xmlns:xlink="http://www.w3.org/1999/xlink" x="0px" y="0px"
	 viewBox="-49 141 512 512" style="enable-background:new -49 141 512 512;" xml:space="preserve">
<g>
	<path style="fill:#FFFFFF;" d="M357,557c55.69,0,101-44.86,101-100c0-32.33-15.92-62.84-42.6-81.61l-3.96-2.8l2.67-4.05
		C423.2,354.76,428,338.67,428,322c0-36.12-23.34-68.39-58.09-80.31l-3.05-1.05l-0.31-3.21C361.68,185.31,318.88,146,267,146
		c-20.59,0-40.4,6.24-57.28,18.05l-2.87,2.01l-2.87-2.01C187.19,152.24,167.48,146,147,146c-51.88,0-94.68,39.31-99.55,91.43
		l-0.31,3.21l-3.05,1.05C9.34,253.61-14,285.88-14,322c0,16.67,4.8,32.76,13.89,46.54l2.67,4.05l-3.96,2.8
		C-28.08,394.16-44,424.67-44,457c0,55.14,45.31,100,101,100h80v71H57c-5.51,0-10,4.49-10,10s4.49,10,10,10h300
		c5.51,0,10-4.49,10-10s-4.49-10-10-10h-80v-71H357z M226.75,176.88C238.96,169.76,252.88,166,267,166
		c21.42,0,41.56,8.49,56.71,23.9c15.3,15.56,23.52,36.31,23.14,58.42c-0.08,4.83,3.3,9.03,8.03,9.98
		C385.66,264.48,408,291.27,408,322c0,17.52-6.91,33.96-19.47,46.31c-2.37,2.33-3.4,5.55-2.83,8.84c0.57,3.29,2.63,5.97,5.65,7.37
		C419.69,397.59,438,426.04,438,457c0,44.11-36.34,80-81,80h-58.85l8.76-8.57c19.4-19,30.09-44.37,30.09-71.43
		c0-32.33-15.92-62.84-42.6-81.61l-3.96-2.8l2.67-4.05C302.2,354.76,307,338.67,307,322c0-36.16-22.95-68.42-57.1-80.29l-3.04-1.05
		l-0.3-3.21c-1.81-19.43-9.15-37.81-21.23-53.16l-3.55-4.52L226.75,176.88z M257,628H157v-71h100V628z M237,537h-80V431.14
		l57.07-57.07c3.9-3.9,3.9-10.24,0-14.14c-1.89-1.89-4.4-2.93-7.07-2.93s-5.18,1.04-7.07,2.93L157,402.86V247c0-5.51-4.49-10-10-10
		s-10,4.49-10,10v95.86l-42.93-42.93c-1.89-1.89-4.4-2.93-7.07-2.93s-5.18,1.04-7.07,2.93c-3.9,3.9-3.9,10.24,0,14.14L137,371.14
		v91.72l-42.93-42.93c-1.89-1.89-4.4-2.93-7.07-2.93s-5.18,1.04-7.07,2.93c-3.9,3.9-3.9,10.24,0,14.14L137,491.14V537H57
		c-44.66,0-81-35.89-81-80c0-30.96,18.31-59.41,46.65-72.48c3.02-1.4,5.08-4.08,5.65-7.37c0.57-3.29-0.46-6.51-2.83-8.84
		C12.91,355.96,6,339.52,6,322c0-30.73,22.34-57.52,53.12-63.7c4.53-0.91,8.7-5.14,7.92-11.46L67,246.51v-0.33
		c0.44-44.21,36.32-80.18,80-80.18s79.56,35.97,80,80.18v0.33l-0.04,0.33c-0.78,6.32,3.39,10.55,7.92,11.46
		c30.2,6.07,52.12,32.86,52.12,63.7c0,17.52-6.91,33.96-19.47,46.31c-2.37,2.33-3.4,5.55-2.83,8.84c0.57,3.29,2.63,5.97,5.65,7.37
		C298.69,397.59,317,426.04,317,457C317,501.11,281.11,537,237,537z"/>
</g>
</svg>
